<?xml version="1.0" encoding="UTF-8"?><svg xmlns="http://www.w3.org/2000/svg" xmlns:xlink="http://www.w3.org/1999/xlink" contentScriptType="text/ecmascript" width="288" zoomAndPan="magnify" contentStyleType="text/css" viewBox="0 0 288 89.999999" height="89.999999" preserveAspectRatio="xMidYMid meet" version="1.0"><defs><clipPath id="clip-0"><path d="M 107.425781 27 L 129 27 L 129 49 L 107.425781 49 Z M 107.425781 27 " clip-rule="nonzero"/></clipPath><clipPath id="clip-1"><path d="M 160 27 L 180.925781 27 L 180.925781 48 L 160 48 Z M 160 27 " clip-rule="nonzero"/></clipPath><clipPath id="clip-2"><path d="M 133 8.746094 L 155 8.746094 L 155 29 L 133 29 Z M 133 8.746094 " clip-rule="nonzero"/></clipPath><clipPath id="clip-3"><path d="M 120 47 L 152 47 L 152 81.496094 L 120 81.496094 Z M 120 47 " clip-rule="nonzero"/></clipPath></defs><rect x="-28.8" width="345.6" fill="rgb(100%, 100%, 100%)" y="-9" height="107.999999" fill-opacity="1"/><rect x="-28.8" width="345.6" fill="rgb(100%, 100%, 100%)" y="-9" height="107.999999" fill-opacity="1"/><rect x="-28.8" width="345.6" fill="rgb(30.979919%, 70.588684%, 0%)" y="-9" height="107.999999" fill-opacity="1"/><g clip-path="url(#clip-0)"><path fill="rgb(0%, 0%, 0%)" d="M 124.328125 47.699219 C 124.898438 47.304688 125.125 46.679688 125.011719 46.054688 L 124.160156 40.839844 L 127.792969 37.152344 C 128.246094 36.699219 128.417969 36.019531 128.191406 35.394531 C 127.964844 34.773438 127.453125 34.375 126.828125 34.261719 L 121.832031 33.523438 L 119.558594 28.816406 C 119.277344 28.25 118.707031 27.855469 118.027344 27.855469 C 117.34375 27.855469 116.777344 28.25 116.492188 28.816406 L 114.222656 33.523438 L 109.28125 34.261719 C 108.65625 34.375 108.148438 34.773438 107.917969 35.394531 C 107.691406 36.019531 107.863281 36.699219 108.316406 37.152344 L 111.949219 40.839844 L 111.097656 46.054688 C 110.984375 46.679688 111.269531 47.359375 111.78125 47.699219 C 112.066406 47.925781 112.40625 47.984375 112.746094 47.984375 C 113.03125 47.984375 113.3125 47.925781 113.539062 47.757812 L 118.027344 45.320312 L 122.511719 47.757812 C 123.136719 48.097656 123.820312 48.097656 124.328125 47.699219 Z M 118.082031 43.050781 C 117.800781 43.050781 117.515625 43.105469 117.289062 43.277344 L 113.597656 45.320312 L 114.335938 40.953125 C 114.449219 40.441406 114.222656 39.875 113.882812 39.476562 L 110.703125 36.304688 L 114.960938 35.679688 C 115.527344 35.621094 115.984375 35.226562 116.210938 34.714844 L 118.082031 30.859375 L 119.957031 34.714844 C 120.183594 35.226562 120.695312 35.566406 121.207031 35.679688 L 125.464844 36.304688 L 122.34375 39.421875 C 121.945312 39.820312 121.773438 40.328125 121.886719 40.894531 L 122.625 45.261719 L 118.933594 43.222656 C 118.652344 43.105469 118.367188 43.050781 118.082031 43.050781 Z M 118.082031 43.050781 " fill-opacity="1" fill-rule="nonzero"/></g><g clip-path="url(#clip-1)"><path fill="rgb(0%, 0%, 0%)" d="M 180.429688 35.394531 C 180.203125 34.773438 179.691406 34.375 179.070312 34.261719 L 174.070312 33.523438 L 171.800781 28.816406 C 171.515625 28.25 170.949219 27.855469 170.265625 27.855469 C 169.585938 27.855469 169.019531 28.25 168.734375 28.816406 L 166.460938 33.523438 L 161.523438 34.261719 C 160.898438 34.375 160.386719 34.773438 160.160156 35.394531 C 159.933594 36.019531 160.101562 36.699219 160.558594 37.152344 L 164.191406 40.839844 L 163.339844 46.054688 C 163.226562 46.679688 163.511719 47.359375 164.019531 47.699219 C 164.304688 47.925781 164.644531 47.984375 164.984375 47.984375 C 165.269531 47.984375 165.554688 47.925781 165.78125 47.757812 L 170.265625 45.320312 L 174.753906 47.757812 C 175.320312 48.039062 176.003906 48.039062 176.511719 47.644531 C 177.082031 47.246094 177.308594 46.621094 177.195312 46 L 176.34375 40.78125 L 179.976562 37.097656 C 180.488281 36.644531 180.660156 36.019531 180.429688 35.394531 Z M 174.582031 39.421875 C 174.183594 39.820312 174.015625 40.328125 174.128906 40.894531 L 174.867188 45.261719 L 171.175781 43.222656 C 170.949219 43.105469 170.664062 42.992188 170.378906 42.992188 C 170.097656 42.992188 169.8125 43.050781 169.585938 43.222656 L 165.894531 45.261719 L 166.632812 40.894531 C 166.746094 40.386719 166.519531 39.820312 166.179688 39.421875 L 162.941406 36.304688 L 167.199219 35.679688 C 167.769531 35.621094 168.222656 35.226562 168.449219 34.714844 L 170.324219 30.859375 L 172.199219 34.714844 C 172.425781 35.226562 172.9375 35.566406 173.445312 35.679688 L 177.707031 36.304688 Z M 174.582031 39.421875 " fill-opacity="1" fill-rule="nonzero"/></g><g clip-path="url(#clip-2)"><path fill="rgb(0%, 0%, 0%)" d="M 138.128906 21.730469 L 137.277344 26.945312 C 137.164062 27.570312 137.445312 28.25 137.957031 28.589844 C 138.242188 28.816406 138.582031 28.875 138.921875 28.875 C 139.207031 28.875 139.492188 28.816406 139.71875 28.648438 L 144.203125 26.324219 L 148.691406 28.761719 C 149.257812 29.046875 149.9375 29.046875 150.449219 28.648438 C 151.019531 28.25 151.246094 27.628906 151.132812 27.003906 L 150.28125 21.785156 L 153.914062 18.101562 C 154.367188 17.648438 154.539062 16.96875 154.3125 16.34375 C 154.082031 15.71875 153.574219 15.324219 152.949219 15.210938 L 147.953125 14.414062 L 145.679688 9.710938 C 145.453125 9.140625 144.886719 8.746094 144.203125 8.746094 C 143.523438 8.746094 142.953125 9.140625 142.671875 9.710938 L 140.398438 14.414062 L 135.402344 15.152344 C 134.777344 15.265625 134.265625 15.664062 134.039062 16.285156 C 133.8125 16.910156 133.984375 17.589844 134.4375 18.042969 Z M 141.082031 16.628906 C 141.648438 16.570312 142.101562 16.171875 142.328125 15.664062 L 144.203125 11.808594 L 146.078125 15.664062 C 146.304688 16.171875 146.816406 16.515625 147.328125 16.628906 L 151.585938 17.25 L 148.460938 20.371094 C 148.066406 20.765625 147.894531 21.277344 148.007812 21.84375 L 148.746094 26.210938 L 145.054688 24.167969 C 144.773438 24.054688 144.488281 24 144.203125 24 C 143.917969 24 143.636719 24.054688 143.410156 24.226562 L 139.71875 26.265625 L 140.457031 21.902344 C 140.570312 21.390625 140.34375 20.824219 140 20.425781 L 136.820312 17.25 Z M 141.082031 16.628906 " fill-opacity="1" fill-rule="nonzero"/></g><path fill="rgb(0%, 0%, 0%)" d="M 113.824219 18.554688 L 113.3125 21.617188 C 113.199219 22.183594 113.425781 22.75 113.9375 23.089844 C 114.394531 23.429688 115.015625 23.429688 115.472656 23.203125 L 118.082031 21.785156 L 120.695312 23.203125 C 120.921875 23.316406 121.148438 23.375 121.378906 23.375 C 121.660156 23.375 121.945312 23.261719 122.230469 23.089844 C 122.683594 22.75 122.910156 22.183594 122.851562 21.617188 L 122.34375 18.554688 L 124.5 16.398438 C 124.898438 16.003906 125.011719 15.4375 124.839844 14.871094 C 124.671875 14.359375 124.214844 13.960938 123.648438 13.90625 L 120.753906 13.453125 L 119.445312 10.730469 C 119.164062 10.164062 118.652344 9.878906 118.082031 9.878906 C 117.515625 9.878906 117.003906 10.21875 116.722656 10.730469 L 115.414062 13.453125 L 112.519531 13.90625 C 111.949219 13.960938 111.496094 14.359375 111.328125 14.871094 C 111.15625 15.378906 111.269531 16.003906 111.667969 16.398438 Z M 116.210938 15.605469 C 116.722656 15.550781 117.117188 15.210938 117.34375 14.757812 L 118.082031 13.167969 L 118.878906 14.757812 C 119.105469 15.210938 119.503906 15.492188 120.015625 15.605469 L 121.832031 15.890625 L 120.410156 17.25 C 120.070312 17.589844 119.902344 18.042969 120.015625 18.554688 L 120.296875 20.425781 L 118.765625 19.574219 C 118.3125 19.347656 117.800781 19.347656 117.34375 19.574219 L 115.8125 20.425781 L 116.097656 18.554688 C 116.152344 18.101562 116.039062 17.589844 115.699219 17.25 L 114.335938 15.890625 Z M 116.210938 15.605469 " fill-opacity="1" fill-rule="nonzero"/><path fill="rgb(0%, 0%, 0%)" d="M 166.066406 18.554688 L 165.554688 21.617188 C 165.441406 22.183594 165.667969 22.75 166.179688 23.089844 C 166.632812 23.429688 167.257812 23.429688 167.710938 23.203125 L 170.324219 21.785156 L 172.9375 23.203125 C 173.164062 23.316406 173.390625 23.375 173.617188 23.375 C 173.902344 23.375 174.183594 23.261719 174.46875 23.089844 C 174.921875 22.75 175.148438 22.183594 175.09375 21.617188 L 174.582031 18.554688 L 176.742188 16.398438 C 177.136719 16.003906 177.25 15.4375 177.082031 14.871094 C 176.910156 14.359375 176.457031 13.960938 175.886719 13.90625 L 172.992188 13.453125 L 171.6875 10.730469 C 171.402344 10.164062 170.890625 9.878906 170.324219 9.878906 C 169.757812 9.878906 169.246094 10.21875 168.960938 10.730469 L 167.65625 13.453125 L 164.757812 13.90625 C 164.191406 13.960938 163.738281 14.359375 163.566406 14.871094 C 163.394531 15.378906 163.511719 16.003906 163.90625 16.398438 Z M 168.449219 15.605469 C 168.960938 15.550781 169.359375 15.210938 169.585938 14.757812 L 170.378906 13.167969 L 171.175781 14.757812 C 171.402344 15.210938 171.800781 15.492188 172.3125 15.605469 L 174.128906 15.890625 L 172.765625 17.25 C 172.425781 17.589844 172.253906 18.042969 172.367188 18.554688 L 172.652344 20.425781 L 171.117188 19.574219 C 170.664062 19.347656 170.152344 19.347656 169.699219 19.574219 L 168.167969 20.425781 L 168.449219 18.554688 C 168.507812 18.101562 168.394531 17.589844 168.050781 17.25 L 166.691406 15.890625 Z M 168.449219 15.605469 " fill-opacity="1" fill-rule="nonzero"/><path fill="rgb(0%, 0%, 0%)" d="M 159.421875 39.933594 L 150.164062 38.628906 L 146.019531 30.574219 C 145.679688 29.894531 144.941406 29.441406 144.148438 29.441406 C 143.351562 29.441406 142.613281 29.894531 142.273438 30.574219 L 138.128906 38.628906 L 128.984375 39.933594 C 128.191406 40.046875 127.507812 40.613281 127.28125 41.351562 C 127.054688 42.085938 127.226562 42.878906 127.851562 43.449219 L 134.492188 49.683594 L 133.8125 53.371094 C 134.097656 53.597656 134.378906 53.882812 134.609375 54.222656 L 136.425781 51.667969 L 136.707031 50.023438 C 136.820312 49.34375 136.59375 48.664062 136.082031 48.210938 L 129.667969 42.144531 L 138.582031 40.894531 C 139.261719 40.78125 139.832031 40.386719 140.171875 39.761719 L 144.203125 31.9375 L 148.234375 39.761719 C 148.519531 40.386719 149.144531 40.78125 149.824219 40.894531 L 158.738281 42.144531 L 152.265625 48.152344 C 151.753906 48.609375 151.527344 49.289062 151.640625 49.96875 L 153.175781 58.53125 L 148.292969 56.09375 C 148.746094 56.886719 149.03125 57.738281 149.03125 58.644531 C 149.371094 58.871094 149.65625 59.15625 149.882812 59.4375 L 152.378906 60.683594 C 152.664062 60.855469 153.003906 60.914062 153.347656 60.914062 C 153.800781 60.914062 154.253906 60.796875 154.59375 60.515625 C 155.21875 60.0625 155.558594 59.269531 155.390625 58.53125 L 153.800781 49.742188 L 160.445312 43.503906 C 161.011719 42.9375 161.238281 42.144531 161.011719 41.40625 C 160.898438 40.613281 160.214844 40.046875 159.421875 39.933594 Z M 159.421875 39.933594 " fill-opacity="1" fill-rule="nonzero"/><g clip-path="url(#clip-3)"><path fill="rgb(0%, 0%, 0%)" d="M 150.164062 65.335938 C 149.769531 65.050781 149.371094 64.882812 148.917969 64.769531 C 149.429688 63.40625 148.972656 61.820312 147.722656 60.914062 C 147.382812 60.683594 147.042969 60.515625 146.644531 60.402344 C 147.101562 59.039062 146.644531 57.511719 145.394531 56.601562 C 145.054688 56.375 144.714844 56.207031 144.375 56.09375 L 146.929688 52.40625 C 147.953125 50.933594 147.554688 48.890625 146.078125 47.8125 C 145.339844 47.304688 144.488281 47.078125 143.578125 47.246094 C 142.726562 47.417969 141.988281 47.871094 141.476562 48.609375 L 133.984375 59.664062 C 133.925781 58.417969 133.640625 57.167969 132.960938 56.207031 C 132.449219 55.46875 131.710938 54.957031 130.804688 54.84375 C 130.292969 54.675781 129.441406 54.675781 128.703125 55.242188 C 127.339844 56.148438 126.714844 58.191406 126.65625 61.421875 L 125.75 72.875 C 124.898438 72.535156 123.875 72.761719 123.25 73.5 L 121.546875 75.429688 C 121.148438 75.882812 120.921875 76.503906 120.980469 77.074219 C 121.035156 77.695312 121.320312 78.261719 121.773438 78.660156 L 124.441406 80.929688 C 124.898438 81.324219 125.636719 81.269531 126.035156 80.757812 C 126.429688 80.304688 126.375 79.566406 125.917969 79.171875 L 123.25 76.902344 L 124.953125 74.972656 L 132.222656 81.097656 C 132.675781 81.496094 133.414062 81.4375 133.8125 80.984375 C 134.210938 80.53125 134.152344 79.792969 133.699219 79.398438 L 127.90625 74.578125 L 128.871094 61.535156 C 128.871094 61.535156 128.871094 61.480469 128.871094 61.480469 C 128.929688 58.132812 129.667969 57.28125 129.894531 57.113281 C 130.292969 56.828125 130.917969 57.167969 131.144531 57.511719 C 131.996094 58.699219 131.824219 61.761719 131.484375 63.40625 C 131.371094 63.917969 131.710938 64.484375 132.164062 64.65625 C 132.789062 64.882812 133.300781 64.542969 133.640625 64.03125 C 133.871094 63.691406 143.410156 49.96875 143.410156 49.910156 C 143.691406 49.457031 144.375 49.402344 144.773438 49.683594 C 145.226562 50.023438 145.394531 50.648438 145.054688 51.101562 L 135.117188 65.449219 C 134.777344 65.957031 134.890625 66.695312 135.402344 67.035156 C 135.914062 67.375 136.707031 67.261719 137.105469 66.753906 L 142.671875 58.699219 C 142.839844 58.472656 143.011719 58.359375 143.296875 58.304688 C 143.578125 58.246094 143.863281 58.304688 144.089844 58.472656 C 144.542969 58.8125 144.714844 59.4375 144.375 59.890625 L 138.753906 68 C 138.410156 68.511719 138.527344 69.246094 139.035156 69.585938 C 139.546875 69.929688 140.230469 69.816406 140.625 69.304688 L 145.113281 62.898438 C 145.28125 62.726562 145.453125 62.613281 145.679688 62.554688 C 145.964844 62.5 146.246094 62.554688 146.476562 62.726562 C 146.929688 63.066406 147.101562 63.691406 146.757812 64.144531 C 146.757812 64.144531 142.386719 70.4375 142.386719 70.4375 C 141.933594 71.0625 142.328125 72.027344 143.066406 72.308594 C 143.578125 72.480469 143.976562 72.253906 144.375 71.855469 L 147.554688 67.320312 C 147.722656 67.09375 147.894531 66.980469 148.179688 66.921875 C 148.460938 66.867188 148.746094 66.921875 148.972656 67.09375 C 149.429688 67.433594 149.597656 68.058594 149.257812 68.511719 L 141.820312 79.453125 C 141.476562 79.964844 141.589844 80.703125 142.101562 81.042969 C 142.613281 81.382812 143.351562 81.269531 143.691406 80.757812 L 151.019531 69.929688 C 152.039062 68.453125 151.640625 66.414062 150.164062 65.335938 Z M 150.164062 65.335938 " fill-opacity="1" fill-rule="nonzero"/></g></svg>