<?xml version="1.0" encoding="UTF-8"?><svg xmlns="http://www.w3.org/2000/svg" xmlns:xlink="http://www.w3.org/1999/xlink" contentScriptType="text/ecmascript" width="288" zoomAndPan="magnify" contentStyleType="text/css" viewBox="0 0 288 89.999999" height="89.999999" preserveAspectRatio="xMidYMid meet" version="1.0"><defs><clipPath id="clip-0"><path d="M 127.195312 40.457031 L 166.980469 40.457031 L 166.980469 81.738281 L 127.195312 81.738281 Z M 127.195312 40.457031 " clip-rule="nonzero"/></clipPath><clipPath id="clip-1"><path d="M 127 8.238281 L 161 8.238281 L 161 40 L 127 40 Z M 127 8.238281 " clip-rule="nonzero"/></clipPath><clipPath id="clip-2"><path d="M 170.792969 38.890625 L 189.183594 38.890625 L 189.183594 57.324219 L 170.792969 57.324219 Z M 170.792969 38.890625 " clip-rule="nonzero"/></clipPath><clipPath id="clip-3"><path d="M 98.449219 38 L 118 38 L 118 58 L 98.449219 58 Z M 98.449219 38 " clip-rule="nonzero"/></clipPath></defs><rect x="-28.8" width="345.6" fill="rgb(100%, 100%, 100%)" y="-9" height="107.999999" fill-opacity="1"/><rect x="-28.8" width="345.6" fill="rgb(100%, 100%, 100%)" y="-9" height="107.999999" fill-opacity="1"/><rect x="-28.8" width="345.6" fill="rgb(30.979919%, 70.588684%, 0%)" y="-9" height="107.999999" fill-opacity="1"/><g clip-path="url(#clip-0)"><path fill="rgb(0%, 0%, 0%)" d="M 165.59375 71.011719 Z M 143.835938 80.054688 C 144.257812 80.074219 144.675781 80.09375 145.105469 80.113281 C 146.085938 80.15625 147.082031 80.179688 148.0625 80.179688 C 150.25 80.179688 152.457031 80.070312 154.628906 79.855469 L 160.460938 79.277344 L 160.5 79.273438 L 160.542969 79.273438 C 161.0625 79.273438 161.574219 79.097656 161.976562 78.773438 C 162.378906 78.457031 162.644531 78.011719 162.726562 77.527344 C 162.777344 77.230469 162.765625 76.933594 162.6875 76.644531 C 162.523438 76.039062 162.78125 75.382812 163.324219 75.015625 C 164.082031 74.503906 164.535156 73.652344 164.535156 72.746094 C 164.535156 72.398438 164.4375 72.054688 164.253906 71.757812 C 163.90625 71.183594 163.996094 70.433594 164.472656 69.933594 C 165.085938 69.285156 165.425781 68.445312 165.425781 67.5625 C 165.425781 66.992188 165.183594 66.4375 164.757812 66.046875 C 164.179688 65.507812 164.113281 64.632812 164.609375 64.011719 C 165.140625 63.335938 165.425781 62.53125 165.425781 61.679688 C 165.425781 60.757812 165.257812 60.441406 165.078125 60.238281 C 164.765625 59.882812 164.109375 59.621094 163.070312 59.441406 L 163.050781 59.4375 C 158.875 58.609375 156.03125 58.238281 153.824219 58.238281 C 152.015625 58.238281 150.632812 58.472656 148.855469 58.875 C 148.785156 58.890625 148.71875 58.898438 148.648438 58.898438 C 148.339844 58.898438 148.054688 58.742188 147.871094 58.472656 C 147.746094 58.285156 147.578125 57.929688 147.601562 57.035156 C 147.605469 56.835938 147.636719 56.167969 147.792969 55.773438 L 149.921875 50.289062 C 150.179688 49.648438 150.332031 48.375 150.308594 47.042969 C 150.289062 45.691406 150.082031 44.457031 149.789062 43.894531 C 149.28125 42.925781 148.996094 42.46875 148.421875 42.167969 C 148.238281 42.070312 148.039062 42.019531 147.835938 42.019531 C 147.550781 42.019531 147.269531 42.121094 147.039062 42.300781 C 146.796875 42.484375 146.632812 42.742188 146.5625 43.042969 C 146.109375 44.929688 145.085938 46.46875 144.046875 47.851562 C 143.832031 48.140625 143.246094 49.117188 141.695312 52.152344 C 141.1875 53.148438 140.003906 53.980469 139.367188 54.425781 C 139.269531 54.492188 139.1875 54.550781 139.140625 54.585938 C 138.351562 55.1875 137.976562 55.757812 137.257812 57.007812 C 137.078125 57.324219 136.925781 57.65625 136.804688 57.996094 C 136.632812 58.488281 136.144531 58.878906 135.359375 59.15625 C 134.867188 59.332031 134.292969 59.445312 133.882812 59.453125 L 128.765625 59.894531 L 128.765625 78.390625 L 131.277344 78.390625 C 135.402344 78.390625 139.515625 79.203125 143.496094 79.988281 Z M 148.0625 81.738281 C 147.058594 81.738281 146.039062 81.714844 145.035156 81.671875 C 144.585938 81.652344 144.148438 81.628906 143.703125 81.609375 L 143.628906 81.601562 L 143.195312 81.515625 C 139.289062 80.746094 135.253906 79.949219 131.277344 79.949219 L 128.679688 79.949219 C 127.871094 79.949219 127.210938 79.289062 127.210938 78.476562 L 127.210938 59.8125 C 127.210938 59.011719 127.847656 58.359375 128.640625 58.339844 L 133.8125 57.894531 L 133.84375 57.894531 C 134.289062 57.894531 135.152344 57.625 135.355469 57.425781 C 135.503906 57.015625 135.691406 56.613281 135.910156 56.230469 C 136.707031 54.84375 137.195312 54.109375 138.203125 53.34375 C 138.273438 53.289062 138.363281 53.226562 138.476562 53.148438 C 138.964844 52.808594 139.980469 52.09375 140.316406 51.441406 C 142.050781 48.042969 142.570312 47.230469 142.804688 46.914062 C 144.089844 45.207031 144.738281 43.980469 145.050781 42.679688 C 145.363281 41.375 146.507812 40.460938 147.835938 40.460938 C 148.292969 40.460938 148.734375 40.570312 149.144531 40.789062 C 150.132812 41.308594 150.585938 42.066406 151.164062 43.167969 C 151.757812 44.300781 151.851562 46.234375 151.863281 47.015625 C 151.890625 48.585938 151.703125 50.023438 151.363281 50.867188 L 149.238281 56.34375 C 149.191406 56.492188 149.15625 56.886719 149.15625 57.214844 C 150.71875 56.878906 152.113281 56.679688 153.824219 56.679688 C 156.164062 56.679688 159.011719 57.046875 163.34375 57.90625 C 164.78125 58.15625 165.675781 58.558594 166.246094 59.207031 C 166.890625 59.941406 166.980469 60.871094 166.980469 61.679688 C 166.980469 62.871094 166.589844 63.996094 165.855469 64.941406 C 166.570312 65.625 166.980469 66.578125 166.980469 67.5625 C 166.980469 68.839844 166.492188 70.058594 165.609375 70.992188 C 165.925781 71.523438 166.089844 72.128906 166.089844 72.746094 C 166.089844 74.167969 165.382812 75.496094 164.203125 76.300781 C 164.324219 76.789062 164.34375 77.292969 164.257812 77.792969 C 164.109375 78.65625 163.644531 79.4375 162.945312 79.996094 C 162.277344 80.527344 161.441406 80.824219 160.582031 80.832031 L 154.78125 81.40625 C 152.558594 81.625 150.296875 81.738281 148.0625 81.738281 " fill-opacity="1" fill-rule="nonzero"/></g><path fill="rgb(0%, 0%, 0%)" d="M 124.226562 78.207031 C 124.226562 78.722656 123.808594 79.140625 123.296875 79.140625 L 116.453125 79.140625 C 115.941406 79.140625 115.523438 78.722656 115.523438 78.207031 C 115.523438 78.207031 115.511719 77.4375 115.484375 76.773438 C 115.375 74.402344 115.171875 69.988281 115.257812 65.972656 C 115.300781 63.753906 115.429688 61.964844 115.636719 60.652344 C 115.789062 59.6875 115.957031 59.113281 116.097656 58.777344 C 116.203125 58.519531 116.457031 58.347656 116.738281 58.347656 L 123.296875 58.359375 C 123.808594 58.359375 124.226562 58.777344 124.226562 59.292969 Z M 123.296875 56.828125 L 116.511719 56.828125 C 116.113281 56.816406 115.695312 56.902344 115.367188 57.191406 C 114.667969 57.800781 113.847656 59.375 113.726562 66.1875 C 113.65625 70.1875 113.851562 74.515625 113.957031 76.84375 C 113.988281 77.457031 114 78.207031 114 78.207031 C 114 79.566406 115.097656 80.671875 116.453125 80.671875 L 123.296875 80.671875 C 124.652344 80.671875 125.753906 79.566406 125.753906 78.207031 L 125.753906 59.292969 C 125.753906 57.933594 124.652344 56.828125 123.296875 56.828125 " fill-opacity="1" fill-rule="nonzero"/><path fill="rgb(0%, 0%, 0%)" d="M 140.347656 63.226562 L 140.34375 63.238281 Z M 140.347656 63.226562 " fill-opacity="1" fill-rule="nonzero"/><g clip-path="url(#clip-1)"><path fill="rgb(0%, 0%, 0%)" d="M 143.925781 8.238281 C 143.695312 8.238281 143.464844 8.359375 143.347656 8.601562 L 138.621094 18.203125 C 138.617188 18.210938 138.613281 18.21875 138.609375 18.222656 L 138.589844 18.238281 C 138.578125 18.25 138.566406 18.257812 138.554688 18.257812 L 127.984375 19.800781 C 127.453125 19.875 127.242188 20.53125 127.625 20.90625 L 135.28125 28.394531 C 135.296875 28.410156 135.304688 28.433594 135.300781 28.457031 L 133.492188 39.027344 C 133.421875 39.449219 133.753906 39.789062 134.132812 39.789062 C 134.230469 39.789062 134.335938 39.765625 134.433594 39.710938 L 143.894531 34.722656 C 143.90625 34.714844 143.917969 34.714844 143.925781 34.714844 C 143.9375 34.714844 143.949219 34.714844 143.957031 34.722656 L 153.421875 39.710938 C 153.519531 39.765625 153.621094 39.789062 153.722656 39.789062 C 154.097656 39.789062 154.433594 39.449219 154.359375 39.027344 L 152.554688 28.457031 C 152.550781 28.433594 152.558594 28.410156 152.574219 28.394531 L 160.226562 20.90625 C 160.613281 20.53125 160.398438 19.875 159.867188 19.800781 L 149.300781 18.257812 C 149.285156 18.257812 149.273438 18.25 149.261719 18.238281 L 149.246094 18.222656 C 149.238281 18.21875 149.234375 18.210938 149.230469 18.203125 L 144.507812 8.601562 C 144.390625 8.359375 144.15625 8.238281 143.925781 8.238281 Z M 143.925781 10.898438 L 147.855469 18.886719 C 147.941406 19.058594 148.054688 19.214844 148.195312 19.347656 L 148.214844 19.363281 C 148.453125 19.589844 148.753906 19.734375 149.078125 19.78125 L 157.867188 21.0625 L 151.5 27.292969 C 151.125 27.660156 150.953125 28.195312 151.039062 28.714844 L 152.542969 37.511719 L 144.671875 33.359375 C 144.445312 33.238281 144.1875 33.171875 143.925781 33.171875 C 143.667969 33.171875 143.410156 33.238281 143.179688 33.359375 L 135.308594 37.511719 L 136.8125 28.714844 C 136.902344 28.195312 136.730469 27.660156 136.351562 27.292969 L 129.984375 21.0625 L 138.773438 19.78125 C 139.101562 19.734375 139.402344 19.589844 139.640625 19.363281 L 139.660156 19.347656 C 139.800781 19.214844 139.914062 19.058594 140 18.886719 L 143.925781 10.898438 " fill-opacity="1" fill-rule="nonzero"/></g><g clip-path="url(#clip-2)"><path fill="rgb(0%, 0%, 0%)" d="M 176.261719 38.898438 C 175.902344 38.898438 175.566406 39.191406 175.574219 39.605469 L 175.683594 45.226562 C 175.683594 45.234375 175.679688 45.242188 175.679688 45.25 C 175.671875 45.261719 175.664062 45.273438 175.652344 45.285156 L 171.097656 48.558594 C 170.636719 48.894531 170.753906 49.613281 171.300781 49.78125 L 176.660156 51.414062 C 176.683594 51.421875 176.699219 51.4375 176.707031 51.460938 L 178.40625 56.820312 C 178.503906 57.128906 178.78125 57.300781 179.0625 57.300781 C 179.273438 57.300781 179.484375 57.207031 179.625 57.003906 L 182.828125 52.394531 C 182.84375 52.375 182.863281 52.363281 182.886719 52.363281 L 188.488281 52.398438 C 188.492188 52.398438 188.492188 52.398438 188.496094 52.398438 C 189.0625 52.398438 189.386719 51.746094 189.042969 51.292969 L 185.664062 46.808594 C 185.648438 46.789062 185.644531 46.765625 185.652344 46.746094 L 187.417969 41.40625 C 187.570312 40.941406 187.210938 40.5 186.769531 40.5 C 186.695312 40.5 186.617188 40.511719 186.539062 40.539062 L 181.246094 42.378906 C 181.238281 42.382812 181.230469 42.382812 181.222656 42.382812 C 181.214844 42.382812 181.210938 42.382812 181.203125 42.378906 C 181.195312 42.378906 181.1875 42.375 181.179688 42.367188 L 176.667969 39.035156 C 176.542969 38.941406 176.402344 38.898438 176.261719 38.898438 Z M 177.140625 41.296875 L 180.269531 43.609375 C 180.425781 43.722656 180.597656 43.808594 180.785156 43.863281 C 180.925781 43.902344 181.074219 43.921875 181.222656 43.921875 C 181.402344 43.921875 181.578125 43.894531 181.746094 43.835938 L 185.417969 42.558594 L 184.195312 46.257812 C 184.03125 46.761719 184.121094 47.3125 184.4375 47.738281 L 186.78125 50.847656 L 182.898438 50.824219 L 182.886719 50.824219 C 182.363281 50.824219 181.871094 51.078125 181.570312 51.511719 L 179.347656 54.710938 L 178.167969 50.992188 C 178.007812 50.488281 177.613281 50.09375 177.105469 49.941406 L 173.386719 48.808594 L 176.546875 46.535156 C 176.816406 46.34375 177.015625 46.074219 177.125 45.761719 C 177.1875 45.578125 177.21875 45.390625 177.214844 45.195312 L 177.140625 41.296875 " fill-opacity="1" fill-rule="nonzero"/></g><g clip-path="url(#clip-3)"><path fill="rgb(0%, 0%, 0%)" d="M 111.589844 38.898438 C 111.453125 38.898438 111.3125 38.941406 111.183594 39.035156 L 106.671875 42.367188 C 106.664062 42.375 106.660156 42.378906 106.648438 42.378906 C 106.644531 42.382812 106.636719 42.382812 106.632812 42.382812 C 106.625 42.382812 106.617188 42.382812 106.609375 42.378906 L 101.3125 40.539062 C 101.238281 40.511719 101.160156 40.5 101.085938 40.5 C 100.640625 40.5 100.28125 40.941406 100.4375 41.40625 L 102.203125 46.746094 C 102.207031 46.765625 102.203125 46.789062 102.191406 46.808594 L 98.808594 51.292969 C 98.46875 51.746094 98.792969 52.398438 99.359375 52.398438 C 99.359375 52.398438 99.363281 52.398438 99.363281 52.398438 L 104.96875 52.363281 C 104.988281 52.363281 105.011719 52.375 105.023438 52.394531 L 108.230469 57.003906 C 108.371094 57.207031 108.582031 57.300781 108.792969 57.300781 C 109.070312 57.300781 109.351562 57.128906 109.449219 56.820312 L 111.148438 51.460938 C 111.152344 51.4375 111.171875 51.421875 111.191406 51.414062 L 116.554688 49.78125 C 117.101562 49.613281 117.21875 48.894531 116.753906 48.558594 L 112.199219 45.285156 C 112.191406 45.273438 112.179688 45.261719 112.175781 45.25 C 112.171875 45.242188 112.171875 45.234375 112.171875 45.226562 L 112.28125 39.605469 C 112.289062 39.191406 111.949219 38.898438 111.589844 38.898438 Z M 110.710938 41.296875 L 110.636719 45.195312 C 110.632812 45.390625 110.664062 45.582031 110.726562 45.761719 C 110.839844 46.074219 111.039062 46.34375 111.304688 46.535156 L 114.464844 48.808594 L 110.746094 49.941406 C 110.242188 50.09375 109.84375 50.488281 109.683594 50.992188 L 108.507812 54.710938 L 106.28125 51.511719 C 105.984375 51.082031 105.492188 50.824219 104.96875 50.824219 L 104.957031 50.824219 L 101.070312 50.847656 L 103.414062 47.738281 C 103.734375 47.316406 103.824219 46.761719 103.660156 46.257812 L 102.433594 42.558594 L 106.105469 43.832031 C 106.277344 43.894531 106.453125 43.921875 106.632812 43.921875 C 106.777344 43.921875 106.925781 43.902344 107.066406 43.863281 L 107.070312 43.863281 C 107.253906 43.808594 107.429688 43.722656 107.582031 43.609375 L 110.710938 41.296875 " fill-opacity="1" fill-rule="nonzero"/></g><path fill="rgb(0%, 0%, 0%)" d="M 173.089844 22.269531 C 172.964844 22.269531 172.835938 22.304688 172.714844 22.382812 L 166.535156 26.429688 C 166.527344 26.433594 166.519531 26.4375 166.511719 26.4375 L 166.503906 26.441406 C 166.5 26.441406 166.492188 26.441406 166.488281 26.441406 C 166.480469 26.441406 166.472656 26.441406 166.460938 26.4375 L 159.632812 23.621094 C 159.546875 23.585938 159.457031 23.570312 159.371094 23.570312 C 158.941406 23.570312 158.585938 23.980469 158.710938 24.441406 L 160.636719 31.59375 C 160.644531 31.617188 160.636719 31.640625 160.621094 31.65625 L 155.839844 37.308594 C 155.472656 37.742188 155.761719 38.414062 156.332031 38.441406 L 163.707031 38.816406 C 163.730469 38.816406 163.75 38.828125 163.761719 38.847656 L 167.640625 45.15625 C 167.777344 45.375 168 45.484375 168.222656 45.484375 C 168.492188 45.484375 168.757812 45.332031 168.867188 45.039062 L 171.5 38.113281 C 171.507812 38.09375 171.527344 38.078125 171.546875 38.070312 L 178.726562 36.320312 C 179.277344 36.1875 179.4375 35.472656 178.996094 35.113281 L 173.246094 30.464844 C 173.234375 30.457031 173.226562 30.445312 173.222656 30.429688 L 173.222656 30.421875 C 173.21875 30.414062 173.21875 30.40625 173.21875 30.398438 L 173.777344 23.011719 C 173.808594 22.585938 173.464844 22.269531 173.089844 22.269531 Z M 172.117188 24.613281 L 171.6875 30.28125 C 171.671875 30.472656 171.695312 30.664062 171.746094 30.851562 L 171.75 30.859375 C 171.839844 31.179688 172.027344 31.457031 172.28125 31.664062 L 176.695312 35.230469 L 171.1875 36.574219 C 170.671875 36.699219 170.253906 37.070312 170.066406 37.566406 L 168.046875 42.878906 L 165.070312 38.039062 C 164.792969 37.585938 164.3125 37.304688 163.785156 37.277344 L 158.125 36.992188 L 161.792969 32.65625 C 162.132812 32.25 162.257812 31.703125 162.117188 31.195312 L 160.640625 25.703125 L 165.878906 27.863281 C 166.074219 27.941406 166.277344 27.984375 166.488281 27.984375 C 166.605469 27.984375 166.722656 27.96875 166.835938 27.945312 L 166.839844 27.945312 L 166.847656 27.941406 C 167.035156 27.898438 167.214844 27.824219 167.375 27.71875 L 172.117188 24.613281 " fill-opacity="1" fill-rule="nonzero"/><path fill="rgb(0%, 0%, 0%)" d="M 114.765625 23.109375 C 114.390625 23.109375 114.042969 23.425781 114.078125 23.851562 L 114.636719 31.238281 C 114.636719 31.246094 114.636719 31.253906 114.632812 31.261719 L 114.628906 31.269531 C 114.625 31.285156 114.617188 31.296875 114.605469 31.304688 L 108.859375 35.953125 C 108.414062 36.3125 108.574219 37.027344 109.128906 37.160156 L 116.304688 38.914062 C 116.328125 38.917969 116.347656 38.933594 116.355469 38.953125 L 118.984375 45.878906 C 119.097656 46.171875 119.363281 46.324219 119.628906 46.324219 C 119.851562 46.324219 120.078125 46.21875 120.214844 45.996094 L 124.089844 39.6875 C 124.101562 39.667969 124.121094 39.65625 124.144531 39.65625 L 131.523438 39.285156 C 132.089844 39.253906 132.378906 38.582031 132.011719 38.148438 L 127.230469 32.5 C 127.214844 32.480469 127.210938 32.457031 127.21875 32.4375 L 129.144531 25.28125 C 129.269531 24.820312 128.910156 24.410156 128.484375 24.410156 C 128.398438 24.410156 128.308594 24.425781 128.21875 24.460938 L 121.390625 27.277344 C 121.382812 27.28125 121.375 27.285156 121.363281 27.285156 C 121.359375 27.285156 121.355469 27.28125 121.351562 27.28125 L 121.339844 27.28125 C 121.332031 27.277344 121.324219 27.273438 121.320312 27.269531 L 115.136719 23.222656 C 115.019531 23.144531 114.890625 23.109375 114.765625 23.109375 Z M 115.738281 25.453125 L 120.480469 28.558594 C 120.640625 28.664062 120.816406 28.742188 121.003906 28.78125 L 121.007812 28.785156 L 121.015625 28.785156 C 121.128906 28.8125 121.246094 28.824219 121.363281 28.824219 C 121.574219 28.824219 121.78125 28.785156 121.972656 28.703125 L 127.214844 26.542969 L 125.734375 32.035156 C 125.597656 32.546875 125.71875 33.089844 126.0625 33.496094 L 129.730469 37.832031 L 124.070312 38.117188 C 123.539062 38.144531 123.0625 38.429688 122.785156 38.878906 L 119.808594 43.722656 L 117.789062 38.40625 C 117.601562 37.910156 117.179688 37.539062 116.667969 37.414062 L 111.160156 36.070312 L 115.570312 32.503906 C 115.828125 32.296875 116.011719 32.019531 116.105469 31.699219 L 116.105469 31.691406 C 116.160156 31.503906 116.179688 31.3125 116.164062 31.121094 L 115.738281 25.453125 " fill-opacity="1" fill-rule="nonzero"/></svg>