<?xml version="1.0" encoding="UTF-8"?><svg xmlns="http://www.w3.org/2000/svg" xmlns:xlink="http://www.w3.org/1999/xlink" contentScriptType="text/ecmascript" width="300" zoomAndPan="magnify" contentStyleType="text/css" viewBox="0 0 300 299.999988" height="299.999988" preserveAspectRatio="xMidYMid meet" version="1.0"><defs><clipPath id="clip-0"><path d="M 13.207031 249 L 286.957031 249 L 286.957031 281.757812 L 13.207031 281.757812 Z M 13.207031 249 " clip-rule="nonzero"/></clipPath><clipPath id="clip-1"><path d="M 92 18.507812 L 119 18.507812 L 119 201 L 92 201 Z M 92 18.507812 " clip-rule="nonzero"/></clipPath></defs><g clip-path="url(#clip-0)"><path fill="rgb(77.249146%, 77.648926%, 76.858521%)" d="M 150.042969 281.761719 C 74.492188 281.761719 13.25 274.621094 13.25 265.816406 C 13.25 263.15625 18.84375 260.644531 28.742188 258.441406 C 28.742188 258.453125 28.742188 258.46875 28.742188 258.484375 C 28.742188 258.484375 28.742188 258.484375 28.742188 258.488281 C 28.742188 258.496094 28.742188 258.5 28.742188 258.503906 C 28.742188 258.515625 28.742188 258.519531 28.742188 258.527344 C 28.742188 262.554688 32 265.816406 36.023438 265.816406 L 82.308594 265.816406 L 85.261719 268.949219 C 86.722656 270.683594 88.339844 272.148438 88.859375 272.203125 C 88.871094 272.203125 88.878906 272.203125 88.894531 272.203125 C 88.902344 272.203125 88.90625 272.203125 88.914062 272.203125 C 88.914062 272.203125 88.917969 272.203125 88.921875 272.203125 C 89.507812 272.167969 91.257812 271.128906 92.945312 269.804688 C 92.953125 269.796875 92.960938 269.789062 92.972656 269.78125 C 92.976562 269.777344 92.980469 269.773438 92.988281 269.773438 C 92.988281 269.769531 92.992188 269.765625 92.992188 269.765625 C 92.996094 269.761719 93 269.757812 93.007812 269.757812 C 93.015625 269.75 93.023438 269.742188 93.03125 269.734375 L 98.601562 265.816406 L 115.234375 265.816406 C 119.257812 265.816406 122.519531 262.554688 122.519531 258.527344 C 122.519531 258.519531 122.519531 258.515625 122.519531 258.503906 C 122.519531 258.5 122.519531 258.5 122.519531 258.496094 C 122.519531 258.488281 122.519531 258.484375 122.519531 258.484375 C 122.519531 258.476562 122.519531 258.46875 122.519531 258.46875 C 122.519531 258.464844 122.519531 258.460938 122.519531 258.460938 C 122.484375 254.566406 119.390625 251.398438 115.523438 251.246094 C 115.625 250.953125 115.71875 250.660156 115.789062 250.378906 C 126.734375 250.046875 138.214844 249.871094 150.042969 249.871094 C 167.148438 249.871094 183.527344 250.238281 198.625 250.90625 L 196.699219 265.699219 L 196.6875 265.816406 L 212.691406 265.816406 L 214.445312 251.746094 C 227.703125 252.574219 239.664062 253.648438 249.855469 254.914062 L 251.921875 265.816406 L 267.746094 265.816406 C 267.875 265.351562 267.90625 264.847656 267.808594 264.34375 L 266.492188 257.449219 C 279.394531 259.882812 286.835938 262.75 286.835938 265.816406 C 286.835938 274.621094 225.589844 281.761719 150.042969 281.761719 " fill-opacity="1" fill-rule="nonzero"/></g><path fill="rgb(32.939148%, 38.819885%, 40.388489%)" d="M 123.238281 100.925781 L 128.078125 100.925781 L 128.078125 86.425781 L 123.238281 86.425781 Z M 123.238281 100.925781 " fill-opacity="1" fill-rule="nonzero"/><path fill="rgb(29.40979%, 35.289001%, 36.859131%)" d="M 128.078125 88.863281 L 123.238281 88.621094 L 123.238281 86.425781 L 128.078125 86.425781 L 128.078125 88.863281 " fill-opacity="1" fill-rule="nonzero"/><path fill="rgb(12.548828%, 13.729858%, 14.509583%)" d="M 130.292969 84.585938 C 130.292969 86.113281 129.050781 87.355469 127.519531 87.355469 L 123.75 87.355469 C 122.21875 87.355469 120.976562 86.113281 120.976562 84.585938 C 120.976562 83.054688 122.21875 81.8125 123.75 81.8125 L 127.519531 81.8125 C 129.050781 81.8125 130.292969 83.054688 130.292969 84.585938 " fill-opacity="1" fill-rule="nonzero"/><path fill="rgb(22.749329%, 25.489807%, 27.449036%)" d="M 141.773438 68.734375 C 141.773438 77.332031 134.808594 84.296875 126.214844 84.296875 C 117.625 84.296875 110.660156 77.332031 110.660156 68.734375 C 110.660156 60.140625 117.625 53.171875 126.214844 53.171875 C 134.808594 53.171875 141.773438 60.140625 141.773438 68.734375 " fill-opacity="1" fill-rule="nonzero"/><path fill="rgb(12.548828%, 13.729858%, 14.509583%)" d="M 139.292969 68.734375 C 139.292969 75.957031 133.4375 81.8125 126.214844 81.8125 C 118.996094 81.8125 113.144531 75.957031 113.144531 68.734375 C 113.144531 61.511719 118.996094 55.65625 126.214844 55.65625 C 133.4375 55.65625 139.292969 61.511719 139.292969 68.734375 " fill-opacity="1" fill-rule="nonzero"/><path fill="rgb(81.959534%, 22.749329%, 17.248535%)" d="M 137.742188 68.734375 C 137.742188 75.101562 132.582031 80.265625 126.214844 80.265625 C 119.851562 80.265625 114.691406 75.101562 114.691406 68.734375 C 114.691406 62.367188 119.851562 57.203125 126.214844 57.203125 C 132.582031 57.203125 137.742188 62.367188 137.742188 68.734375 " fill-opacity="1" fill-rule="nonzero"/><path fill="rgb(93.728638%, 53.329468%, 13.729858%)" d="M 136.648438 68.734375 C 136.648438 74.5 131.976562 79.171875 126.214844 79.171875 C 120.453125 79.171875 115.78125 74.5 115.78125 68.734375 C 115.78125 62.96875 120.453125 58.296875 126.214844 58.296875 C 131.976562 58.296875 136.648438 62.96875 136.648438 68.734375 " fill-opacity="1" fill-rule="nonzero"/><path fill="rgb(93.728638%, 47.059631%, 14.509583%)" d="M 126.097656 79.171875 C 126.085938 79.167969 126.078125 79.167969 126.070312 79.167969 C 126.078125 79.167969 126.085938 79.167969 126.097656 79.171875 " fill-opacity="1" fill-rule="nonzero"/><path fill="rgb(93.728638%, 47.059631%, 14.509583%)" d="M 126.570312 79.167969 C 126.582031 79.167969 126.585938 79.164062 126.597656 79.164062 C 126.585938 79.164062 126.582031 79.167969 126.570312 79.167969 " fill-opacity="1" fill-rule="nonzero"/><path fill="rgb(93.728638%, 47.059631%, 14.509583%)" d="M 125.859375 79.167969 C 125.839844 79.164062 125.820312 79.164062 125.800781 79.164062 C 125.820312 79.164062 125.839844 79.164062 125.859375 79.167969 " fill-opacity="1" fill-rule="nonzero"/><path fill="rgb(93.728638%, 47.059631%, 14.509583%)" d="M 126.648438 79.164062 C 130.816406 78.992188 134.351562 76.375 135.863281 72.707031 C 135.105469 72.117188 134.050781 71.890625 132.847656 71.890625 C 129.113281 71.890625 123.929688 74.089844 121.550781 74.453125 C 121.410156 74.476562 121.265625 74.484375 121.125 74.484375 C 119.125 74.484375 117.195312 72.386719 115.976562 70.726562 C 116.878906 75.394531 120.890625 78.957031 125.769531 79.164062 C 120.214844 78.925781 115.78125 74.351562 115.78125 68.734375 C 115.78125 68.730469 115.78125 68.722656 115.78125 68.714844 C 115.78125 68.714844 115.78125 68.707031 115.78125 68.703125 C 115.78125 68.699219 115.78125 68.699219 115.78125 68.699219 C 115.789062 67.300781 116.070312 65.96875 116.574219 64.75 C 117.125 67.183594 118.191406 69.898438 120.234375 70.550781 C 120.46875 70.628906 120.726562 70.664062 121.003906 70.664062 C 122.449219 70.664062 124.433594 69.734375 126.617188 68.8125 C 128.792969 67.882812 131.164062 66.957031 133.382812 66.957031 C 134.511719 66.957031 135.601562 67.195312 136.601562 67.796875 C 136.628906 68.105469 136.648438 68.417969 136.648438 68.734375 C 136.648438 74.351562 132.210938 78.9375 126.648438 79.164062 " fill-opacity="1" fill-rule="nonzero"/><path fill="rgb(84.309387%, 74.899292%, 20.388794%)" d="M 117.75 64.75 C 117.75 64.75 123.167969 55.878906 132.457031 61.859375 C 132.457031 61.859375 134.058594 67.234375 125.105469 63.8125 C 125.105469 63.8125 122.238281 62.523438 117.75 64.75 " fill-opacity="1" fill-rule="nonzero"/><path fill="rgb(79.998779%, 24.308777%, 17.248535%)" d="M 126.238281 79.171875 C 126.242188 79.171875 126.242188 79.171875 126.246094 79.171875 C 126.242188 79.171875 126.242188 79.171875 126.238281 79.171875 M 126.1875 79.171875 C 126.1875 79.171875 126.183594 79.171875 126.183594 79.171875 C 126.183594 79.171875 126.1875 79.171875 126.1875 79.171875 M 126.265625 79.171875 C 126.265625 79.171875 126.265625 79.171875 126.269531 79.171875 C 126.265625 79.171875 126.265625 79.171875 126.265625 79.171875 M 126.160156 79.171875 C 126.15625 79.171875 126.15625 79.171875 126.152344 79.171875 C 126.15625 79.171875 126.15625 79.171875 126.160156 79.171875 M 126.289062 79.171875 C 126.292969 79.171875 126.292969 79.171875 126.296875 79.171875 C 126.292969 79.171875 126.292969 79.171875 126.289062 79.171875 M 126.128906 79.171875 C 126.125 79.171875 126.125 79.171875 126.125 79.171875 C 126.125 79.171875 126.125 79.171875 126.128906 79.171875 M 126.316406 79.171875 C 126.316406 79.171875 126.320312 79.171875 126.320312 79.171875 C 126.320312 79.171875 126.316406 79.171875 126.316406 79.171875 M 126.34375 79.171875 C 126.34375 79.171875 126.34375 79.167969 126.34375 79.167969 C 126.34375 79.167969 126.34375 79.171875 126.34375 79.171875 M 126.070312 79.167969 C 126.070312 79.167969 126.070312 79.167969 126.066406 79.167969 C 126.070312 79.167969 126.070312 79.167969 126.070312 79.167969 M 126.367188 79.167969 C 126.371094 79.167969 126.371094 79.167969 126.371094 79.167969 C 126.371094 79.167969 126.371094 79.167969 126.367188 79.167969 M 126.390625 79.167969 C 126.390625 79.167969 126.394531 79.167969 126.394531 79.167969 C 126.394531 79.167969 126.390625 79.167969 126.390625 79.167969 M 126.039062 79.167969 L 126.039062 79.167969 M 126.417969 79.167969 C 126.421875 79.167969 126.421875 79.167969 126.421875 79.167969 C 126.421875 79.167969 126.421875 79.167969 126.417969 79.167969 M 126.007812 79.167969 L 126.007812 79.167969 M 126.441406 79.167969 C 126.441406 79.167969 126.445312 79.167969 126.445312 79.167969 C 126.445312 79.167969 126.441406 79.167969 126.441406 79.167969 M 126.492188 79.167969 C 126.496094 79.167969 126.496094 79.167969 126.496094 79.167969 C 126.496094 79.167969 126.496094 79.167969 126.492188 79.167969 M 125.921875 79.167969 C 125.921875 79.167969 125.917969 79.167969 125.917969 79.167969 C 125.917969 79.167969 125.921875 79.167969 125.921875 79.167969 M 125.890625 79.167969 C 125.890625 79.167969 125.890625 79.167969 125.886719 79.167969 C 125.890625 79.167969 125.890625 79.167969 125.890625 79.167969 M 126.542969 79.167969 C 126.546875 79.167969 126.546875 79.167969 126.546875 79.167969 C 126.546875 79.167969 126.546875 79.167969 126.542969 79.167969 M 125.863281 79.167969 C 125.859375 79.167969 125.859375 79.167969 125.859375 79.167969 C 125.859375 79.167969 125.859375 79.167969 125.863281 79.167969 M 125.773438 79.164062 C 125.773438 79.164062 125.769531 79.164062 125.769531 79.164062 C 125.769531 79.164062 125.773438 79.164062 125.773438 79.164062 " fill-opacity="1" fill-rule="nonzero"/><path fill="rgb(88.238525%, 41.178894%, 15.289307%)" d="M 126.214844 79.171875 C 126.207031 79.171875 126.199219 79.171875 126.1875 79.171875 C 126.1875 79.171875 126.183594 79.171875 126.183594 79.171875 C 126.175781 79.171875 126.167969 79.171875 126.160156 79.171875 C 126.15625 79.171875 126.15625 79.171875 126.152344 79.171875 C 126.148438 79.171875 126.136719 79.171875 126.128906 79.171875 C 126.125 79.171875 126.125 79.171875 126.125 79.171875 C 126.117188 79.171875 126.105469 79.171875 126.097656 79.171875 C 126.085938 79.167969 126.078125 79.167969 126.070312 79.167969 C 126.070312 79.167969 126.070312 79.167969 126.066406 79.167969 C 126.054688 79.167969 126.050781 79.167969 126.039062 79.167969 C 126.027344 79.167969 126.019531 79.167969 126.007812 79.167969 C 125.996094 79.167969 125.988281 79.167969 125.976562 79.167969 C 125.96875 79.167969 125.957031 79.167969 125.949219 79.167969 C 125.941406 79.167969 125.929688 79.167969 125.921875 79.167969 C 125.921875 79.167969 125.917969 79.167969 125.917969 79.167969 C 125.910156 79.167969 125.898438 79.167969 125.890625 79.167969 C 125.890625 79.167969 125.890625 79.167969 125.886719 79.167969 C 125.878906 79.167969 125.871094 79.167969 125.863281 79.167969 C 125.859375 79.167969 125.859375 79.167969 125.859375 79.167969 C 125.839844 79.164062 125.820312 79.164062 125.800781 79.164062 C 125.792969 79.164062 125.78125 79.164062 125.773438 79.164062 C 125.773438 79.164062 125.769531 79.164062 125.769531 79.164062 C 120.890625 78.957031 116.878906 75.394531 115.976562 70.726562 C 117.195312 72.386719 119.125 74.484375 121.125 74.484375 C 121.265625 74.484375 121.410156 74.476562 121.550781 74.453125 C 123.929688 74.089844 129.113281 71.890625 132.847656 71.890625 C 134.050781 71.890625 135.105469 72.117188 135.863281 72.707031 C 134.351562 76.375 130.816406 78.992188 126.648438 79.164062 C 126.640625 79.164062 126.632812 79.164062 126.621094 79.164062 C 126.617188 79.164062 126.605469 79.164062 126.597656 79.164062 C 126.585938 79.164062 126.582031 79.167969 126.570312 79.167969 C 126.5625 79.167969 126.554688 79.167969 126.546875 79.167969 C 126.546875 79.167969 126.546875 79.167969 126.542969 79.167969 C 126.535156 79.167969 126.53125 79.167969 126.519531 79.167969 C 126.511719 79.167969 126.503906 79.167969 126.496094 79.167969 C 126.496094 79.167969 126.496094 79.167969 126.492188 79.167969 C 126.488281 79.167969 126.480469 79.167969 126.472656 79.167969 C 126.460938 79.167969 126.457031 79.167969 126.445312 79.167969 C 126.445312 79.167969 126.441406 79.167969 126.441406 79.167969 C 126.4375 79.167969 126.425781 79.167969 126.421875 79.167969 C 126.421875 79.167969 126.421875 79.167969 126.417969 79.167969 C 126.410156 79.167969 126.40625 79.167969 126.394531 79.167969 C 126.394531 79.167969 126.390625 79.167969 126.390625 79.167969 C 126.382812 79.167969 126.375 79.167969 126.371094 79.167969 C 126.371094 79.167969 126.371094 79.167969 126.367188 79.167969 C 126.359375 79.167969 126.351562 79.167969 126.34375 79.167969 C 126.34375 79.167969 126.34375 79.171875 126.34375 79.171875 C 126.332031 79.171875 126.328125 79.171875 126.320312 79.171875 C 126.320312 79.171875 126.316406 79.171875 126.316406 79.171875 C 126.3125 79.171875 126.304688 79.171875 126.296875 79.171875 C 126.292969 79.171875 126.292969 79.171875 126.289062 79.171875 C 126.28125 79.171875 126.277344 79.171875 126.269531 79.171875 C 126.265625 79.171875 126.265625 79.171875 126.265625 79.171875 C 126.261719 79.171875 126.25 79.171875 126.246094 79.171875 C 126.242188 79.171875 126.242188 79.171875 126.238281 79.171875 C 126.230469 79.171875 126.222656 79.171875 126.214844 79.171875 " fill-opacity="1" fill-rule="nonzero"/><path fill="rgb(32.939148%, 38.819885%, 40.388489%)" d="M 225.089844 100.925781 L 229.925781 100.925781 L 229.925781 86.425781 L 225.089844 86.425781 Z M 225.089844 100.925781 " fill-opacity="1" fill-rule="nonzero"/><path fill="rgb(12.548828%, 13.729858%, 14.509583%)" d="M 232.140625 84.585938 C 232.140625 86.113281 230.902344 87.355469 229.375 87.355469 L 225.597656 87.355469 C 224.070312 87.355469 222.828125 86.113281 222.828125 84.585938 C 222.828125 83.054688 224.070312 81.8125 225.597656 81.8125 L 229.375 81.8125 C 230.902344 81.8125 232.140625 83.054688 232.140625 84.585938 " fill-opacity="1" fill-rule="nonzero"/><path fill="rgb(22.749329%, 25.489807%, 27.449036%)" d="M 243.625 68.734375 C 243.625 77.332031 236.65625 84.296875 228.066406 84.296875 C 219.476562 84.296875 212.511719 77.332031 212.511719 68.734375 C 212.511719 60.140625 219.476562 53.171875 228.066406 53.171875 C 236.65625 53.171875 243.625 60.140625 243.625 68.734375 " fill-opacity="1" fill-rule="nonzero"/><path fill="rgb(12.548828%, 13.729858%, 14.509583%)" d="M 241.140625 68.734375 C 241.140625 75.957031 235.289062 81.8125 228.066406 81.8125 C 220.84375 81.8125 214.992188 75.957031 214.992188 68.734375 C 214.992188 61.511719 220.84375 55.65625 228.066406 55.65625 C 235.289062 55.65625 241.140625 61.511719 241.140625 68.734375 " fill-opacity="1" fill-rule="nonzero"/><path fill="rgb(81.959534%, 22.749329%, 17.248535%)" d="M 239.589844 68.734375 C 239.589844 75.101562 234.429688 80.265625 228.066406 80.265625 C 221.703125 80.265625 216.542969 75.101562 216.542969 68.734375 C 216.542969 62.367188 221.703125 57.203125 228.066406 57.203125 C 234.429688 57.203125 239.589844 62.367188 239.589844 68.734375 " fill-opacity="1" fill-rule="nonzero"/><path fill="rgb(93.728638%, 53.329468%, 13.729858%)" d="M 238.5 68.734375 C 238.5 74.5 233.828125 79.171875 228.066406 79.171875 C 222.304688 79.171875 217.632812 74.5 217.632812 68.734375 C 217.632812 62.96875 222.304688 58.296875 228.066406 58.296875 C 233.828125 58.296875 238.5 62.96875 238.5 68.734375 " fill-opacity="1" fill-rule="nonzero"/><path fill="rgb(84.309387%, 74.899292%, 20.388794%)" d="M 219.601562 64.75 C 219.601562 64.75 225.019531 55.878906 234.308594 61.859375 C 234.308594 61.859375 235.914062 67.234375 226.953125 63.8125 C 226.953125 63.8125 224.089844 62.523438 219.601562 64.75 " fill-opacity="1" fill-rule="nonzero"/><path fill="rgb(48.629761%, 58.81958%, 65.098572%)" d="M 212.675781 220.058594 L 146.019531 220.058594 L 146.019531 225.113281 L 212.675781 225.113281 L 212.675781 220.058594 " fill-opacity="1" fill-rule="nonzero"/><path fill="rgb(38.038635%, 47.44873%, 52.938843%)" d="M 212.675781 222.585938 L 146.019531 222.585938 L 146.019531 225.113281 L 212.675781 225.113281 L 212.675781 222.585938 " fill-opacity="1" fill-rule="nonzero"/><path fill="rgb(48.629761%, 58.81958%, 65.098572%)" d="M 212.691406 265.816406 L 233.738281 97.085938 L 219.195312 92.855469 L 196.699219 265.699219 L 196.6875 265.816406 L 212.691406 265.816406 " fill-opacity="1" fill-rule="nonzero"/><path fill="rgb(35.688782%, 44.709778%, 49.409485%)" d="M 226.789062 152.804688 L 231.523438 114.851562 L 231 96.289062 L 219.195312 92.855469 L 196.699219 265.699219 L 196.6875 265.816406 L 200.933594 265.816406 C 202.90625 251.734375 207.703125 217.53125 208.335938 213.320312 C 208.867188 209.785156 215.457031 208.832031 219.828125 208.59375 L 221.25 197.203125 L 210.195312 197.625 C 210.195312 197.625 214.71875 157.1875 216.3125 153.199219 C 217.585938 150.015625 224.171875 151.910156 226.789062 152.804688 " fill-opacity="1" fill-rule="nonzero"/><path fill="rgb(65.489197%, 76.078796%, 82.348633%)" d="M 251.921875 265.816406 L 267.746094 265.816406 C 267.875 265.351562 267.90625 264.847656 267.808594 264.34375 L 234.804688 91.171875 C 234.464844 89.390625 232.746094 88.214844 230.964844 88.554688 L 221.8125 89.011719 C 220.03125 89.351562 218.859375 91.070312 219.195312 92.855469 L 251.921875 265.816406 " fill-opacity="1" fill-rule="nonzero"/><path fill="rgb(48.629761%, 58.81958%, 65.098572%)" d="M 222.269531 88.992188 L 221.8125 89.011719 C 220.03125 89.351562 218.859375 91.070312 219.195312 92.855469 L 224.371094 120.210938 L 230.855469 120.210938 L 222.269531 88.992188 " fill-opacity="1" fill-rule="nonzero"/><path fill="rgb(48.629761%, 58.81958%, 65.098572%)" d="M 244.152344 139.320312 L 227.863281 138.664062 L 234.441406 173.433594 L 240.511719 170.101562 L 235.726562 150.804688 L 245.898438 148.535156 L 244.152344 139.320312 " fill-opacity="1" fill-rule="nonzero"/><path fill="rgb(52.549744%, 61.959839%, 67.449951%)" d="M 249.855469 254.914062 L 246.671875 238.0625 L 249.855469 254.914062 " fill-opacity="1" fill-rule="nonzero"/><path fill="rgb(51.368713%, 60.778809%, 65.879822%)" d="M 257.617188 265.816406 L 251.921875 265.816406 L 249.855469 254.914062 L 251.921875 265.816406 L 257.617188 265.816406 " fill-opacity="1" fill-rule="nonzero"/><path fill="rgb(52.549744%, 61.959839%, 67.449951%)" d="M 246.191406 235.535156 L 245.957031 234.304688 L 239.449219 199.898438 L 246.191406 235.535156 M 256.308594 204.003906 L 255.527344 199.898438 L 255.613281 199.898438 L 256.390625 203.992188 C 256.363281 203.996094 256.335938 204 256.308594 204.003906 " fill-opacity="1" fill-rule="nonzero"/><path fill="rgb(50.19989%, 60.778809%, 66.668701%)" d="M 257.617188 265.816406 L 251.921875 265.816406 L 249.855469 254.914062 L 246.671875 238.0625 L 246.191406 235.535156 L 239.449219 199.898438 L 255.527344 199.898438 L 256.308594 204.003906 C 251.660156 204.777344 246.527344 205.914062 246.09375 207.203125 C 245.386719 209.332031 255.371094 255.492188 257.617188 265.816406 " fill-opacity="1" fill-rule="nonzero"/><path fill="rgb(48.629761%, 58.81958%, 65.098572%)" d="M 140.171875 265.816406 L 119.125 97.085938 L 133.671875 92.855469 L 156.167969 265.699219 L 156.175781 265.816406 L 140.171875 265.816406 " fill-opacity="1" fill-rule="nonzero"/><path fill="rgb(35.688782%, 44.709778%, 49.409485%)" d="M 126.078125 152.804688 L 121.34375 114.851562 L 121.859375 96.289062 L 133.671875 92.855469 L 156.167969 265.699219 L 156.175781 265.816406 L 151.929688 265.816406 C 149.957031 251.734375 145.164062 217.53125 144.53125 213.320312 C 144 209.785156 137.40625 208.832031 133.035156 208.59375 L 131.617188 197.203125 L 142.667969 197.625 C 142.667969 197.625 138.148438 157.1875 136.550781 153.199219 C 135.28125 150.015625 128.691406 151.910156 126.078125 152.804688 " fill-opacity="1" fill-rule="nonzero"/><path fill="rgb(65.489197%, 76.078796%, 82.348633%)" d="M 245.710938 233.007812 L 103.824219 233.007812 L 103.824219 238.0625 L 246.671875 238.0625 L 245.710938 233.007812 " fill-opacity="1" fill-rule="nonzero"/><path fill="rgb(48.629761%, 58.81958%, 65.098572%)" d="M 103.824219 238.0625 L 246.671875 238.0625 L 246.191406 235.535156 L 103.824219 235.535156 L 103.824219 238.0625 " fill-opacity="1" fill-rule="nonzero"/><path fill="rgb(65.489197%, 76.078796%, 82.348633%)" d="M 100.945312 265.816406 L 85.117188 265.816406 C 84.988281 265.351562 84.960938 264.847656 85.054688 264.34375 L 118.0625 91.171875 C 118.402344 89.390625 120.121094 88.214844 121.902344 88.554688 L 131.054688 89.011719 C 132.835938 89.351562 134.007812 91.070312 133.671875 92.855469 L 100.945312 265.816406 " fill-opacity="1" fill-rule="nonzero"/><path fill="rgb(48.629761%, 58.81958%, 65.098572%)" d="M 130.597656 88.992188 L 131.054688 89.011719 C 132.835938 89.351562 134.007812 91.070312 133.671875 92.855469 L 128.496094 120.210938 L 122.011719 120.210938 L 130.597656 88.992188 " fill-opacity="1" fill-rule="nonzero"/><path fill="rgb(48.629761%, 58.81958%, 65.098572%)" d="M 108.710938 139.320312 L 125.003906 138.664062 L 118.421875 173.433594 L 112.351562 170.101562 L 117.136719 150.804688 L 106.96875 148.535156 L 108.710938 139.320312 " fill-opacity="1" fill-rule="nonzero"/><path fill="rgb(52.549744%, 61.959839%, 67.449951%)" d="M 110.453125 215.566406 L 113.417969 199.898438 L 110.453125 215.566406 " fill-opacity="1" fill-rule="nonzero"/><path fill="rgb(50.19989%, 60.778809%, 66.668701%)" d="M 110.453125 215.566406 L 105.878906 214.164062 C 106.5625 210.277344 106.925781 207.671875 106.769531 207.203125 C 106.445312 206.226562 103.4375 205.34375 99.984375 204.636719 L 100.617188 199.898438 L 113.417969 199.898438 L 110.453125 215.566406 " fill-opacity="1" fill-rule="nonzero"/><path fill="rgb(52.938843%, 63.139343%, 72.158813%)" d="M 265.15625 139.363281 C 265.15625 141.125 263.726562 142.558594 261.964844 142.558594 L 94.253906 142.558594 C 92.492188 142.558594 91.0625 141.125 91.0625 139.363281 L 91.0625 115.953125 C 91.0625 114.191406 92.492188 112.761719 94.253906 112.761719 L 261.964844 112.761719 C 263.726562 112.761719 265.15625 114.191406 265.15625 115.953125 L 265.15625 139.363281 " fill-opacity="1" fill-rule="nonzero"/><path fill="rgb(75.689697%, 84.709167%, 93.328857%)" d="M 265.15625 142.203125 C 265.15625 143.964844 263.726562 145.394531 261.964844 145.394531 L 94.253906 145.394531 C 92.492188 145.394531 91.0625 143.964844 91.0625 142.203125 L 91.0625 118.789062 C 91.0625 117.027344 92.492188 115.597656 94.253906 115.597656 L 261.964844 115.597656 C 263.726562 115.597656 265.15625 117.027344 265.15625 118.789062 L 265.15625 142.203125 " fill-opacity="1" fill-rule="nonzero"/><path fill="rgb(65.879822%, 76.469421%, 83.139038%)" d="M 94.253906 145.394531 L 261.964844 145.394531 C 263.726562 145.394531 265.15625 143.964844 265.15625 142.203125 L 265.15625 124.414062 C 229.050781 133.816406 129.347656 134.109375 91.0625 133.851562 L 91.0625 142.203125 C 91.0625 143.964844 92.492188 145.394531 94.253906 145.394531 " fill-opacity="1" fill-rule="nonzero"/><path fill="rgb(92.158508%, 37.649536%, 16.468811%)" d="M 98.617188 145.394531 L 125.675781 145.394531 L 101.246094 115.597656 L 94.253906 115.597656 C 92.492188 115.597656 91.0625 117.027344 91.0625 118.789062 L 91.0625 136.179688 L 98.617188 145.394531 " fill-opacity="1" fill-rule="nonzero"/><path fill="rgb(92.158508%, 37.649536%, 16.468811%)" d="M 147.621094 145.394531 L 174.675781 145.394531 L 150.246094 115.597656 L 123.191406 115.597656 L 147.621094 145.394531 " fill-opacity="1" fill-rule="nonzero"/><path fill="rgb(92.158508%, 37.649536%, 16.468811%)" d="M 196.621094 145.394531 L 223.679688 145.394531 L 199.25 115.597656 L 172.195312 115.597656 L 196.621094 145.394531 " fill-opacity="1" fill-rule="nonzero"/><path fill="rgb(92.158508%, 37.649536%, 16.468811%)" d="M 265.15625 136.214844 L 248.25 115.597656 L 221.195312 115.597656 L 245.625 145.394531 L 261.964844 145.394531 C 263.726562 145.394531 265.15625 143.964844 265.15625 142.203125 L 265.15625 136.214844 " fill-opacity="1" fill-rule="nonzero"/><path fill="rgb(79.219055%, 30.198669%, 16.079712%)" d="M 245.625 145.394531 L 261.964844 145.394531 C 263.726562 145.394531 265.15625 143.964844 265.15625 142.203125 L 265.15625 136.214844 L 256.953125 126.210938 C 250.019531 127.5 241.734375 128.574219 232.574219 129.476562 L 245.625 145.394531 " fill-opacity="1" fill-rule="nonzero"/><path fill="rgb(79.219055%, 30.198669%, 16.079712%)" d="M 196.621094 145.394531 L 223.679688 145.394531 L 211.984375 131.128906 C 203.609375 131.679688 194.867188 132.125 186.042969 132.484375 L 196.621094 145.394531 " fill-opacity="1" fill-rule="nonzero"/><path fill="rgb(79.219055%, 30.198669%, 16.079712%)" d="M 147.621094 145.394531 L 174.675781 145.394531 L 164.675781 133.199219 C 155.5625 133.4375 146.582031 133.605469 138.046875 133.714844 L 147.621094 145.394531 " fill-opacity="1" fill-rule="nonzero"/><path fill="rgb(79.219055%, 30.198669%, 16.079712%)" d="M 125.675781 145.394531 L 116.242188 133.890625 C 106.40625 133.925781 97.785156 133.898438 91.0625 133.851562 L 91.0625 136.179688 L 98.617188 145.394531 L 125.675781 145.394531 " fill-opacity="1" fill-rule="nonzero"/><path fill="rgb(52.938843%, 63.139343%, 72.158813%)" d="M 265.15625 193.871094 C 265.15625 195.628906 263.726562 197.058594 261.964844 197.058594 L 94.253906 197.058594 C 92.492188 197.058594 91.0625 195.628906 91.0625 193.871094 L 91.0625 170.457031 C 91.0625 168.695312 92.492188 167.265625 94.253906 167.265625 L 261.964844 167.265625 C 263.726562 167.265625 265.15625 168.695312 265.15625 170.457031 L 265.15625 193.871094 " fill-opacity="1" fill-rule="nonzero"/><path fill="rgb(75.689697%, 84.709167%, 93.328857%)" d="M 265.15625 196.703125 C 265.15625 198.46875 263.726562 199.898438 261.964844 199.898438 L 94.253906 199.898438 C 92.492188 199.898438 91.0625 198.46875 91.0625 196.703125 L 91.0625 173.296875 C 91.0625 171.53125 92.492188 170.101562 94.253906 170.101562 L 261.964844 170.101562 C 263.726562 170.101562 265.15625 171.53125 265.15625 173.296875 L 265.15625 196.703125 " fill-opacity="1" fill-rule="nonzero"/><path fill="rgb(65.879822%, 76.469421%, 83.139038%)" d="M 94.253906 199.898438 L 261.964844 199.898438 C 263.726562 199.898438 265.15625 198.46875 265.15625 196.703125 L 265.15625 178.921875 C 229.050781 188.324219 129.347656 188.617188 91.0625 188.359375 L 91.0625 196.703125 C 91.0625 198.46875 92.492188 199.898438 94.253906 199.898438 " fill-opacity="1" fill-rule="nonzero"/><path fill="rgb(92.158508%, 37.649536%, 16.468811%)" d="M 98.617188 199.898438 L 125.675781 199.898438 L 101.246094 170.101562 L 94.253906 170.101562 C 92.492188 170.101562 91.0625 171.53125 91.0625 173.296875 L 91.0625 190.679688 L 98.617188 199.898438 " fill-opacity="1" fill-rule="nonzero"/><path fill="rgb(92.158508%, 37.649536%, 16.468811%)" d="M 147.621094 199.898438 L 174.675781 199.898438 L 150.246094 170.101562 L 123.191406 170.101562 L 147.621094 199.898438 " fill-opacity="1" fill-rule="nonzero"/><path fill="rgb(92.158508%, 37.649536%, 16.468811%)" d="M 196.621094 199.898438 L 223.679688 199.898438 L 199.25 170.101562 L 172.195312 170.101562 L 196.621094 199.898438 " fill-opacity="1" fill-rule="nonzero"/><path fill="rgb(92.158508%, 37.649536%, 16.468811%)" d="M 265.15625 190.71875 L 248.25 170.101562 L 221.195312 170.101562 L 245.625 199.898438 L 261.964844 199.898438 C 263.726562 199.898438 265.15625 198.46875 265.15625 196.703125 L 265.15625 190.71875 " fill-opacity="1" fill-rule="nonzero"/><path fill="rgb(79.219055%, 30.198669%, 16.079712%)" d="M 245.625 199.898438 L 261.964844 199.898438 C 263.726562 199.898438 265.15625 198.46875 265.15625 196.703125 L 265.15625 190.71875 L 256.953125 180.710938 C 250.019531 182 241.734375 183.078125 232.574219 183.980469 L 245.625 199.898438 " fill-opacity="1" fill-rule="nonzero"/><path fill="rgb(79.219055%, 30.198669%, 16.079712%)" d="M 196.621094 199.898438 L 223.679688 199.898438 L 211.984375 185.636719 C 203.609375 186.1875 194.867188 186.628906 186.042969 186.992188 L 196.621094 199.898438 " fill-opacity="1" fill-rule="nonzero"/><path fill="rgb(79.219055%, 30.198669%, 16.079712%)" d="M 147.621094 199.898438 L 174.675781 199.898438 L 164.675781 187.703125 C 155.5625 187.945312 146.582031 188.105469 138.046875 188.21875 L 147.621094 199.898438 " fill-opacity="1" fill-rule="nonzero"/><path fill="rgb(79.219055%, 30.198669%, 16.079712%)" d="M 125.675781 199.898438 L 116.242188 188.394531 C 106.40625 188.429688 97.785156 188.402344 91.0625 188.359375 L 91.0625 190.679688 L 98.617188 199.898438 L 125.675781 199.898438 " fill-opacity="1" fill-rule="nonzero"/><path fill="rgb(92.158508%, 37.649536%, 16.468811%)" d="M 113.664062 253.875 C 115.207031 257.941406 112.914062 261.269531 108.566406 261.269531 L 44.242188 261.269531 C 39.894531 261.269531 37.601562 257.941406 39.144531 253.875 L 73.59375 163.21875 C 75.136719 159.148438 77.671875 159.148438 79.214844 163.21875 L 113.664062 253.875 " fill-opacity="1" fill-rule="nonzero"/><path fill="rgb(78.039551%, 29.798889%, 15.689087%)" d="M 79.214844 163.21875 C 77.703125 159.234375 75.246094 159.15625 73.691406 162.976562 C 75.09375 163.253906 76.390625 163.765625 76.402344 164.714844 C 76.429688 166.78125 85.730469 250.308594 81.804688 256.308594 C 79.210938 260.269531 99.265625 259.964844 113.171875 259.304688 C 114.226562 257.949219 114.480469 256.015625 113.664062 253.875 L 79.214844 163.21875 " fill-opacity="1" fill-rule="nonzero"/><path fill="rgb(92.158508%, 37.649536%, 16.468811%)" d="M 122.519531 258.527344 C 122.519531 262.554688 119.257812 265.816406 115.234375 265.816406 L 36.023438 265.816406 C 32 265.816406 28.742188 262.554688 28.742188 258.527344 C 28.742188 254.503906 32 251.238281 36.023438 251.238281 L 115.234375 251.238281 C 119.257812 251.238281 122.519531 254.503906 122.519531 258.527344 " fill-opacity="1" fill-rule="nonzero"/><path fill="rgb(75.689697%, 84.709167%, 93.328857%)" d="M 68.574219 176.433594 L 84.238281 176.433594 L 81.136719 168.277344 L 71.671875 168.277344 L 68.574219 176.433594 " fill-opacity="1" fill-rule="nonzero"/><path fill="rgb(75.689697%, 84.709167%, 93.328857%)" d="M 62.5 192.417969 L 90.308594 192.417969 L 87.210938 184.261719 L 65.597656 184.261719 L 62.5 192.417969 " fill-opacity="1" fill-rule="nonzero"/><path fill="rgb(75.689697%, 84.709167%, 93.328857%)" d="M 55.578125 210.628906 L 97.230469 210.628906 L 94.132812 202.472656 L 58.675781 202.472656 L 55.578125 210.628906 " fill-opacity="1" fill-rule="nonzero"/><path fill="rgb(75.689697%, 84.709167%, 93.328857%)" d="M 48.660156 228.84375 L 104.152344 228.84375 L 101.054688 220.6875 L 51.753906 220.6875 L 48.660156 228.84375 " fill-opacity="1" fill-rule="nonzero"/><path fill="rgb(75.689697%, 84.709167%, 93.328857%)" d="M 41.734375 247.054688 L 111.074219 247.054688 L 107.972656 238.902344 L 44.832031 238.902344 L 41.734375 247.054688 " fill-opacity="1" fill-rule="nonzero"/><path fill="rgb(65.879822%, 78.039551%, 83.529663%)" d="M 83.488281 174.464844 L 81.136719 168.277344 L 76.734375 168.277344 C 76.933594 170.300781 77.21875 173.089844 77.550781 176.433594 L 84.238281 176.433594 L 83.488281 174.464844 " fill-opacity="1" fill-rule="nonzero"/><path fill="rgb(65.879822%, 78.039551%, 83.529663%)" d="M 87.210938 184.261719 L 78.320312 184.261719 C 78.574219 186.832031 78.835938 189.570312 79.101562 192.417969 L 90.308594 192.417969 L 87.210938 184.261719 " fill-opacity="1" fill-rule="nonzero"/><path fill="rgb(65.879822%, 78.039551%, 83.529663%)" d="M 80.019531 202.472656 C 80.257812 205.167969 80.492188 207.898438 80.71875 210.628906 L 97.230469 210.628906 L 96.644531 209.089844 L 94.132812 202.472656 L 80.019531 202.472656 " fill-opacity="1" fill-rule="nonzero"/><path fill="rgb(65.879822%, 78.039551%, 83.529663%)" d="M 81.507812 220.6875 C 81.710938 223.472656 81.898438 226.203125 82.0625 228.84375 L 104.152344 228.84375 L 102.554688 224.644531 L 101.054688 220.6875 L 81.507812 220.6875 " fill-opacity="1" fill-rule="nonzero"/><path fill="rgb(65.879822%, 78.039551%, 83.529663%)" d="M 109.304688 242.394531 L 107.972656 238.902344 L 82.589844 238.902344 C 82.707031 241.914062 82.769531 244.667969 82.769531 247.054688 L 111.074219 247.054688 L 109.304688 242.394531 " fill-opacity="1" fill-rule="nonzero"/><path fill="rgb(78.039551%, 29.798889%, 15.689087%)" d="M 28.742188 258.527344 C 28.742188 262.554688 32 265.816406 36.023438 265.816406 L 115.234375 265.816406 C 119.257812 265.816406 122.519531 262.554688 122.519531 258.527344 C 122.519531 258.050781 122.472656 257.582031 122.386719 257.132812 L 28.871094 257.132812 C 28.785156 257.582031 28.742188 258.050781 28.742188 258.527344 " fill-opacity="1" fill-rule="nonzero"/><path fill="rgb(94.898987%, 59.609985%, 18.429565%)" d="M 260.054688 115.953125 C 261.546875 114.476562 262.941406 112.859375 264.207031 111.101562 C 276.414062 94.152344 272.578125 70.515625 255.636719 58.300781 C 238.699219 46.089844 215.066406 49.929688 202.859375 66.878906 C 201.589844 68.636719 200.496094 70.472656 199.574219 72.355469 C 199.574219 72.355469 222.929688 113.191406 260.054688 115.953125 " fill-opacity="1" fill-rule="nonzero"/><path fill="rgb(82.348633%, 71.369934%, 64.309692%)" d="M 202.835938 66.910156 C 202.84375 66.898438 202.851562 66.886719 202.859375 66.878906 C 202.851562 66.886719 202.84375 66.898438 202.835938 66.910156 M 202.902344 66.816406 C 202.90625 66.808594 202.914062 66.800781 202.917969 66.792969 C 202.914062 66.800781 202.90625 66.808594 202.902344 66.816406 M 202.921875 66.785156 C 202.9375 66.769531 202.953125 66.75 202.964844 66.730469 C 202.953125 66.75 202.9375 66.769531 202.921875 66.785156 M 202.96875 66.726562 C 202.972656 66.71875 202.984375 66.707031 202.988281 66.699219 C 202.984375 66.707031 202.972656 66.71875 202.96875 66.726562 M 202.988281 66.699219 C 202.996094 66.6875 203 66.679688 203.007812 66.671875 C 203 66.679688 202.996094 66.6875 202.988281 66.699219 M 203.011719 66.667969 C 203.015625 66.65625 203.023438 66.648438 203.03125 66.640625 C 203.023438 66.648438 203.015625 66.65625 203.011719 66.667969 M 203.03125 66.636719 C 203.039062 66.628906 203.046875 66.621094 203.046875 66.613281 C 203.046875 66.621094 203.039062 66.628906 203.03125 66.636719 M 203.054688 66.605469 C 203.0625 66.597656 203.066406 66.589844 203.070312 66.582031 C 203.066406 66.589844 203.0625 66.597656 203.054688 66.605469 M 203.078125 66.574219 C 203.082031 66.570312 203.085938 66.558594 203.09375 66.554688 C 203.085938 66.558594 203.082031 66.570312 203.078125 66.574219 M 203.097656 66.546875 C 203.105469 66.539062 203.109375 66.53125 203.113281 66.527344 C 203.109375 66.53125 203.105469 66.539062 203.097656 66.546875 M 203.121094 66.515625 C 203.128906 66.511719 203.128906 66.503906 203.132812 66.5 C 203.128906 66.503906 203.125 66.511719 203.121094 66.515625 M 203.144531 66.484375 C 203.144531 66.480469 203.152344 66.476562 203.15625 66.46875 C 203.152344 66.476562 203.144531 66.480469 203.144531 66.484375 M 203.164062 66.457031 C 203.167969 66.449219 203.171875 66.445312 203.175781 66.445312 C 203.171875 66.445312 203.167969 66.449219 203.164062 66.457031 M 203.1875 66.425781 C 203.191406 66.421875 203.191406 66.417969 203.195312 66.414062 C 203.195312 66.414062 203.191406 66.421875 203.1875 66.425781 M 203.210938 66.394531 C 203.210938 66.390625 203.214844 66.390625 203.21875 66.386719 C 203.214844 66.390625 203.210938 66.390625 203.210938 66.394531 M 203.234375 66.363281 C 203.234375 66.363281 203.238281 66.359375 203.238281 66.359375 C 203.238281 66.359375 203.234375 66.363281 203.234375 66.363281 M 203.257812 66.332031 L 203.257812 66.332031 " fill-opacity="1" fill-rule="nonzero"/><path fill="rgb(83.139038%, 50.19989%, 17.248535%)" d="M 246.035156 106.917969 C 243.539062 105.917969 240.878906 104.761719 238.136719 103.4375 L 238.222656 103.261719 L 239.703125 100.339844 C 239.949219 99.847656 239.753906 99.257812 239.269531 99.011719 L 230.566406 94.605469 C 230.421875 94.53125 230.269531 94.5 230.121094 94.5 C 229.761719 94.5 229.410156 94.695312 229.238281 95.039062 L 227.839844 97.804688 C 222.691406 94.609375 217.578125 90.796875 212.984375 86.292969 C 213.027344 86.269531 213.0625 86.242188 213.097656 86.214844 C 213.097656 86.214844 213.097656 86.210938 213.097656 86.210938 C 213.109375 86.207031 213.117188 86.195312 213.125 86.191406 L 215.445312 84.085938 C 215.808594 83.757812 215.832031 83.203125 215.507812 82.839844 L 209.664062 76.386719 C 209.492188 76.195312 209.253906 76.097656 209.011719 76.097656 C 208.800781 76.097656 208.589844 76.171875 208.417969 76.328125 L 206.109375 78.421875 C 204.15625 75.773438 202.390625 72.945312 200.882812 69.917969 C 201.480469 68.894531 202.132812 67.890625 202.835938 66.910156 C 202.84375 66.898438 202.851562 66.886719 202.859375 66.878906 C 202.871094 66.855469 202.886719 66.835938 202.902344 66.816406 C 202.90625 66.808594 202.914062 66.800781 202.917969 66.792969 C 202.917969 66.789062 202.921875 66.789062 202.921875 66.785156 C 202.9375 66.769531 202.953125 66.75 202.964844 66.730469 C 202.96875 66.726562 202.96875 66.726562 202.96875 66.726562 C 202.972656 66.71875 202.984375 66.707031 202.988281 66.699219 C 202.996094 66.6875 203 66.679688 203.007812 66.671875 C 203.007812 66.671875 203.011719 66.667969 203.011719 66.667969 C 203.015625 66.65625 203.023438 66.648438 203.03125 66.640625 C 203.03125 66.640625 203.03125 66.640625 203.03125 66.636719 C 203.039062 66.628906 203.046875 66.621094 203.046875 66.613281 C 203.050781 66.609375 203.050781 66.605469 203.054688 66.605469 C 203.0625 66.597656 203.066406 66.589844 203.070312 66.582031 C 203.074219 66.582031 203.074219 66.578125 203.078125 66.574219 C 203.082031 66.570312 203.085938 66.558594 203.09375 66.554688 C 203.097656 66.550781 203.097656 66.546875 203.097656 66.546875 C 203.105469 66.539062 203.109375 66.53125 203.113281 66.527344 C 203.117188 66.523438 203.117188 66.519531 203.121094 66.515625 C 203.125 66.511719 203.128906 66.503906 203.132812 66.5 C 203.136719 66.492188 203.140625 66.492188 203.144531 66.484375 C 203.144531 66.480469 203.152344 66.476562 203.15625 66.46875 C 203.160156 66.464844 203.160156 66.460938 203.164062 66.457031 C 203.167969 66.449219 203.171875 66.445312 203.175781 66.445312 C 203.179688 66.4375 203.183594 66.429688 203.1875 66.425781 C 203.191406 66.421875 203.195312 66.414062 203.195312 66.414062 C 203.203125 66.40625 203.207031 66.402344 203.210938 66.394531 C 203.210938 66.390625 203.214844 66.390625 203.21875 66.386719 C 203.222656 66.378906 203.226562 66.371094 203.234375 66.363281 C 203.234375 66.363281 203.238281 66.359375 203.238281 66.359375 C 203.242188 66.347656 203.25 66.339844 203.257812 66.332031 C 203.265625 66.320312 203.273438 66.3125 203.28125 66.300781 C 206.964844 61.382812 211.628906 57.613281 216.804688 55.0625 C 213.1875 58.203125 208.03125 63.140625 206.847656 66.675781 C 205.085938 71.953125 234.394531 98.808594 248.199219 102.046875 C 247.558594 103.644531 246.84375 105.265625 246.035156 106.917969 " fill-opacity="1" fill-rule="nonzero"/><path fill="rgb(83.139038%, 50.19989%, 17.248535%)" d="M 261.476562 111.992188 C 260.402344 111.722656 258.886719 111.316406 257.023438 110.761719 C 266.96875 92.585938 267.207031 79.347656 264.808594 70.535156 C 267.9375 77.617188 270.554688 91.109375 261.476562 111.992188 " fill-opacity="1" fill-rule="nonzero"/><path fill="rgb(94.898987%, 59.609985%, 18.429565%)" d="M 263.261719 112.417969 C 263.261719 112.417969 217.078125 102.699219 200.796875 69.738281 C 200.796875 69.738281 199.253906 69.464844 198.089844 71.082031 L 197.851562 72.972656 C 197.851562 72.972656 201.902344 84.226562 219.914062 102.691406 C 219.914062 102.691406 226.097656 114.703125 227.761719 117.53125 C 233.570312 127.410156 260.855469 139.214844 265.867188 126.914062 C 265.867188 126.914062 265.195312 121.078125 263.261719 112.417969 " fill-opacity="1" fill-rule="nonzero"/><path fill="rgb(62.348938%, 59.21936%, 58.428955%)" d="M 261.195312 131.386719 C 261.496094 131.273438 261.789062 131.144531 262.070312 131.007812 C 261.789062 131.148438 261.496094 131.273438 261.195312 131.386719 " fill-opacity="1" fill-rule="nonzero"/><path fill="rgb(81.17981%, 35.289001%, 16.079712%)" d="M 241.84375 128.464844 C 239.546875 127.398438 237.34375 126.160156 235.355469 124.828125 C 237.34375 126.160156 239.546875 127.398438 241.84375 128.464844 " fill-opacity="1" fill-rule="nonzero"/><path fill="rgb(73.329163%, 29.798889%, 15.289307%)" d="M 256.28125 132.183594 C 251.878906 132.183594 246.664062 130.703125 241.84375 128.464844 C 246.664062 130.703125 251.878906 132.179688 256.28125 132.179688 C 258.085938 132.179688 259.75 131.933594 261.195312 131.386719 C 259.75 131.933594 258.085938 132.183594 256.28125 132.183594 " fill-opacity="1" fill-rule="nonzero"/><path fill="rgb(62.348938%, 59.21936%, 58.428955%)" d="M 262.070312 131.007812 C 262.074219 131.003906 262.082031 131 262.085938 130.996094 C 262.082031 131 262.074219 131.003906 262.070312 131.007812 M 262.089844 130.996094 C 262.097656 130.996094 262.101562 130.992188 262.105469 130.988281 C 262.101562 130.992188 262.097656 130.996094 262.089844 130.996094 M 262.109375 130.988281 C 262.117188 130.984375 262.117188 130.980469 262.125 130.980469 C 262.117188 130.980469 262.117188 130.984375 262.109375 130.988281 M 262.128906 130.976562 C 262.136719 130.972656 262.140625 130.972656 262.144531 130.96875 C 262.140625 130.972656 262.136719 130.972656 262.128906 130.976562 M 262.148438 130.964844 C 262.152344 130.964844 262.160156 130.964844 262.164062 130.960938 C 262.160156 130.964844 262.152344 130.964844 262.148438 130.964844 M 262.167969 130.957031 C 262.171875 130.953125 262.179688 130.949219 262.183594 130.949219 C 262.179688 130.949219 262.171875 130.953125 262.167969 130.957031 M 262.183594 130.945312 C 262.191406 130.945312 262.199219 130.941406 262.203125 130.9375 C 262.199219 130.941406 262.191406 130.945312 262.183594 130.945312 M 262.207031 130.9375 C 262.210938 130.933594 262.214844 130.929688 262.222656 130.929688 C 262.214844 130.929688 262.210938 130.933594 262.207031 130.9375 M 262.226562 130.929688 C 262.230469 130.925781 262.238281 130.921875 262.246094 130.917969 C 262.238281 130.921875 262.230469 130.925781 262.226562 130.929688 M 262.257812 130.910156 C 262.257812 130.910156 262.261719 130.910156 262.261719 130.90625 C 262.261719 130.910156 262.257812 130.910156 262.257812 130.910156 M 262.273438 130.898438 C 262.277344 130.898438 262.28125 130.898438 262.28125 130.898438 C 262.28125 130.898438 262.277344 130.898438 262.273438 130.898438 M 262.296875 130.890625 C 262.296875 130.890625 262.296875 130.890625 262.296875 130.886719 C 262.296875 130.886719 262.296875 130.890625 262.296875 130.890625 M 262.3125 130.882812 C 262.3125 130.882812 262.3125 130.878906 262.316406 130.878906 C 262.3125 130.878906 262.3125 130.882812 262.3125 130.882812 M 262.332031 130.871094 C 262.332031 130.867188 262.332031 130.867188 262.335938 130.867188 C 262.335938 130.867188 262.332031 130.867188 262.332031 130.871094 M 262.347656 130.863281 C 262.351562 130.859375 262.351562 130.859375 262.355469 130.859375 C 262.351562 130.859375 262.351562 130.859375 262.347656 130.863281 M 262.367188 130.851562 C 262.371094 130.851562 262.371094 130.851562 262.371094 130.851562 C 262.371094 130.851562 262.371094 130.851562 262.367188 130.851562 M 262.386719 130.839844 C 262.386719 130.839844 262.390625 130.839844 262.390625 130.835938 C 262.386719 130.839844 262.386719 130.839844 262.386719 130.839844 M 262.40625 130.832031 C 262.40625 130.832031 262.40625 130.832031 262.40625 130.828125 C 262.40625 130.832031 262.40625 130.832031 262.40625 130.832031 M 262.425781 130.820312 L 262.425781 130.816406 L 262.425781 130.820312 " fill-opacity="1" fill-rule="nonzero"/><path fill="rgb(82.348633%, 71.369934%, 64.309692%)" d="M 265.769531 127.144531 C 265.800781 127.066406 265.835938 126.992188 265.867188 126.914062 C 265.835938 126.992188 265.800781 127.066406 265.769531 127.144531 " fill-opacity="1" fill-rule="nonzero"/><path fill="rgb(83.139038%, 50.19989%, 17.248535%)" d="M 256.28125 132.179688 C 251.878906 132.179688 246.664062 130.703125 241.84375 128.464844 C 239.546875 127.398438 237.34375 126.160156 235.355469 124.828125 C 231.949219 122.539062 229.199219 119.980469 227.761719 117.53125 C 226.097656 114.703125 219.914062 102.691406 219.914062 102.691406 C 219.820312 102.59375 219.730469 102.496094 219.636719 102.398438 L 220.3125 102.804688 C 220.859375 103.078125 229.015625 117.839844 229.015625 117.839844 C 234.070312 124.199219 247.03125 130.566406 256.445312 130.566406 C 260.5625 130.566406 264 129.347656 265.800781 126.375 L 265.867188 126.914062 C 265.835938 126.992188 265.800781 127.066406 265.769531 127.144531 C 265.71875 127.257812 265.671875 127.367188 265.617188 127.472656 C 264.882812 128.964844 263.785156 130.0625 262.425781 130.816406 L 262.425781 130.820312 C 262.417969 130.824219 262.410156 130.828125 262.40625 130.828125 C 262.40625 130.832031 262.40625 130.832031 262.40625 130.832031 C 262.402344 130.835938 262.394531 130.835938 262.390625 130.835938 C 262.390625 130.839844 262.386719 130.839844 262.386719 130.839844 C 262.378906 130.84375 262.375 130.847656 262.371094 130.851562 C 262.371094 130.851562 262.371094 130.851562 262.367188 130.851562 C 262.363281 130.851562 262.359375 130.855469 262.355469 130.859375 C 262.351562 130.859375 262.351562 130.859375 262.347656 130.863281 C 262.34375 130.863281 262.339844 130.867188 262.335938 130.867188 C 262.332031 130.867188 262.332031 130.867188 262.332031 130.871094 C 262.328125 130.871094 262.320312 130.875 262.316406 130.878906 C 262.3125 130.878906 262.3125 130.882812 262.3125 130.882812 C 262.308594 130.882812 262.304688 130.882812 262.296875 130.886719 C 262.296875 130.890625 262.296875 130.890625 262.296875 130.890625 C 262.289062 130.894531 262.285156 130.898438 262.28125 130.898438 C 262.28125 130.898438 262.277344 130.898438 262.273438 130.898438 C 262.269531 130.902344 262.265625 130.90625 262.261719 130.90625 C 262.261719 130.910156 262.257812 130.910156 262.257812 130.910156 C 262.25 130.914062 262.246094 130.914062 262.246094 130.917969 C 262.238281 130.921875 262.230469 130.925781 262.226562 130.929688 C 262.226562 130.929688 262.222656 130.929688 262.222656 130.929688 C 262.214844 130.929688 262.210938 130.933594 262.207031 130.9375 C 262.203125 130.9375 262.203125 130.9375 262.203125 130.9375 C 262.199219 130.941406 262.191406 130.945312 262.183594 130.945312 C 262.183594 130.945312 262.183594 130.945312 262.183594 130.949219 C 262.179688 130.949219 262.171875 130.953125 262.167969 130.957031 C 262.167969 130.957031 262.167969 130.960938 262.164062 130.960938 C 262.160156 130.964844 262.152344 130.964844 262.148438 130.964844 C 262.148438 130.964844 262.148438 130.96875 262.144531 130.96875 C 262.140625 130.972656 262.136719 130.972656 262.128906 130.976562 C 262.128906 130.976562 262.128906 130.976562 262.125 130.980469 C 262.117188 130.980469 262.117188 130.984375 262.109375 130.988281 C 262.109375 130.988281 262.105469 130.988281 262.105469 130.988281 C 262.101562 130.992188 262.097656 130.996094 262.089844 130.996094 C 262.089844 130.996094 262.085938 130.996094 262.085938 130.996094 C 262.082031 131 262.074219 131.003906 262.070312 131.007812 C 261.789062 131.144531 261.496094 131.273438 261.195312 131.386719 C 259.75 131.933594 258.085938 132.179688 256.28125 132.179688 " fill-opacity="1" fill-rule="nonzero"/><path fill="rgb(78.42865%, 47.839355%, 16.468811%)" d="M 244.023438 107.734375 C 244.023438 107.734375 226.628906 103.703125 220.617188 101.371094 C 220.617188 101.371094 219.410156 97.066406 218.546875 95.699219 C 217.6875 94.335938 202.019531 77.863281 200.582031 71.109375 L 200.796875 69.738281 C 200.796875 69.738281 202.242188 73.226562 206.109375 78.421875 L 206.101562 78.429688 C 205.910156 78.605469 205.8125 78.839844 205.8125 79.082031 C 205.8125 79.292969 205.886719 79.503906 206.039062 79.671875 L 211.882812 86.125 C 211.886719 86.136719 211.898438 86.140625 211.902344 86.148438 C 212.074219 86.324219 212.304688 86.417969 212.53125 86.417969 C 212.53125 86.417969 212.53125 86.417969 212.535156 86.417969 C 212.535156 86.417969 212.539062 86.417969 212.539062 86.417969 C 212.664062 86.417969 212.792969 86.386719 212.910156 86.335938 C 216.679688 90.183594 221.492188 94.355469 227.558594 98.46875 C 227.550781 98.515625 227.546875 98.566406 227.546875 98.613281 C 227.546875 98.976562 227.746094 99.320312 228.089844 99.496094 L 233.640625 102.308594 C 236.816406 104.167969 240.265625 105.992188 244.023438 107.734375 " fill-opacity="1" fill-rule="nonzero"/><path fill="rgb(86.268616%, 65.489197%, 19.60907%)" d="M 245.246094 50.8125 C 245.246094 50.8125 252.828125 53.660156 256.734375 56.78125 C 256.734375 56.78125 278.375 73.921875 255.757812 113.007812 C 255.757812 113.007812 250.027344 113.492188 246.207031 110.894531 L 252.757812 91.765625 L 253.824219 83.457031 L 253.261719 73.980469 L 251.332031 64.277344 L 247.539062 56.3125 L 245.246094 50.8125 " fill-opacity="1" fill-rule="nonzero"/><path fill="rgb(79.60968%, 47.839355%, 16.859436%)" d="M 243.945312 52.617188 C 243.945312 52.617188 262.746094 76.195312 244.585938 109.726562 L 246.207031 110.894531 C 246.207031 110.894531 267.664062 76.203125 245.246094 50.8125 C 245.246094 50.8125 244.578125 51.816406 243.945312 52.617188 " fill-opacity="1" fill-rule="nonzero"/><path fill="rgb(91.369629%, 57.649231%, 18.03894%)" d="M 246.910156 111.328125 C 246.90625 111.324219 246.902344 111.324219 246.898438 111.320312 C 246.902344 111.324219 246.90625 111.324219 246.910156 111.328125 M 246.890625 111.316406 C 246.886719 111.316406 246.882812 111.3125 246.878906 111.3125 C 246.878906 111.3125 246.886719 111.316406 246.890625 111.316406 M 246.871094 111.308594 C 246.671875 111.191406 246.46875 111.070312 246.273438 110.941406 C 246.46875 111.070312 246.671875 111.191406 246.871094 111.308594 M 246.269531 110.9375 C 246.269531 110.9375 246.261719 110.933594 246.257812 110.929688 C 246.261719 110.933594 246.269531 110.9375 246.269531 110.9375 M 246.253906 110.929688 C 246.25 110.925781 246.246094 110.921875 246.242188 110.917969 C 246.246094 110.921875 246.25 110.925781 246.253906 110.929688 M 246.234375 110.914062 C 246.230469 110.914062 246.226562 110.910156 246.222656 110.90625 C 246.226562 110.910156 246.230469 110.914062 246.234375 110.914062 " fill-opacity="1" fill-rule="nonzero"/><path fill="rgb(90.979004%, 83.918762%, 74.119568%)" d="M 251.824219 53.746094 C 251.820312 53.746094 251.816406 53.742188 251.816406 53.742188 C 251.816406 53.742188 251.820312 53.746094 251.824219 53.746094 M 251.816406 53.738281 C 248.589844 52.082031 245.453125 50.890625 245.257812 50.816406 C 245.453125 50.890625 248.589844 52.082031 251.816406 53.738281 M 245.253906 50.816406 C 245.25 50.8125 245.25 50.8125 245.246094 50.8125 C 245.25 50.8125 245.25 50.8125 245.253906 50.816406 " fill-opacity="1" fill-rule="nonzero"/><path fill="rgb(85.099792%, 61.959839%, 19.219971%)" d="M 251.785156 112.847656 C 250.242188 112.632812 248.476562 112.199219 246.925781 111.335938 C 246.917969 111.332031 246.914062 111.332031 246.910156 111.328125 C 246.90625 111.324219 246.902344 111.324219 246.898438 111.320312 C 246.898438 111.320312 246.894531 111.316406 246.890625 111.316406 C 246.886719 111.316406 246.878906 111.3125 246.878906 111.3125 C 246.878906 111.308594 246.875 111.308594 246.871094 111.308594 C 246.671875 111.191406 246.46875 111.070312 246.273438 110.941406 C 246.273438 110.941406 246.273438 110.941406 246.269531 110.9375 C 246.269531 110.9375 246.261719 110.933594 246.257812 110.929688 C 246.253906 110.929688 246.253906 110.929688 246.253906 110.929688 C 246.25 110.925781 246.246094 110.921875 246.242188 110.917969 C 246.238281 110.914062 246.238281 110.914062 246.234375 110.914062 C 246.230469 110.914062 246.226562 110.910156 246.222656 110.90625 C 246.21875 110.902344 246.214844 110.898438 246.207031 110.894531 C 246.207031 110.894531 255.460938 95.933594 255.464844 78.464844 C 255.464844 69.339844 252.941406 59.527344 245.246094 50.8125 C 245.25 50.8125 245.25 50.8125 245.253906 50.816406 C 245.253906 50.816406 245.257812 50.816406 245.257812 50.816406 C 245.453125 50.890625 248.589844 52.082031 251.816406 53.738281 C 251.816406 53.738281 251.816406 53.742188 251.816406 53.742188 C 251.816406 53.742188 251.820312 53.746094 251.824219 53.746094 C 251.835938 53.753906 251.84375 53.757812 251.851562 53.761719 C 252.640625 54.167969 253.433594 54.601562 254.1875 55.050781 C 253.957031 55.753906 253.761719 56.917969 253.996094 58.660156 C 254.421875 61.820312 267.085938 88.925781 251.785156 112.847656 " fill-opacity="1" fill-rule="nonzero"/><path fill="rgb(95.289612%, 70.199585%, 36.468506%)" d="M 208.160156 65.925781 C 219.792969 54.769531 229.90625 52.714844 235.773438 52.714844 C 239.1875 52.714844 241.167969 53.410156 241.167969 53.410156 C 244.785156 58.632812 243.195312 61.484375 243.195312 61.484375 C 241.144531 60.695312 238.578125 60.375 235.769531 60.375 C 224.0625 60.375 208.160156 65.925781 208.160156 65.925781 " fill-opacity="1" fill-rule="nonzero"/><path fill="rgb(89.408875%, 74.899292%, 38.038635%)" d="M 260.980469 98.925781 L 264.433594 78.335938 C 264.433594 78.335938 266.089844 90.765625 260.980469 98.925781 " fill-opacity="1" fill-rule="nonzero"/><path fill="rgb(94.898987%, 59.609985%, 18.429565%)" d="M 238.121094 103.46875 C 237.875 103.953125 237.28125 104.148438 236.792969 103.902344 L 228.089844 99.496094 C 227.605469 99.25 227.410156 98.65625 227.65625 98.171875 L 229.238281 95.039062 C 229.484375 94.550781 230.078125 94.355469 230.566406 94.605469 L 239.269531 99.011719 C 239.753906 99.257812 239.949219 99.847656 239.703125 100.339844 L 238.121094 103.46875 " fill-opacity="1" fill-rule="nonzero"/><path fill="rgb(69.018555%, 37.649536%, 14.898682%)" d="M 237.238281 104.007812 L 237.238281 104.007812 M 237.242188 104.007812 C 237.589844 104.007812 237.921875 103.824219 238.097656 103.507812 C 237.921875 103.824219 237.589844 104.007812 237.242188 104.007812 M 236.800781 103.90625 C 236.800781 103.90625 236.796875 103.90625 236.792969 103.902344 L 233.640625 102.308594 L 236.792969 103.902344 C 236.796875 103.90625 236.800781 103.90625 236.800781 103.90625 " fill-opacity="1" fill-rule="nonzero"/><path fill="rgb(66.268921%, 34.899902%, 14.509583%)" d="M 238.136719 103.4375 L 238.222656 103.261719 L 238.136719 103.4375 " fill-opacity="1" fill-rule="nonzero"/><path fill="rgb(69.018555%, 37.649536%, 14.898682%)" d="M 238.097656 103.507812 C 238.105469 103.496094 238.113281 103.484375 238.121094 103.46875 L 238.136719 103.4375 L 238.121094 103.46875 C 238.113281 103.484375 238.105469 103.496094 238.097656 103.507812 " fill-opacity="1" fill-rule="nonzero"/><path fill="rgb(69.018555%, 37.649536%, 14.898682%)" d="M 237.238281 104.007812 C 237.09375 104.007812 236.941406 103.976562 236.800781 103.90625 C 236.800781 103.90625 236.796875 103.90625 236.792969 103.902344 L 233.640625 102.308594 L 228.089844 99.496094 C 227.746094 99.320312 227.546875 98.976562 227.546875 98.613281 C 227.546875 98.460938 227.582031 98.3125 227.65625 98.171875 L 229.238281 95.039062 C 229.414062 94.695312 229.761719 94.5 230.121094 94.5 C 230.144531 94.5 230.164062 94.5 230.1875 94.5 C 230.1875 94.5 228.398438 97.289062 228.976562 98.089844 C 229.476562 98.78125 235.796875 102.925781 238.222656 103.261719 L 238.136719 103.4375 L 238.121094 103.46875 C 238.113281 103.484375 238.105469 103.496094 238.097656 103.507812 C 237.921875 103.824219 237.589844 104.007812 237.242188 104.007812 C 237.242188 104.007812 237.238281 104.007812 237.238281 104.007812 " fill-opacity="1" fill-rule="nonzero"/><path fill="rgb(94.898987%, 59.609985%, 18.429565%)" d="M 213.125 86.191406 C 212.765625 86.515625 212.210938 86.488281 211.882812 86.125 L 206.039062 79.671875 C 205.714844 79.3125 205.742188 78.753906 206.101562 78.429688 L 208.417969 76.328125 C 208.78125 76 209.335938 76.027344 209.664062 76.386719 L 215.507812 82.839844 C 215.832031 83.203125 215.808594 83.757812 215.445312 84.085938 L 213.125 86.191406 " fill-opacity="1" fill-rule="nonzero"/><path fill="rgb(66.268921%, 34.899902%, 14.509583%)" d="M 212.984375 86.292969 C 213.027344 86.269531 213.0625 86.242188 213.097656 86.214844 C 213.0625 86.242188 213.027344 86.269531 212.984375 86.292969 " fill-opacity="1" fill-rule="nonzero"/><path fill="rgb(64.309692%, 34.118652%, 14.118958%)" d="M 212.539062 86.417969 C 212.664062 86.417969 212.792969 86.386719 212.910156 86.335938 C 212.792969 86.386719 212.664062 86.417969 212.539062 86.417969 " fill-opacity="1" fill-rule="nonzero"/><path fill="rgb(69.018555%, 37.649536%, 14.898682%)" d="M 212.535156 86.417969 C 212.53125 86.417969 212.53125 86.417969 212.53125 86.417969 C 212.304688 86.417969 212.074219 86.324219 211.902344 86.148438 C 211.898438 86.140625 211.886719 86.136719 211.882812 86.125 L 206.039062 79.671875 C 205.886719 79.503906 205.8125 79.292969 205.8125 79.082031 C 205.8125 78.839844 205.910156 78.605469 206.101562 78.429688 L 208.417969 76.328125 C 208.589844 76.171875 208.800781 76.097656 209.011719 76.097656 C 209.140625 76.097656 209.269531 76.125 209.382812 76.179688 C 209.378906 76.179688 207 77.933594 207.226562 78.785156 C 207.421875 79.523438 211.367188 84.992188 213.277344 86.050781 L 213.125 86.191406 C 213.117188 86.195312 213.109375 86.207031 213.097656 86.210938 C 213.097656 86.210938 213.097656 86.214844 213.097656 86.214844 C 213.0625 86.242188 213.027344 86.269531 212.984375 86.292969 C 212.960938 86.304688 212.933594 86.320312 212.910156 86.335938 C 212.792969 86.386719 212.664062 86.417969 212.539062 86.417969 C 212.539062 86.417969 212.535156 86.417969 212.535156 86.417969 " fill-opacity="1" fill-rule="nonzero"/><path fill="rgb(83.918762%, 87.449646%, 21.569824%)" d="M 220.617188 101.371094 L 218.300781 96.046875 C 218.300781 96.046875 198.6875 75.601562 200.425781 69.726562 L 200.796875 69.738281 C 200.796875 69.738281 200.109375 71.605469 203.546875 77.109375 C 203.546875 77.109375 211.238281 87.484375 218.546875 95.703125 C 218.546875 95.703125 220.511719 99.914062 220.617188 101.371094 " fill-opacity="1" fill-rule="nonzero"/><path fill="rgb(92.549133%, 64.709473%, 21.958923%)" d="M 256.375 129.578125 C 252.601562 129.578125 248.195312 128.304688 244.929688 127.035156 C 241.664062 125.761719 239.539062 124.488281 240.324219 124.488281 C 240.398438 124.488281 240.496094 124.5 240.621094 124.523438 C 240.835938 124.5625 241.0625 124.582031 241.296875 124.582031 C 246.480469 124.582031 255.925781 115.289062 255.925781 115.289062 L 262.144531 113.964844 C 266.992188 126.207031 262.519531 129.578125 256.375 129.578125 " fill-opacity="1" fill-rule="nonzero"/><g clip-path="url(#clip-1)"><path fill="rgb(70.199585%, 11.369324%, 18.429565%)" d="M 118.128906 21.191406 C 118.242188 20.070312 117.429688 19.070312 116.3125 18.957031 L 112.730469 18.597656 C 111.609375 18.484375 110.609375 19.296875 110.496094 20.417969 L 92.5625 197.511719 C 92.449219 198.628906 93.265625 199.628906 94.386719 199.742188 L 97.96875 200.105469 C 99.085938 200.21875 100.085938 199.402344 100.199219 198.285156 L 118.128906 21.191406 " fill-opacity="1" fill-rule="nonzero"/><path fill="rgb(54.508972%, 9.01947%, 14.898682%)" d="M 116.3125 18.957031 L 112.730469 18.597656 C 111.609375 18.484375 110.609375 19.296875 110.496094 20.417969 L 110.320312 22.140625 C 112.199219 22.390625 114.351562 23.285156 114.515625 26.078125 C 114.808594 31.078125 96.929688 192.472656 96.929688 192.472656 C 96.929688 192.472656 95.328125 193.207031 92.957031 193.597656 L 92.5625 197.511719 C 92.449219 198.628906 93.265625 199.628906 94.386719 199.742188 L 97.96875 200.105469 C 99.085938 200.21875 100.085938 199.402344 100.199219 198.285156 L 118.128906 21.191406 C 118.242188 20.070312 117.429688 19.070312 116.3125 18.957031 " fill-opacity="1" fill-rule="nonzero"/></g><path fill="rgb(59.21936%, 72.158813%, 76.078796%)" d="M 93.03125 269.734375 C 91.253906 271.144531 89.375 272.253906 88.859375 272.203125 C 88.339844 272.148438 86.722656 270.683594 85.261719 268.949219 L 69.058594 251.769531 C 67.691406 250.042969 66.695312 246.777344 66.855469 244.511719 L 67.257812 217.59375 C 67.414062 215.332031 69.386719 213.308594 71.644531 213.089844 L 90.964844 211.25 C 93.222656 211.035156 96.84375 211.402344 99.011719 212.066406 L 117.570312 217.742188 C 119.738281 218.410156 121.265625 220.789062 120.960938 223.035156 L 115.964844 249.488281 C 115.667969 251.738281 114.039062 254.738281 112.347656 256.152344 L 93.03125 269.734375 " fill-opacity="1" fill-rule="nonzero"/><path fill="rgb(48.239136%, 61.178589%, 64.709473%)" d="M 115.964844 249.488281 L 120.960938 223.035156 C 121.265625 220.789062 119.738281 218.410156 117.570312 217.742188 L 99.011719 212.066406 C 98.082031 211.78125 96.882812 211.554688 95.644531 211.398438 L 96.945312 213.246094 C 96.945312 213.246094 109.421875 224.308594 108.453125 233.859375 C 107.488281 243.414062 99.488281 261.761719 89.410156 266.734375 C 89.410156 266.734375 73.714844 250.667969 71.679688 246.21875 C 70.484375 243.601562 68.621094 238.546875 67 234.792969 L 66.855469 244.511719 C 66.695312 246.777344 67.691406 250.042969 69.058594 251.769531 L 85.261719 268.949219 C 86.722656 270.683594 88.339844 272.148438 88.859375 272.203125 C 89.375 272.253906 91.253906 271.144531 93.03125 269.734375 L 112.347656 256.152344 C 114.039062 254.738281 115.667969 251.738281 115.964844 249.488281 " fill-opacity="1" fill-rule="nonzero"/><path fill="rgb(36.468506%, 45.878601%, 49.01886%)" d="M 99.730469 212.289062 L 99.011719 212.066406 C 97.066406 211.472656 93.949219 211.117188 91.699219 211.203125 L 91.03125 220.820312 C 90.878906 223.085938 92.359375 225.097656 94.328125 225.296875 L 94.367188 225.304688 C 96.335938 225.5 98.195312 223.824219 98.492188 221.578125 L 99.730469 212.289062 " fill-opacity="1" fill-rule="nonzero"/><path fill="rgb(64.709473%, 77.648926%, 79.998779%)" d="M 92.027344 196.222656 L 92.019531 196.265625 L 90.375 219.988281 C 90.21875 222.25 91.703125 224.265625 93.671875 224.464844 L 93.710938 224.46875 C 95.679688 224.667969 97.539062 222.992188 97.835938 220.746094 L 100.980469 197.175781 L 100.984375 197.125 L 92.027344 196.222656 " fill-opacity="1" fill-rule="nonzero"/><path fill="rgb(66.268921%, 77.648926%, 80.389404%)" d="M 87.015625 260.789062 C 87.015625 260.789062 74.644531 248.714844 74.3125 247.660156 C 73.980469 246.597656 72.59375 222.765625 73.753906 219.960938 C 74.773438 217.496094 81.859375 216.25 84.9375 216.25 C 85.367188 216.25 85.71875 216.273438 85.964844 216.320312 C 87.96875 216.722656 85.109375 257.964844 87.015625 260.789062 " fill-opacity="1" fill-rule="nonzero"/><path fill="rgb(52.938843%, 65.879822%, 68.629456%)" d="M 94.203125 224.476562 C 95.324219 219.171875 96.847656 207.898438 96.460938 204.417969 C 96.195312 202.003906 93.867188 200.421875 91.800781 199.480469 L 92.019531 196.265625 L 92.027344 196.222656 L 100.984375 197.125 L 100.980469 197.175781 L 100.617188 199.898438 L 99.984375 204.636719 L 97.835938 220.746094 C 97.558594 222.804688 95.980469 224.378906 94.203125 224.476562 " fill-opacity="1" fill-rule="nonzero"/><path fill="rgb(37.249756%, 48.629761%, 52.159119%)" d="M 117.570312 217.746094 L 116.25 217.339844 C 114.867188 224.207031 109.5 250.191406 106.648438 254.589844 C 103.925781 258.789062 93.605469 267.828125 86.382812 270.195312 C 87.46875 271.335938 88.472656 272.160156 88.859375 272.203125 C 89.375 272.253906 91.253906 271.144531 93.03125 269.734375 L 112.347656 256.152344 C 114.039062 254.738281 115.667969 251.738281 115.964844 249.488281 L 120.960938 223.035156 C 121.265625 220.789062 119.738281 218.410156 117.570312 217.746094 " fill-opacity="1" fill-rule="nonzero"/></svg>