<svg width="384" height="120" viewBox="0 0 384 120" fill="none" xmlns="http://www.w3.org/2000/svg">
<rect width="384" height="120" fill="#2B2B2B"/>
<g clip-path="url(#clip0_2_20)">
<path d="M225.174 49.5774C223.591 46.6026 221.225 44.1162 218.333 42.3861C215.441 40.656 212.132 39.7476 208.761 39.7589H156.776C156.424 39.7618 156.081 39.8685 155.789 40.0656C155.497 40.2626 155.27 40.5413 155.135 40.8668C155.001 41.1923 154.966 41.5502 155.033 41.8958C155.101 42.2413 155.27 42.5592 155.517 42.8097L166.844 54.2038C167.34 54.7013 167.928 55.0961 168.577 55.3655C169.225 55.6348 169.92 55.7734 170.622 55.7733H207.271C208.525 55.7608 209.732 56.2468 210.627 57.1244C211.522 58.002 212.032 59.1993 212.045 60.4529C212.057 61.7065 211.571 62.9137 210.694 63.809C209.816 64.7043 208.619 65.2143 207.365 65.2268H182.101C181.749 65.2291 181.405 65.3354 181.113 65.5322C180.82 65.729 180.593 66.0077 180.458 66.3333C180.323 66.659 180.287 67.0171 180.355 67.3629C180.423 67.7087 180.591 68.0269 180.839 68.2776L192.169 79.6747C192.664 80.1725 193.253 80.5675 193.901 80.8368C194.55 81.1062 195.245 81.2446 195.947 81.2442H207.374C222.239 81.2442 233.484 65.3515 225.174 49.5713" fill="#FF2F0A"/>
</g>
<defs>
<clipPath id="clip0_2_20">
<rect width="73" height="73" fill="white" transform="translate(155 24)"/>
</clipPath>
</defs>
</svg>
