<?xml version="1.0" encoding="UTF-8"?><svg xmlns="http://www.w3.org/2000/svg" xmlns:xlink="http://www.w3.org/1999/xlink" width="375pt" zoomAndPan="magnify" viewBox="0 0 375 374.999991" height="374.999991pt" preserveAspectRatio="xMidYMid meet" version="1.2"><defs><g/><clipPath xml:id="clip1" id="clip1"><path d="M 82.96875 66.054688 L 153 66.054688 L 153 136 L 82.96875 136 Z M 82.96875 66.054688 "/></clipPath><clipPath xml:id="clip2" id="clip2"><path d="M 222 66.054688 L 292.21875 66.054688 L 292.21875 136 L 222 136 Z M 222 66.054688 "/></clipPath><clipPath xml:id="clip3" id="clip3"><path d="M 222 205 L 292.21875 205 L 292.21875 275.304688 L 222 275.304688 Z M 222 205 "/></clipPath><clipPath xml:id="clip4" id="clip4"><path d="M 82.96875 205 L 153 205 L 153 275.304688 L 82.96875 275.304688 Z M 82.96875 205 "/></clipPath></defs><g xml:id="surface1" id="surface1"><g clip-rule="nonzero" clip-path="url(#clip1)"><path style=" stroke:none;fill-rule:nonzero;fill:rgb(50.979614%,16.468811%,100%);fill-opacity:1;" d="M 82.96875 135.804688 L 91.6875 135.804688 L 91.6875 74.773438 L 152.71875 74.773438 L 152.71875 66.054688 L 82.96875 66.054688 Z M 82.96875 135.804688 "/></g><g clip-rule="nonzero" clip-path="url(#clip2)"><path style=" stroke:none;fill-rule:nonzero;fill:rgb(50.979614%,16.468811%,100%);fill-opacity:1;" d="M 222.46875 74.773438 L 283.5 74.773438 L 283.5 135.804688 L 292.21875 135.804688 L 292.21875 66.054688 L 222.46875 66.054688 Z M 222.46875 74.773438 "/></g><g clip-rule="nonzero" clip-path="url(#clip3)"><path style=" stroke:none;fill-rule:nonzero;fill:rgb(50.979614%,16.468811%,100%);fill-opacity:1;" d="M 283.5 266.585938 L 222.46875 266.585938 L 222.46875 275.304688 L 292.21875 275.304688 L 292.21875 205.554688 L 283.5 205.554688 Z M 283.5 266.585938 "/></g><g clip-rule="nonzero" clip-path="url(#clip4)"><path style=" stroke:none;fill-rule:nonzero;fill:rgb(50.979614%,16.468811%,100%);fill-opacity:1;" d="M 82.96875 275.304688 L 152.71875 275.304688 L 152.71875 266.585938 L 91.6875 266.585938 L 91.6875 205.554688 L 82.96875 205.554688 Z M 82.96875 275.304688 "/></g><g style="fill:rgb(50.979614%,16.468811%,100%);fill-opacity:1;"><g transform="translate(115.738502, 197.583949)"><path style="stroke:none;" d="M 22.464844 33.695312 C 22.878906 34.109375 23.503906 34.316406 24.023438 34.316406 C 24.4375 34.316406 24.75 34.214844 24.957031 34.109375 C 26 33.382812 26.101562 32.445312 25.789062 25.375 C 25.582031 21.632812 25.375 10.816406 25.375 1.457031 C 25.375 -15.390625 25.375 -15.496094 26.101562 -15.496094 C 27.765625 -15.496094 30.160156 -13.414062 31.40625 -10.816406 C 32.550781 -8.632812 33.277344 -6.34375 35.253906 1.039062 C 38.0625 11.4375 40.039062 16.121094 43.261719 19.550781 C 45.652344 22.046875 47.316406 22.878906 50.75 22.878906 C 53.765625 22.773438 55.742188 21.734375 58.859375 18.71875 C 62.085938 15.703125 64.164062 12.6875 68.742188 4.886719 C 72.589844 -1.664062 78.621094 -11.023438 80.492188 -13.414062 C 82.15625 -15.390625 81.949219 -17.367188 79.972656 -17.992188 C 79.765625 -17.992188 79.660156 -18.09375 79.453125 -18.09375 C 78.101562 -18.09375 76.851562 -16.429688 72.796875 -10.398438 C 70.300781 -6.65625 66.660156 -0.832031 64.683594 2.601562 C 60.421875 9.878906 58.757812 12.269531 56.261719 14.976562 C 54.078125 17.160156 52.101562 18.304688 50.230469 18.304688 C 48.667969 18.304688 47.214844 17.367188 45.964844 15.597656 C 43.574219 12.269531 42.015625 8.214844 39.519531 -1.457031 C 36.917969 -10.917969 35.566406 -14.039062 32.550781 -17.160156 L 31.09375 -18.71875 L 34.007812 -20.800781 C 37.957031 -23.503906 44.925781 -29.949219 48.773438 -34.421875 C 62.5 -49.8125 66.867188 -60.523438 61.667969 -65.515625 C 60.109375 -67.078125 57.820312 -67.804688 55.117188 -67.804688 C 46.695312 -67.804688 35.460938 -60.628906 29.117188 -55.535156 C 27.664062 -54.285156 26.414062 -53.347656 26.414062 -53.558594 C 26.414062 -53.660156 26.621094 -56.46875 26.933594 -59.796875 C 27.144531 -63.125 27.453125 -65.933594 27.453125 -66.035156 C 27.453125 -66.246094 27.871094 -66.558594 28.390625 -66.660156 C 29.535156 -67.078125 29.949219 -68.117188 29.636719 -69.363281 C 29.535156 -69.78125 29.222656 -71.652344 29.117188 -73.421875 C 28.910156 -75.707031 28.703125 -76.851562 28.285156 -77.269531 C 27.976562 -77.582031 27.351562 -77.789062 26.726562 -77.789062 C 26.101562 -77.789062 25.480469 -77.582031 25.0625 -77.164062 C 24.125 -75.917969 22.464844 -64.269531 21.734375 -53.660156 L 21.421875 -48.566406 L 19.863281 -46.695312 C 12.480469 -38.167969 3.640625 -24.957031 3.640625 -13.207031 C 3.640625 -9.984375 4.054688 -8.421875 5.40625 -6.96875 C 6.34375 -5.824219 7.800781 -5.304688 9.046875 -5.304688 C 10.191406 -5.304688 11.128906 -5.71875 11.648438 -6.550781 C 12.0625 -7.28125 12.0625 -7.488281 11.542969 -8.214844 C 11.230469 -8.734375 10.609375 -9.152344 10.085938 -9.359375 C 8.320312 -9.671875 8.214844 -9.878906 8.113281 -12.792969 C 7.800781 -19.34375 12.582031 -30.160156 19.550781 -39.101562 L 21.109375 -41.078125 L 20.902344 -30.367188 C 20.382812 -6.65625 20.695312 27.664062 21.632812 31.925781 C 21.734375 32.445312 22.046875 33.277344 22.464844 33.695312 Z M 27.039062 -21.734375 L 25.375 -20.800781 L 25.375 -22.046875 C 25.375 -22.773438 25.582031 -28.496094 25.789062 -34.839844 L 26.101562 -46.382812 L 27.039062 -47.316406 C 27.453125 -47.941406 29.328125 -49.5 31.09375 -50.957031 C 39.933594 -58.339844 49.085938 -63.019531 55.011719 -63.019531 C 57.300781 -63.019531 57.613281 -62.917969 58.445312 -62.085938 C 59.171875 -61.355469 59.277344 -61.046875 59.070312 -59.484375 C 58.132812 -49.605469 36.8125 -26.621094 27.039062 -21.734375 Z M 27.039062 -21.734375 "/></g></g><g style="fill:rgb(50.979614%,16.468811%,100%);fill-opacity:1;"><g transform="translate(194.668501, 197.583949)"><path style="stroke:none;" d="M 9.566406 47.421875 C 9.878906 47.734375 10.398438 47.941406 10.917969 47.941406 C 11.542969 47.941406 12.0625 47.734375 12.480469 47.316406 C 13 46.695312 13 46.484375 12.6875 44.09375 C 12.0625 40.246094 11.855469 28.496094 12.269531 18.925781 C 12.6875 9.046875 13.207031 0.105469 13.519531 -2.496094 L 13.726562 -4.367188 L 14.351562 -3.015625 C 15.496094 -0.832031 17.78125 4.679688 19.96875 10.710938 C 24.4375 22.773438 27.144531 27.039062 31.613281 29.015625 C 32.65625 29.535156 33.796875 29.742188 34.839844 29.742188 C 38.476562 29.742188 42.117188 27.039062 45.757812 21.734375 C 46.695312 20.277344 49.292969 15.910156 51.476562 11.960938 C 60.941406 -4.992188 64.683594 -11.335938 66.140625 -13.101562 C 66.765625 -13.726562 67.179688 -14.664062 67.179688 -15.078125 C 67.179688 -16.328125 65.933594 -17.574219 64.789062 -17.574219 C 62.8125 -17.574219 61.667969 -15.808594 48.980469 6.863281 C 43.15625 17.261719 42.117188 19.03125 40.140625 21.527344 C 38.375 23.816406 36.503906 24.957031 34.839844 24.957031 C 33.070312 24.957031 31.40625 23.816406 29.847656 21.421875 C 28.285156 19.03125 27.144531 16.535156 23.917969 7.902344 C 20.902344 -0.207031 18.511719 -5.40625 15.910156 -9.777344 L 14.246094 -12.582031 L 14.976562 -22.566406 L 18.71875 -26.832031 C 27.453125 -36.710938 34.421875 -47.214844 40.558594 -59.691406 C 45.132812 -69.15625 48.460938 -78.203125 48.460938 -81.949219 C 48.460938 -83.714844 47.527344 -84.859375 46.277344 -84.859375 C 44.820312 -84.859375 44.09375 -83.925781 44.09375 -81.949219 C 44.09375 -75.8125 34.421875 -55.84375 24.957031 -42.324219 C 22.253906 -38.476562 16.015625 -30.46875 15.808594 -30.679688 C 15.597656 -30.886719 17.886719 -51.476562 18.71875 -56.886719 C 19.34375 -61.148438 21.632812 -72.484375 21.839844 -72.691406 C 21.941406 -72.796875 22.359375 -72.484375 22.878906 -72.070312 C 23.398438 -71.757812 23.816406 -71.546875 24.4375 -71.546875 C 25.789062 -71.964844 26 -72.589844 25.789062 -76.851562 C 25.582031 -81.738281 25.480469 -82.261719 24.648438 -83.09375 C 24.230469 -83.507812 23.710938 -83.714844 23.191406 -83.714844 C 15.496094 -83.714844 11.335938 -35.980469 10.816406 -28.078125 L 10.503906 -25.0625 L 8.113281 -22.566406 C 6.757812 -21.214844 5.511719 -19.65625 5.304688 -19.238281 C 4.574219 -17.992188 5.199219 -16.535156 7.28125 -13.832031 C 8.421875 -12.480469 9.253906 -11.128906 9.253906 -10.917969 C 9.253906 -10.710938 8.945312 -6.03125 8.632812 -0.625 C 7.695312 13.933594 7.28125 23.292969 7.28125 31.300781 C 7.28125 41.492188 7.902344 45.550781 9.566406 47.421875 Z M 9.566406 47.421875 "/></g></g></g></svg>