<?xml version="1.0" encoding="UTF-8"?><svg xmlns="http://www.w3.org/2000/svg" xmlns:xlink="http://www.w3.org/1999/xlink" width="288" zoomAndPan="magnify" viewBox="0 0 288 89.999999" height="89.999999" preserveAspectRatio="xMidYMid meet" version="1.0"><defs><clipPath id="clip-0"><path d="M 110.203125 5.171875 L 177.773438 5.171875 L 177.773438 84.828125 L 110.203125 84.828125 Z M 110.203125 5.171875 " clip-rule="nonzero"/></clipPath></defs><rect x="-28.8" width="345.6" fill="rgb(100%, 100%, 100%)" y="-9" height="107.999999" fill-opacity="1"/><rect x="-28.8" width="345.6" fill="rgb(100%, 100%, 100%)" y="-9" height="107.999999" fill-opacity="1"/><rect x="-28.8" width="345.6" fill="rgb(100%, 100%, 100%)" y="-9" height="107.999999" fill-opacity="1"/><rect x="-28.8" width="345.6" fill="rgb(100%, 100%, 100%)" y="-9" height="107.999999" fill-opacity="1"/><rect x="-28.8" width="345.6" fill="rgb(100%, 100%, 100%)" y="-9" height="107.999999" fill-opacity="1"/><rect x="-28.8" width="345.6" fill="rgb(100%, 34.118652%, 34.118652%)" y="-9" height="107.999999" fill-opacity="1"/><g clip-path="url(#clip-0)"><path fill="rgb(0%, 0%, 0%)" d="M 129.597656 60.789062 C 129.597656 59.597656 129.78125 58.40625 130.070312 57.210938 C 123.605469 56.683594 117.949219 54.753906 112.386719 51.46875 C 112.027344 53.007812 111.988281 54.453125 112.164062 55.886719 C 115.054688 57.519531 117.585938 59.183594 120.949219 59.765625 C 123.8125 60.253906 126.746094 60.320312 129.597656 60.789062 Z M 144.34375 64.589844 C 144.703125 64.355469 145.015625 64.402344 144.765625 63.929688 C 144.5625 63.550781 144.324219 63.609375 143.992188 63.675781 C 143.398438 63.816406 142.605469 64.667969 142.304688 65.167969 C 141.867188 65.902344 141.429688 66.636719 141.015625 67.378906 C 140.59375 68.128906 140.183594 68.894531 139.796875 69.660156 C 140.484375 69.117188 141.160156 68.5625 141.867188 68.050781 C 141.855469 67.949219 141.871094 67.832031 141.917969 67.707031 C 142.238281 66.839844 142.707031 66.03125 143.347656 65.371094 C 143.652344 65.042969 144.03125 64.789062 144.34375 64.589844 Z M 146.300781 17.453125 C 146.710938 16.753906 147.160156 16.023438 147.652344 15.308594 C 142.550781 12.691406 136.695312 10.953125 130.929688 11.320312 C 131.253906 11.613281 131.550781 11.917969 131.820312 12.207031 C 132.441406 12.898438 132.949219 13.558594 133.386719 14.164062 C 134.253906 15.375 134.859375 16.363281 135.316406 17.113281 C 136.222656 18.625 136.519531 19.222656 136.433594 19.289062 C 136.351562 19.351562 135.878906 18.855469 134.859375 17.425781 C 134.339844 16.710938 133.6875 15.757812 132.8125 14.601562 C 132.367188 14.015625 131.863281 13.378906 131.261719 12.734375 C 130.835938 12.285156 130.367188 11.820312 129.820312 11.414062 C 129.765625 11.417969 129.707031 11.421875 129.648438 11.433594 C 129.375 11.8125 129.109375 12.214844 128.886719 12.671875 C 128.535156 13.371094 128.175781 14.070312 127.824219 14.769531 C 128.351562 15.414062 128.851562 16.007812 129.292969 16.566406 C 129.828125 17.3125 130.308594 17.980469 130.742188 18.589844 C 131.566406 19.824219 132.183594 20.792969 132.648438 21.546875 C 133.558594 23.058594 133.84375 23.671875 133.753906 23.734375 C 133.660156 23.789062 133.210938 23.289062 132.183594 21.859375 C 131.675781 21.140625 131.007812 20.207031 130.152344 19.003906 C 129.710938 18.417969 129.230469 17.765625 128.6875 17.039062 C 128.304688 16.5625 127.882812 16.0625 127.4375 15.539062 C 126.820312 16.753906 126.203125 17.972656 125.574219 19.1875 C 126.605469 20.640625 127.566406 21.8125 128.320312 22.839844 C 129.148438 23.976562 129.761719 24.898438 130.152344 25.648438 C 130.347656 26.023438 130.519531 26.339844 130.636719 26.613281 C 130.746094 26.890625 130.828125 27.109375 130.894531 27.289062 C 131.011719 27.644531 131.03125 27.804688 130.976562 27.828125 C 130.933594 27.851562 130.8125 27.730469 130.617188 27.417969 C 130.511719 27.269531 130.390625 27.070312 130.25 26.820312 C 130.101562 26.570312 129.898438 26.285156 129.683594 25.933594 C 129.234375 25.242188 128.605469 24.375 127.75 23.285156 C 127.039062 22.367188 126.140625 21.300781 125.171875 19.96875 C 124.625 21.039062 124.074219 22.097656 123.519531 23.164062 C 125.855469 27.859375 127.710938 30.8125 128.792969 32.707031 C 129.984375 34.652344 130.375 35.433594 130.289062 35.5 C 130.203125 35.554688 129.644531 34.886719 128.328125 33.003906 C 127.164062 31.246094 125.324219 28.457031 123.074219 24.023438 C 122.292969 25.519531 121.511719 27.019531 120.730469 28.519531 C 121.386719 29.386719 121.988281 30.195312 122.546875 30.941406 C 123.210938 31.871094 123.804688 32.707031 124.347656 33.460938 C 124.878906 34.222656 125.316406 34.929688 125.710938 35.539062 C 126.105469 36.164062 126.46875 36.6875 126.722656 37.179688 C 127.789062 39.121094 128.132812 39.890625 128.042969 39.941406 C 127.765625 40.09375 126.445312 37.25 120.351562 29.289062 C 119.542969 30.898438 118.878906 32.535156 118.292969 34.1875 C 118.65625 34.734375 118.996094 35.242188 119.296875 35.734375 C 119.636719 36.390625 119.945312 36.980469 120.226562 37.503906 C 120.480469 38.050781 120.65625 38.558594 120.835938 38.996094 C 121 39.441406 121.171875 39.8125 121.242188 40.167969 C 121.589844 41.558594 121.648438 42.089844 121.546875 42.117188 C 121.441406 42.144531 121.1875 41.65625 120.722656 40.347656 C 120.621094 40.015625 120.421875 39.664062 120.234375 39.242188 C 120.035156 38.828125 119.847656 38.347656 119.578125 37.832031 C 119.300781 37.316406 118.980469 36.753906 118.632812 36.125 C 118.433594 35.804688 118.207031 35.464844 117.96875 35.113281 C 117.378906 36.863281 116.839844 38.628906 116.289062 40.40625 C 116.390625 40.664062 116.484375 40.910156 116.574219 41.140625 C 116.757812 41.570312 116.925781 41.957031 117.078125 42.300781 C 117.378906 43 117.617188 43.550781 117.761719 43.988281 C 118.058594 44.863281 118.097656 45.21875 117.996094 45.253906 C 117.894531 45.300781 117.671875 45.015625 117.257812 44.210938 C 117.050781 43.8125 116.757812 43.292969 116.425781 42.609375 C 116.273438 42.296875 116.109375 41.945312 115.929688 41.570312 C 115.664062 42.390625 115.394531 43.210938 115.113281 44.03125 C 114.335938 46.253906 113.242188 48.410156 112.59375 50.679688 C 118.152344 53.996094 123.785156 55.945312 130.273438 56.445312 C 131.125 53.433594 132.585938 50.464844 133.519531 47.675781 C 135.25 42.539062 137.058594 37.425781 139.269531 32.480469 C 141.503906 27.484375 143.527344 22.179688 146.300781 17.453125 Z M 151.226562 81.195312 C 151.375 80.890625 151.519531 80.585938 151.660156 80.273438 C 146.609375 82.296875 140.667969 81.636719 136.0625 78.449219 C 130.652344 74.703125 130.339844 68.289062 129.238281 62.316406 C 125.792969 61.742188 122.253906 61.800781 118.828125 60.914062 C 116.5 60.308594 114.550781 59.105469 112.53125 57.910156 C 112.707031 58.65625 112.921875 59.398438 113.164062 60.164062 C 114.761719 65.324219 117.148438 69.945312 121.355469 73.429688 C 125.449219 76.804688 130.179688 78.773438 135.164062 80.410156 C 140.234375 82.074219 145.8125 83.539062 150.929688 81.261719 C 151.027344 81.222656 151.128906 81.203125 151.226562 81.195312 Z M 152.230469 79 C 152.335938 78.761719 152.433594 78.535156 152.539062 78.296875 C 147.390625 79.707031 142.625 80.175781 137.9375 76.84375 C 134.035156 74.070312 131.992188 69.402344 131.707031 64.714844 C 131.355469 64.761719 130.96875 64.6875 130.539062 64.503906 C 131.289062 69.414062 132.066406 74.882812 136.539062 77.644531 C 141.402344 80.636719 147.097656 81.496094 152.230469 79 Z M 151.375 19.625 C 152.679688 17.128906 154.5625 13.691406 152.773438 12.347656 C 149.496094 14 147.421875 18.390625 145.972656 21.453125 C 144.128906 25.355469 142.335938 29.316406 140.613281 33.269531 C 138.503906 38.121094 136.714844 43.082031 135.019531 48.085938 C 134.269531 50.308594 133.535156 52.539062 132.703125 54.722656 C 131.777344 57.121094 130.8125 59.402344 131.214844 62.039062 C 131.230469 62.152344 131.226562 62.253906 131.203125 62.351562 C 131.265625 62.582031 131.332031 62.8125 131.390625 63.042969 C 132.835938 62.34375 135.898438 52.691406 136.355469 51.746094 C 138.820312 46.636719 142.097656 42.160156 144.082031 36.792969 C 145.980469 31.621094 148.679688 26.742188 150.472656 21.53125 C 150.613281 21.140625 150.855469 20.628906 151.152344 20.050781 C 151.171875 19.882812 151.257812 19.730469 151.375 19.625 Z M 153.328125 76.457031 C 153.925781 75.089844 154.570312 73.738281 155.355469 72.449219 C 151.351562 71.152344 147.167969 70.476562 143.234375 68.949219 C 143.191406 69.007812 143.132812 69.0625 143.0625 69.113281 C 141.753906 69.988281 140.632812 71.210938 139.257812 71.964844 C 138.226562 72.539062 137.175781 72.789062 136.0625 72.824219 C 136.929688 74.015625 137.980469 75.050781 139.246094 75.859375 C 143.839844 78.792969 148.269531 77.921875 153.195312 76.480469 C 153.242188 76.472656 153.289062 76.460938 153.328125 76.457031 Z M 153.265625 10.417969 C 153.78125 10.160156 154.296875 9.953125 154.796875 9.789062 C 150.457031 8.402344 146.0625 7.066406 141.457031 7.304688 C 137.574219 7.503906 133.148438 7.765625 130.375 10.578125 C 136.5 10.082031 142.679688 11.867188 148.109375 14.664062 C 149.429688 12.859375 151.042969 11.242188 153.105469 10.515625 C 153.117188 10.511719 153.121094 10.511719 153.125 10.511719 C 153.167969 10.476562 153.214844 10.449219 153.265625 10.417969 Z M 153.917969 30.28125 C 153.910156 28.355469 153.828125 26.386719 152.992188 24.625 C 152.597656 23.78125 152.171875 22.960938 151.808594 22.117188 C 150.957031 24.148438 150.21875 26.242188 149.292969 28.238281 C 147.667969 31.730469 146.371094 35.296875 144.953125 38.875 C 143.691406 42.035156 142.035156 44.820312 140.3125 47.734375 C 138.230469 51.230469 136.859375 54.824219 135.378906 58.59375 C 134.878906 59.863281 134.320312 62.410156 133.203125 63.789062 C 133.21875 63.855469 133.226562 63.917969 133.230469 63.996094 C 133.289062 66.476562 133.898438 69.023438 135.082031 71.238281 C 135.910156 71.292969 136.695312 71.246094 137.4375 71.03125 C 138.183594 69.308594 139.042969 67.648438 139.988281 66.027344 C 140.585938 65 141.226562 63.355469 142.257812 62.667969 C 143.195312 62.03125 144.550781 61.921875 145.40625 62.464844 C 147.179688 59.277344 149.742188 56.578125 151.199219 53.164062 C 152.992188 48.96875 154.445312 44.242188 154.679688 39.644531 C 154.082031 39.402344 153.488281 39.128906 152.921875 38.789062 C 152.644531 38.621094 152.539062 38.367188 152.550781 38.117188 C 152.535156 38.042969 152.523438 37.949219 152.535156 37.851562 C 152.777344 35.894531 152.804688 33.90625 152.480469 31.957031 C 152.429688 31.664062 152.527344 31.425781 152.6875 31.253906 C 152.738281 31.144531 152.808594 31.039062 152.90625 30.964844 C 153.039062 30.707031 153.289062 30.515625 153.617188 30.535156 C 153.726562 30.457031 153.820312 30.375 153.917969 30.28125 Z M 156.207031 71.085938 C 156.648438 70.410156 157.148438 69.671875 157.71875 69.023438 C 153.539062 67.695312 149.347656 66.246094 144.9375 66.011719 C 144.917969 66.027344 144.898438 66.050781 144.878906 66.066406 C 144.390625 66.425781 144.003906 66.921875 143.722656 67.46875 C 147.773438 69.03125 152.09375 69.695312 156.207031 71.085938 Z M 156.640625 31.308594 C 156.855469 27.175781 155.539062 22.816406 152.996094 19.554688 C 152.960938 19.632812 152.921875 19.695312 152.886719 19.769531 C 152.832031 19.875 152.785156 19.988281 152.726562 20.09375 C 153.253906 21.886719 154.378906 23.421875 154.890625 25.210938 C 155.425781 27.089844 155.476562 29.023438 155.480469 30.964844 C 155.480469 30.976562 155.476562 30.984375 155.476562 31 C 155.863281 31.101562 156.253906 31.203125 156.640625 31.308594 Z M 159.984375 74.320312 C 160.769531 73.230469 163.019531 69.808594 160.929688 68.839844 C 160.625 68.703125 160.269531 68.859375 159.925781 69.113281 C 159.835938 69.269531 159.707031 69.390625 159.53125 69.449219 C 159.246094 69.722656 159 70.003906 158.851562 70.1875 C 155.585938 74.007812 154.382812 78.71875 152.007812 83.023438 C 152.445312 83.0625 152.886719 82.988281 153.3125 82.988281 L 153.316406 82.988281 C 156.351562 80.894531 157.789062 77.339844 159.984375 74.320312 Z M 167.378906 34.109375 C 167.238281 30.28125 165.984375 26.367188 164.179688 23.058594 C 161.925781 18.929688 159.246094 16.664062 154.949219 15.007812 C 154.664062 16.253906 154.035156 17.550781 153.460938 18.652344 C 156.351562 22.171875 157.871094 26.992188 157.5625 31.5625 C 160.824219 32.457031 164.078125 33.390625 167.378906 34.109375 Z M 160.949219 65.167969 C 166.304688 58.292969 168.101562 50.46875 169.148438 41.976562 C 166.480469 41.535156 163.855469 41.199219 161.097656 40.945312 C 160.027344 40.847656 158.960938 40.726562 157.914062 40.539062 C 157.65625 46.398438 155.332031 51.835938 152.914062 57.097656 C 152.210938 58.628906 151.476562 60.121094 150.691406 61.613281 C 149.832031 63.253906 152.03125 63.371094 153.292969 63.664062 C 155.828125 64.253906 158.417969 64.546875 160.949219 65.167969 Z M 168.324219 34.3125 C 168.507812 34.347656 168.691406 34.382812 168.875 34.417969 C 168.460938 26.585938 165.15625 15.132812 156.1875 14.503906 C 160.113281 16.183594 162.910156 18.539062 164.992188 22.585938 C 166.839844 26.199219 168.222656 30.21875 168.324219 34.3125 Z M 170.625 42.230469 C 170.433594 42.199219 170.25 42.164062 170.0625 42.136719 C 168.96875 50.941406 167.074219 58.964844 161.4375 66.070312 C 161.253906 66.296875 161.011719 66.257812 160.84375 66.101562 C 160.835938 66.101562 160.824219 66.105469 160.808594 66.101562 C 156.976562 65.144531 152.917969 65.039062 149.355469 63.175781 C 149.117188 63.050781 149.085938 62.757812 149.191406 62.539062 C 152.519531 55.464844 156.695312 48.371094 156.984375 40.347656 C 156.722656 40.292969 156.460938 40.21875 156.195312 40.152344 C 155.902344 44.523438 154.589844 48.929688 152.972656 52.949219 C 151.289062 57.144531 148.089844 60.3125 146.203125 64.324219 C 146.191406 64.402344 146.171875 64.476562 146.144531 64.539062 C 150.59375 64.976562 154.832031 66.488281 159.089844 67.816406 C 159.621094 67.472656 160.207031 67.246094 160.839844 67.230469 C 161.207031 67.21875 161.519531 67.296875 161.789062 67.4375 C 166.382812 60.128906 170.421875 50.945312 170.625 42.230469 Z M 172.804688 33.085938 C 172.800781 33.050781 172.789062 33.015625 172.789062 32.964844 C 172.804688 27.519531 170.191406 21.929688 167.042969 17.605469 C 164.117188 13.597656 159.5625 9.269531 154.371094 11.625 C 154.714844 12.003906 154.921875 12.445312 155.027344 12.914062 C 165.941406 12.511719 170.046875 25.6875 170.449219 34.703125 C 170.457031 34.703125 170.464844 34.703125 170.46875 34.703125 C 171.214844 34.125 171.992188 33.570312 172.804688 33.085938 Z M 173.203125 42.25 C 173.019531 42.3125 172.832031 42.375 172.65625 42.441406 C 172.46875 42.511719 172.308594 42.503906 172.171875 42.453125 C 171.894531 51.554688 167.644531 61.179688 162.832031 68.734375 C 162.984375 69.148438 163.074219 69.621094 163.109375 70.105469 C 166.152344 66.195312 168.210938 61.515625 169.917969 56.886719 C 171.664062 52.160156 173 47.300781 173.203125 42.25 Z M 176.085938 39.695312 C 176.105469 37.660156 176.203125 35.636719 176.023438 33.609375 C 175.875 33.566406 175.734375 33.523438 175.597656 33.464844 C 174.015625 34.027344 172.570312 35.015625 171.265625 36.054688 C 171.066406 36.207031 170.84375 36.253906 170.632812 36.226562 C 170.515625 36.261719 170.390625 36.277344 170.246094 36.25 C 164.75 35.367188 159.46875 33.636719 154.089844 32.253906 C 154.320312 34.050781 154.328125 35.855469 154.113281 37.65625 C 156.964844 39.203125 160.273438 39.332031 163.445312 39.542969 C 166.472656 39.753906 169.253906 40.378906 172.21875 40.925781 C 172.226562 40.929688 172.230469 40.929688 172.230469 40.929688 C 172.234375 40.929688 172.234375 40.929688 172.238281 40.925781 C 173.5 40.460938 174.808594 40.101562 176.085938 39.695312 Z M 177.554688 33.316406 C 177.792969 35.578125 177.652344 37.84375 177.644531 40.113281 C 177.636719 40.503906 177.410156 40.738281 177.125 40.828125 C 177.046875 40.964844 176.910156 41.070312 176.726562 41.132812 C 176.074219 41.34375 175.421875 41.546875 174.773438 41.738281 C 174.625 47.691406 173.003906 53.523438 170.757812 58.996094 C 168.707031 64.011719 166.464844 68.890625 162.78125 72.914062 C 162.761719 72.933594 162.742188 72.953125 162.714844 72.972656 C 162.667969 73.082031 162.621094 73.1875 162.5625 73.277344 C 161.3125 75.425781 159.855469 77.546875 158.492188 79.621094 C 157.230469 81.542969 155.816406 83.167969 153.96875 84.535156 C 153.746094 84.707031 153.527344 84.714844 153.339844 84.640625 C 153.328125 84.640625 153.324219 84.644531 153.3125 84.644531 C 151.875 84.730469 150.214844 84.570312 149.027344 83.667969 C 148.976562 83.636719 148.9375 83.589844 148.898438 83.550781 C 144.488281 84.558594 139.894531 83.609375 135.558594 82.1875 C 130.597656 80.5625 125.664062 78.789062 121.496094 75.535156 C 116.800781 71.863281 113.699219 67.167969 111.929688 61.460938 C 111.03125 58.558594 110.191406 55.792969 110.546875 52.726562 C 110.851562 50.121094 112.09375 47.761719 112.992188 45.335938 C 115.277344 39.15625 116.664062 32.960938 119.71875 27.085938 C 121.425781 23.8125 123.136719 20.542969 124.816406 17.261719 C 126.054688 14.847656 127.054688 11.859375 128.914062 9.84375 C 132.015625 6.484375 136.421875 5.992188 140.746094 5.773438 C 146.808594 5.46875 152.316406 7.398438 158.023438 9.160156 C 158.175781 9.210938 158.285156 9.285156 158.371094 9.382812 C 166.855469 10.160156 173.398438 23.175781 174.253906 31.25 C 174.269531 31.25 174.28125 31.25 174.292969 31.253906 C 175.152344 31.527344 175.929688 32.015625 176.8125 32.214844 C 177.1875 32.300781 177.351562 32.574219 177.367188 32.867188 C 177.464844 32.980469 177.535156 33.136719 177.554688 33.316406 " fill-opacity="1" fill-rule="nonzero"/></g></svg>