<?xml version="1.0" encoding="UTF-8"?><svg xmlns="http://www.w3.org/2000/svg" xmlns:xlink="http://www.w3.org/1999/xlink" width="288" zoomAndPan="magnify" viewBox="0 0 288 86.999996" height="86.999996" preserveAspectRatio="xMidYMid meet" version="1.0"><defs><clipPath id="clip-0"><path d="M 111.214844 5 L 176.464844 5 L 176.464844 82 L 111.214844 82 Z M 111.214844 5 " clip-rule="nonzero"/></clipPath></defs><rect x="-28.8" width="345.6" fill="rgb(100%, 100%, 100%)" y="-8.7" height="104.399995" fill-opacity="1"/><rect x="-28.8" width="345.6" fill="rgb(100%, 100%, 100%)" y="-8.7" height="104.399995" fill-opacity="1"/><rect x="-28.8" width="345.6" fill="rgb(100%, 34.118652%, 34.118652%)" y="-8.7" height="104.399995" fill-opacity="1"/><g clip-path="url(#clip-0)"><path fill="rgb(0%, 0%, 0%)" d="M 129.945312 58.761719 C 129.945312 57.609375 130.121094 56.460938 130.402344 55.304688 C 124.15625 54.792969 118.695312 52.929688 113.324219 49.753906 C 112.976562 51.242188 112.941406 52.636719 113.109375 54.023438 C 115.902344 55.601562 118.34375 57.210938 121.59375 57.773438 C 124.359375 58.246094 127.191406 58.308594 129.945312 58.761719 Z M 144.183594 62.4375 C 144.53125 62.210938 144.832031 62.253906 144.589844 61.796875 C 144.394531 61.433594 144.164062 61.488281 143.84375 61.554688 C 143.269531 61.6875 142.503906 62.511719 142.214844 62.996094 C 141.792969 63.707031 141.371094 64.414062 140.96875 65.132812 C 140.5625 65.859375 140.167969 66.597656 139.792969 67.339844 C 140.457031 66.8125 141.109375 66.277344 141.792969 65.78125 C 141.78125 65.683594 141.796875 65.570312 141.839844 65.449219 C 142.152344 64.613281 142.601562 63.832031 143.222656 63.191406 C 143.515625 62.875 143.882812 62.628906 144.183594 62.4375 Z M 146.074219 16.871094 C 146.46875 16.195312 146.902344 15.488281 147.378906 14.796875 C 142.453125 12.269531 136.796875 10.589844 131.230469 10.941406 C 131.542969 11.226562 131.832031 11.519531 132.089844 11.800781 C 132.691406 12.46875 133.179688 13.105469 133.601562 13.691406 C 134.441406 14.863281 135.023438 15.816406 135.464844 16.542969 C 136.339844 18.003906 136.628906 18.582031 136.546875 18.644531 C 136.464844 18.707031 136.007812 18.226562 135.023438 16.84375 C 134.523438 16.152344 133.894531 15.234375 133.046875 14.113281 C 132.617188 13.546875 132.132812 12.933594 131.550781 12.308594 C 131.140625 11.875 130.6875 11.425781 130.160156 11.035156 C 130.105469 11.039062 130.050781 11.042969 129.992188 11.050781 C 129.730469 11.417969 129.472656 11.808594 129.257812 12.25 C 128.917969 12.925781 128.570312 13.601562 128.230469 14.277344 C 128.742188 14.898438 129.222656 15.472656 129.648438 16.015625 C 130.167969 16.734375 130.628906 17.382812 131.050781 17.96875 C 131.84375 19.164062 132.441406 20.101562 132.890625 20.828125 C 133.769531 22.289062 134.042969 22.882812 133.957031 22.941406 C 133.867188 22.996094 133.433594 22.511719 132.441406 21.128906 C 131.949219 20.4375 131.304688 19.535156 130.480469 18.371094 C 130.054688 17.804688 129.589844 17.171875 129.066406 16.472656 C 128.695312 16.011719 128.289062 15.527344 127.859375 15.019531 C 127.261719 16.195312 126.667969 17.375 126.058594 18.546875 C 127.054688 19.953125 127.984375 21.085938 128.710938 22.078125 C 129.511719 23.175781 130.101562 24.070312 130.480469 24.792969 C 130.667969 25.15625 130.835938 25.460938 130.949219 25.726562 C 131.054688 25.996094 131.132812 26.207031 131.195312 26.378906 C 131.308594 26.722656 131.328125 26.878906 131.277344 26.902344 C 131.234375 26.921875 131.117188 26.804688 130.929688 26.503906 C 130.828125 26.359375 130.710938 26.167969 130.574219 25.925781 C 130.429688 25.683594 130.234375 25.410156 130.027344 25.070312 C 129.59375 24.402344 128.984375 23.5625 128.160156 22.507812 C 127.472656 21.621094 126.605469 20.589844 125.671875 19.304688 C 125.140625 20.335938 124.609375 21.359375 124.074219 22.390625 C 126.332031 26.929688 128.121094 29.785156 129.167969 31.617188 C 130.316406 33.496094 130.695312 34.253906 130.613281 34.316406 C 130.527344 34.371094 129.988281 33.722656 128.71875 31.902344 C 127.59375 30.203125 125.816406 27.507812 123.644531 23.222656 C 122.890625 24.667969 122.136719 26.117188 121.382812 27.570312 C 122.015625 28.40625 122.597656 29.1875 123.136719 29.910156 C 123.777344 30.808594 124.351562 31.617188 124.875 32.34375 C 125.386719 33.082031 125.808594 33.765625 126.191406 34.355469 C 126.570312 34.957031 126.921875 35.464844 127.167969 35.941406 C 128.199219 37.816406 128.53125 38.5625 128.441406 38.609375 C 128.175781 38.757812 126.898438 36.007812 121.015625 28.3125 C 120.234375 29.867188 119.59375 31.449219 119.027344 33.046875 C 119.378906 33.578125 119.707031 34.066406 119.996094 34.542969 C 120.324219 35.175781 120.625 35.746094 120.894531 36.253906 C 121.140625 36.78125 121.308594 37.273438 121.484375 37.695312 C 121.640625 38.125 121.808594 38.484375 121.875 38.828125 C 122.210938 40.171875 122.269531 40.6875 122.171875 40.714844 C 122.066406 40.738281 121.824219 40.269531 121.375 39.003906 C 121.277344 38.683594 121.082031 38.34375 120.902344 37.933594 C 120.710938 37.535156 120.527344 37.070312 120.269531 36.570312 C 120 36.074219 119.691406 35.527344 119.355469 34.921875 C 119.164062 34.609375 118.945312 34.28125 118.714844 33.941406 C 118.144531 35.632812 117.625 37.339844 117.09375 39.058594 C 117.191406 39.308594 117.28125 39.546875 117.367188 39.769531 C 117.546875 40.183594 117.707031 40.558594 117.855469 40.890625 C 118.144531 41.566406 118.375 42.097656 118.515625 42.523438 C 118.800781 43.367188 118.839844 43.710938 118.742188 43.746094 C 118.644531 43.789062 118.429688 43.515625 118.027344 42.738281 C 117.828125 42.351562 117.546875 41.851562 117.226562 41.1875 C 117.078125 40.886719 116.917969 40.546875 116.746094 40.183594 C 116.488281 40.976562 116.230469 41.769531 115.957031 42.5625 C 115.207031 44.710938 114.152344 46.796875 113.523438 48.992188 C 118.890625 52.195312 124.332031 54.082031 130.597656 54.5625 C 131.417969 51.652344 132.828125 48.78125 133.730469 46.085938 C 135.402344 41.121094 137.148438 36.179688 139.285156 31.398438 C 141.441406 26.566406 143.394531 21.441406 146.074219 16.871094 Z M 150.828125 78.488281 C 150.972656 78.195312 151.113281 77.898438 151.25 77.597656 C 146.371094 79.554688 140.632812 78.914062 136.1875 75.835938 C 130.960938 72.214844 130.660156 66.011719 129.597656 60.238281 C 126.269531 59.683594 122.851562 59.742188 119.542969 58.882812 C 117.296875 58.296875 115.414062 57.136719 113.464844 55.980469 C 113.632812 56.699219 113.839844 57.417969 114.074219 58.160156 C 115.617188 63.148438 117.921875 67.613281 121.984375 70.980469 C 125.9375 74.246094 130.507812 76.148438 135.320312 77.730469 C 140.214844 79.339844 145.601562 80.753906 150.542969 78.554688 C 150.636719 78.515625 150.734375 78.496094 150.828125 78.488281 Z M 151.800781 76.367188 C 151.902344 76.136719 151.996094 75.917969 152.097656 75.6875 C 147.125 77.050781 142.523438 77.503906 137.996094 74.28125 C 134.230469 71.601562 132.257812 67.089844 131.980469 62.558594 C 131.640625 62.601562 131.269531 62.53125 130.851562 62.355469 C 131.578125 67.101562 132.328125 72.386719 136.648438 75.054688 C 141.34375 77.949219 146.84375 78.78125 151.800781 76.367188 Z M 150.972656 18.972656 C 152.234375 16.558594 154.050781 13.234375 152.324219 11.9375 C 149.160156 13.535156 147.15625 17.777344 145.757812 20.738281 C 143.976562 24.511719 142.246094 28.339844 140.582031 32.160156 C 138.542969 36.851562 136.816406 41.644531 135.179688 46.484375 C 134.457031 48.632812 133.746094 50.789062 132.941406 52.898438 C 132.050781 55.21875 131.117188 57.421875 131.503906 59.972656 C 131.519531 60.082031 131.515625 60.179688 131.496094 60.273438 C 131.554688 60.496094 131.617188 60.71875 131.675781 60.941406 C 133.070312 60.265625 136.027344 50.933594 136.46875 50.019531 C 138.851562 45.082031 142.015625 40.753906 143.929688 35.566406 C 145.765625 30.566406 148.371094 25.851562 150.101562 20.8125 C 150.238281 20.4375 150.472656 19.941406 150.757812 19.382812 C 150.777344 19.21875 150.859375 19.074219 150.972656 18.972656 Z M 152.859375 73.910156 C 153.4375 72.585938 154.058594 71.28125 154.816406 70.035156 C 150.949219 68.78125 146.910156 68.128906 143.113281 66.652344 C 143.070312 66.707031 143.015625 66.761719 142.945312 66.808594 C 141.683594 67.65625 140.601562 68.835938 139.273438 69.566406 C 138.277344 70.121094 137.261719 70.363281 136.1875 70.398438 C 137.023438 71.546875 138.039062 72.550781 139.261719 73.332031 C 143.695312 76.167969 147.972656 75.324219 152.730469 73.929688 C 152.777344 73.921875 152.820312 73.914062 152.859375 73.910156 Z M 152.800781 10.070312 C 153.296875 9.820312 153.792969 9.621094 154.277344 9.460938 C 150.085938 8.121094 145.84375 6.832031 141.394531 7.0625 C 137.648438 7.253906 133.371094 7.507812 130.695312 10.226562 C 136.609375 9.746094 142.578125 11.472656 147.820312 14.175781 C 149.09375 12.429688 150.652344 10.867188 152.644531 10.164062 C 152.65625 10.160156 152.660156 10.160156 152.664062 10.160156 C 152.703125 10.128906 152.75 10.101562 152.800781 10.070312 Z M 153.429688 29.273438 C 153.421875 27.410156 153.34375 25.507812 152.535156 23.804688 C 152.152344 22.988281 151.742188 22.195312 151.390625 21.378906 C 150.570312 23.34375 149.855469 25.367188 148.960938 27.296875 C 147.394531 30.671875 146.140625 34.121094 144.773438 37.578125 C 143.554688 40.632812 141.953125 43.328125 140.289062 46.144531 C 138.28125 49.523438 136.957031 52.996094 135.527344 56.640625 C 135.042969 57.867188 134.503906 60.328125 133.425781 61.664062 C 133.441406 61.726562 133.449219 61.789062 133.453125 61.863281 C 133.507812 64.261719 134.097656 66.722656 135.238281 68.863281 C 136.039062 68.917969 136.796875 68.871094 137.515625 68.664062 C 138.234375 67 139.066406 65.394531 139.976562 63.828125 C 140.554688 62.832031 141.171875 61.242188 142.167969 60.578125 C 143.074219 59.964844 144.382812 59.859375 145.210938 60.382812 C 146.921875 57.300781 149.398438 54.691406 150.804688 51.390625 C 152.535156 47.335938 153.9375 42.765625 154.164062 38.324219 C 153.585938 38.089844 153.015625 37.824219 152.46875 37.496094 C 152.199219 37.332031 152.097656 37.089844 152.109375 36.847656 C 152.09375 36.773438 152.082031 36.683594 152.09375 36.589844 C 152.328125 34.699219 152.355469 32.777344 152.039062 30.890625 C 151.992188 30.609375 152.085938 30.378906 152.242188 30.210938 C 152.289062 30.105469 152.359375 30.003906 152.453125 29.933594 C 152.582031 29.683594 152.820312 29.5 153.136719 29.515625 C 153.242188 29.441406 153.335938 29.363281 153.429688 29.273438 Z M 155.640625 68.714844 C 156.066406 68.0625 156.546875 67.347656 157.097656 66.722656 C 153.0625 65.4375 149.015625 64.039062 144.757812 63.8125 C 144.738281 63.828125 144.71875 63.847656 144.699219 63.863281 C 144.230469 64.210938 143.855469 64.691406 143.582031 65.21875 C 147.496094 66.730469 151.667969 67.371094 155.640625 68.714844 Z M 156.058594 30.265625 C 156.265625 26.269531 154.996094 22.054688 152.539062 18.902344 C 152.503906 18.976562 152.46875 19.039062 152.433594 19.109375 C 152.378906 19.210938 152.335938 19.320312 152.277344 19.425781 C 152.789062 21.15625 153.875 22.640625 154.367188 24.371094 C 154.886719 26.1875 154.933594 28.054688 154.9375 29.933594 C 154.9375 29.945312 154.933594 29.953125 154.933594 29.964844 C 155.308594 30.066406 155.683594 30.164062 156.058594 30.265625 Z M 159.285156 71.84375 C 160.046875 70.789062 162.21875 67.480469 160.199219 66.546875 C 159.90625 66.414062 159.5625 66.5625 159.230469 66.808594 C 159.144531 66.960938 159.019531 67.078125 158.847656 67.132812 C 158.574219 67.398438 158.335938 67.671875 158.191406 67.847656 C 155.039062 71.539062 153.878906 76.09375 151.585938 80.257812 C 152.007812 80.292969 152.433594 80.222656 152.84375 80.222656 L 152.847656 80.222656 C 155.777344 78.199219 157.167969 74.761719 159.285156 71.84375 Z M 166.425781 32.972656 C 166.292969 29.273438 165.082031 25.488281 163.339844 22.289062 C 161.160156 18.296875 158.574219 16.109375 154.425781 14.507812 C 154.148438 15.710938 153.542969 16.964844 152.988281 18.03125 C 155.777344 21.433594 157.246094 26.09375 156.949219 30.511719 C 160.097656 31.375 163.238281 32.277344 166.425781 32.972656 Z M 160.21875 62.996094 C 165.390625 56.351562 167.125 48.785156 168.136719 40.578125 C 165.558594 40.152344 163.023438 39.824219 160.363281 39.582031 C 159.328125 39.484375 158.296875 39.367188 157.289062 39.1875 C 157.039062 44.851562 154.792969 50.109375 152.460938 55.195312 C 151.78125 56.675781 151.070312 58.117188 150.3125 59.558594 C 149.484375 61.144531 151.605469 61.257812 152.824219 61.542969 C 155.273438 62.113281 157.773438 62.394531 160.21875 62.996094 Z M 167.339844 33.167969 C 167.515625 33.203125 167.695312 33.238281 167.871094 33.269531 C 167.472656 25.699219 164.28125 14.628906 155.621094 14.019531 C 159.410156 15.644531 162.113281 17.921875 164.121094 21.832031 C 165.90625 25.324219 167.242188 29.210938 167.339844 33.167969 Z M 169.5625 40.824219 C 169.378906 40.792969 169.199219 40.757812 169.019531 40.730469 C 167.960938 49.242188 166.132812 57 160.691406 63.867188 C 160.511719 64.085938 160.277344 64.050781 160.117188 63.898438 C 160.109375 63.898438 160.097656 63.902344 160.082031 63.898438 C 156.382812 62.972656 152.464844 62.871094 149.023438 61.070312 C 148.792969 60.949219 148.761719 60.664062 148.863281 60.453125 C 152.078125 53.617188 156.109375 46.757812 156.390625 39.003906 C 156.136719 38.949219 155.882812 38.878906 155.628906 38.8125 C 155.34375 43.039062 154.078125 47.296875 152.515625 51.183594 C 150.890625 55.238281 147.800781 58.300781 145.980469 62.179688 C 145.96875 62.253906 145.949219 62.328125 145.921875 62.386719 C 150.21875 62.8125 154.3125 64.273438 158.421875 65.554688 C 158.9375 65.222656 159.5 65.003906 160.113281 64.988281 C 160.46875 64.976562 160.769531 65.054688 161.03125 65.191406 C 165.464844 58.125 169.367188 49.246094 169.5625 40.824219 Z M 171.667969 31.984375 C 171.664062 31.949219 171.652344 31.914062 171.652344 31.867188 C 171.667969 26.601562 169.144531 21.199219 166.101562 17.019531 C 163.277344 13.144531 158.878906 8.960938 153.867188 11.238281 C 154.199219 11.605469 154.398438 12.03125 154.5 12.484375 C 165.039062 12.09375 169.003906 24.832031 169.390625 33.546875 C 169.398438 33.546875 169.40625 33.546875 169.410156 33.546875 C 170.132812 32.988281 170.882812 32.453125 171.667969 31.984375 Z M 172.050781 40.839844 C 171.875 40.902344 171.691406 40.960938 171.523438 41.027344 C 171.34375 41.09375 171.1875 41.085938 171.054688 41.039062 C 170.789062 49.835938 166.683594 59.140625 162.035156 66.441406 C 162.183594 66.84375 162.269531 67.300781 162.304688 67.769531 C 165.242188 63.988281 167.230469 59.464844 168.878906 54.992188 C 170.566406 50.421875 171.855469 45.722656 172.050781 40.839844 Z M 174.835938 38.371094 C 174.855469 36.40625 174.949219 34.449219 174.773438 32.488281 C 174.632812 32.449219 174.496094 32.40625 174.363281 32.347656 C 172.835938 32.894531 171.441406 33.847656 170.179688 34.851562 C 169.988281 35 169.773438 35.046875 169.570312 35.019531 C 169.457031 35.054688 169.335938 35.066406 169.195312 35.042969 C 163.890625 34.1875 158.789062 32.515625 153.59375 31.179688 C 153.816406 32.914062 153.824219 34.660156 153.617188 36.402344 C 156.371094 37.894531 159.566406 38.019531 162.628906 38.226562 C 165.550781 38.429688 168.238281 39.03125 171.101562 39.5625 C 171.109375 39.566406 171.113281 39.566406 171.113281 39.566406 C 171.117188 39.566406 171.117188 39.566406 171.121094 39.5625 C 172.339844 39.113281 173.601562 38.765625 174.835938 38.371094 Z M 176.253906 32.207031 C 176.484375 34.390625 176.347656 36.582031 176.339844 38.777344 C 176.332031 39.152344 176.113281 39.378906 175.839844 39.46875 C 175.761719 39.597656 175.632812 39.703125 175.453125 39.761719 C 174.824219 39.964844 174.195312 40.160156 173.566406 40.347656 C 173.425781 46.101562 171.859375 51.738281 169.691406 57.03125 C 167.710938 61.878906 165.542969 66.59375 161.988281 70.484375 C 161.96875 70.503906 161.949219 70.519531 161.921875 70.539062 C 161.878906 70.644531 161.832031 70.746094 161.777344 70.835938 C 160.570312 72.910156 159.164062 74.960938 157.847656 76.96875 C 156.628906 78.824219 155.261719 80.394531 153.476562 81.71875 C 153.261719 81.882812 153.050781 81.890625 152.871094 81.820312 C 152.859375 81.820312 152.855469 81.824219 152.84375 81.824219 C 151.457031 81.90625 149.851562 81.75 148.707031 80.878906 C 148.65625 80.847656 148.621094 80.804688 148.582031 80.765625 C 144.324219 81.738281 139.886719 80.824219 135.699219 79.449219 C 130.910156 77.878906 126.144531 76.164062 122.121094 73.015625 C 117.585938 69.46875 114.59375 64.929688 112.882812 59.414062 C 112.015625 56.605469 111.203125 53.933594 111.546875 50.96875 C 111.84375 48.449219 113.042969 46.167969 113.910156 43.824219 C 116.117188 37.851562 117.453125 31.863281 120.40625 26.183594 C 122.054688 23.019531 123.707031 19.859375 125.328125 16.6875 C 126.523438 14.351562 127.488281 11.464844 129.285156 9.515625 C 132.277344 6.269531 136.535156 5.792969 140.710938 5.582031 C 146.5625 5.285156 151.882812 7.152344 157.394531 8.855469 C 157.539062 8.902344 157.644531 8.976562 157.730469 9.070312 C 165.921875 9.820312 172.238281 22.402344 173.066406 30.207031 C 173.082031 30.207031 173.09375 30.207031 173.105469 30.210938 C 173.933594 30.476562 174.683594 30.949219 175.535156 31.140625 C 175.898438 31.222656 176.058594 31.488281 176.074219 31.773438 C 176.167969 31.882812 176.234375 32.03125 176.253906 32.207031 " fill-opacity="1" fill-rule="nonzero"/></g></svg>