<?xml version="1.0" encoding="UTF-8"?><svg xmlns="http://www.w3.org/2000/svg" xmlns:xlink="http://www.w3.org/1999/xlink" width="288" zoomAndPan="magnify" viewBox="0 0 288 89.999999" height="89.999999" preserveAspectRatio="xMidYMid meet" version="1.0"><defs><clipPath id="clip-0"><path d="M 128 36.207031 L 160.828125 36.207031 L 160.828125 66.859375 L 128 66.859375 Z M 128 36.207031 " clip-rule="nonzero"/></clipPath><clipPath id="clip-1"><path d="M 63.742188 18.753906 L 140 18.753906 L 140 66.859375 L 63.742188 66.859375 Z M 63.742188 18.753906 " clip-rule="nonzero"/></clipPath><clipPath id="clip-2"><path d="M 172.113281 18.753906 L 224.835938 18.753906 L 224.835938 71.378906 L 172.113281 71.378906 Z M 172.113281 18.753906 " clip-rule="nonzero"/></clipPath></defs><rect x="-28.8" width="345.6" fill="rgb(100%, 100%, 100%)" y="-9" height="107.999999" fill-opacity="1"/><rect x="-28.8" width="345.6" fill="rgb(100%, 100%, 100%)" y="-9" height="107.999999" fill-opacity="1"/><rect x="-28.8" width="345.6" fill="rgb(100%, 100%, 100%)" y="-9" height="107.999999" fill-opacity="1"/><rect x="-28.8" width="345.6" fill="rgb(100%, 100%, 100%)" y="-9" height="107.999999" fill-opacity="1"/><rect x="-28.8" width="345.6" fill="rgb(100%, 100%, 100%)" y="-9" height="107.999999" fill-opacity="1"/><rect x="-28.8" width="345.6" fill="rgb(87.838745%, 42.749023%, 6.269836%)" y="-9" height="107.999999" fill-opacity="1"/><path fill="rgb(95.689392%, 65.879822%, 24.708557%)" d="M 148.589844 54.558594 L 141.304688 55.011719 C 137.359375 55.210938 133.121094 58.617188 131.621094 62.789062 L 131.085938 64.242188 C 130.980469 64.535156 131.167969 64.820312 131.464844 64.820312 L 156.488281 64.820312 C 156.777344 64.820312 157.046875 64.621094 157.125 64.308594 C 157.550781 62.652344 157.792969 60.910156 157.792969 59.109375 C 157.792969 48.539062 149.734375 39.90625 139.839844 39.90625 L 139.839844 39.878906 C 139.550781 39.878906 139.230469 39.878906 138.9375 39.925781 C 138.726562 39.925781 138.542969 40.097656 138.457031 40.320312 L 137.175781 45.09375 C 136.617188 47.152344 136.828125 49.035156 137.757812 50.4375 C 138.617188 51.71875 140.054688 52.464844 141.789062 52.546875 L 148.78125 53.007812 C 148.992188 53.007812 149.179688 53.113281 149.285156 53.292969 C 149.390625 53.472656 149.421875 53.726562 149.367188 53.925781 C 149.257812 54.265625 148.933594 54.527344 148.589844 54.558594 Z M 148.589844 54.558594 " fill-opacity="1" fill-rule="nonzero"/><path fill="rgb(92.939758%, 49.409485%, 12.159729%)" d="M 65.878906 62.117188 C 65.878906 62.824219 65.929688 63.542969 66.011719 64.253906 C 66.0625 64.59375 66.335938 64.851562 66.664062 64.851562 L 128.050781 64.851562 C 128.398438 64.851562 128.726562 64.59375 128.832031 64.222656 L 129.292969 62.488281 L 129.292969 62.484375 C 129.859375 60.425781 129.640625 58.542969 128.695312 57.144531 C 127.832031 55.859375 126.375 55.113281 124.621094 55.03125 L 91.359375 54.574219 C 91.355469 54.574219 91.351562 54.574219 91.351562 54.574219 C 91.140625 54.574219 90.953125 54.460938 90.847656 54.28125 L 90.847656 54.277344 C 90.742188 54.109375 90.714844 53.878906 90.769531 53.652344 C 90.878906 53.308594 91.199219 53.050781 91.554688 53.015625 L 125.109375 52.5625 C 129.085938 52.359375 133.40625 48.957031 134.917969 44.78125 L 136.835938 39.496094 C 136.917969 39.265625 136.949219 39.035156 136.890625 38.8125 C 134.722656 28.476562 125.996094 20.757812 115.566406 20.757812 C 105.945312 20.757812 97.792969 27.332031 94.871094 36.445312 C 92.976562 34.957031 90.570312 34.152344 87.980469 34.417969 C 83.363281 34.902344 79.660156 38.816406 79.199219 43.703125 C 79.089844 44.964844 79.171875 46.191406 79.441406 47.335938 C 71.902344 47.566406 65.878906 54.085938 65.878906 62.117188 Z M 65.878906 62.117188 " fill-opacity="1" fill-rule="nonzero"/><g clip-path="url(#clip-0)"><path fill="rgb(0%, 0%, 0%)" d="M 156.488281 66.820312 L 131.460938 66.820312 C 130.460938 66.820312 129.1875 66.167969 128.625 65.351562 C 127.984375 64.429688 127.847656 63.246094 128.25 62.195312 L 128.789062 60.800781 C 130.0625 57.402344 132.878906 54.472656 136.136719 52.832031 C 135.816406 52.515625 135.523438 52.171875 135.261719 51.800781 C 133.804688 49.710938 133.449219 47.003906 134.25 44.171875 L 135.527344 39.625 C 136.117188 38.066406 137.292969 37.164062 138.648438 37.058594 C 139.167969 36.996094 139.714844 36.960938 140.210938 37.027344 C 151.617188 37.230469 160.828125 46.726562 160.828125 58.363281 C 160.828125 60.273438 160.570312 62.207031 160.058594 64.105469 C 159.605469 65.714844 158.140625 66.820312 156.488281 66.820312 Z M 135.691406 60.808594 L 154.566406 60.808594 C 154.695312 59.996094 154.761719 59.175781 154.761719 58.363281 C 154.761719 50.261719 148.605469 43.613281 140.851562 43.078125 L 140.09375 45.800781 C 139.785156 46.882812 139.839844 47.800781 140.25 48.390625 C 140.65625 48.964844 141.472656 49.085938 141.925781 49.109375 L 148.964844 49.550781 C 148.972656 49.550781 148.976562 49.550781 148.980469 49.550781 C 150.050781 49.550781 151.195312 50.179688 151.859375 51.234375 C 152.402344 52.140625 152.554688 53.230469 152.289062 54.207031 C 151.761719 55.824219 150.386719 56.902344 148.828125 57.027344 C 148.804688 57.027344 148.785156 57.03125 148.765625 57.03125 L 141.480469 57.460938 C 139.453125 57.554688 137.171875 58.945312 135.691406 60.808594 Z M 148.484375 55.53125 C 148.578125 55.542969 148.679688 55.546875 148.777344 55.546875 Z M 148.589844 54.019531 L 148.632812 54.019531 Z M 139.1875 43.050781 C 139.101562 43.058594 139.015625 43.0625 138.9375 43.0625 C 139.023438 43.058594 139.105469 43.054688 139.1875 43.050781 Z M 139.1875 43.050781 " fill-opacity="1" fill-rule="nonzero"/></g><g clip-path="url(#clip-1)"><path fill="rgb(0%, 0%, 0%)" d="M 128.160156 66.859375 L 67.550781 66.859375 C 65.730469 66.859375 64.199219 65.550781 63.914062 63.753906 C 63.804688 62.835938 63.742188 62.035156 63.742188 61.238281 C 63.742188 53.042969 69.285156 46.238281 76.847656 44.535156 C 76.851562 44.160156 76.871094 43.78125 76.90625 43.402344 C 77.503906 37.28125 82.292969 32.417969 88.289062 31.808594 C 90.203125 31.628906 92.097656 31.875 93.867188 32.511719 C 98.007812 24.15625 106.453125 18.753906 115.835938 18.753906 C 127.296875 18.753906 137.394531 27.003906 139.855469 38.367188 C 140.027344 39.03125 139.980469 39.863281 139.6875 40.667969 L 137.78125 45.742188 C 136.503906 49.167969 133.683594 52.101562 130.421875 53.742188 C 130.738281 54.058594 131.03125 54.402344 131.292969 54.773438 C 132.75 56.859375 133.109375 59.566406 132.304688 62.398438 L 131.859375 64.035156 C 131.367188 65.714844 129.855469 66.859375 128.160156 66.859375 Z M 69.921875 62.921875 L 69.964844 62.921875 Z M 69.816406 60.84375 L 126.457031 60.804688 C 126.765625 59.699219 126.710938 58.785156 126.300781 58.199219 C 125.898438 57.621094 125.078125 57.5 124.625 57.472656 L 91.890625 57.046875 C 90.671875 57.046875 89.523438 56.414062 88.855469 55.359375 C 88.316406 54.523438 88.148438 53.492188 88.390625 52.472656 C 88.941406 50.765625 90.300781 49.695312 91.84375 49.558594 L 125.214844 49.113281 C 127.832031 48.984375 131.03125 46.484375 132.09375 43.648438 L 133.796875 39.109375 C 131.683594 30.710938 124.238281 24.765625 115.835938 24.765625 C 107.894531 24.765625 100.839844 29.957031 98.285156 37.667969 C 97.976562 38.597656 97.238281 39.320312 96.296875 39.609375 C 95.351562 39.886719 94.339844 39.710938 93.554688 39.121094 C 92.605469 38.402344 91.023438 37.601562 88.890625 37.785156 C 85.773438 38.105469 83.265625 40.695312 82.945312 43.953125 C 82.867188 44.800781 82.929688 45.648438 83.117188 46.425781 C 83.332031 47.308594 83.136719 48.234375 82.578125 48.957031 C 82.023438 49.671875 81.167969 50.113281 80.257812 50.136719 C 74.527344 50.304688 70.011719 54.976562 69.816406 60.84375 Z M 91.921875 51.03125 L 91.984375 51.03125 C 91.964844 51.03125 91.941406 51.03125 91.921875 51.03125 Z M 133.910156 39.59375 C 133.921875 39.644531 133.933594 39.691406 133.949219 39.746094 C 133.933594 39.695312 133.921875 39.644531 133.910156 39.59375 Z M 133.910156 39.59375 " fill-opacity="1" fill-rule="nonzero"/></g><g clip-path="url(#clip-2)"><path fill="rgb(6.269836%, 5.879211%, 5.099487%)" d="M 183.574219 21.089844 C 188.578125 21.089844 192.09375 22.652344 192.09375 24.285156 C 192.09375 25.800781 188.59375 27.492188 183.574219 27.492188 C 178.554688 27.492188 175.054688 25.800781 175.054688 24.285156 C 175.054688 22.652344 178.566406 21.089844 183.574219 21.089844 Z M 183.574219 41.367188 C 178.402344 41.367188 174.96875 39.621094 174.96875 38.472656 L 174.96875 36.363281 C 176.800781 37.582031 179.910156 38.351562 183.574219 38.351562 C 187.234375 38.351562 190.34375 37.582031 192.175781 36.363281 L 192.175781 38.472656 C 192.175781 39.621094 188.75 41.367188 183.574219 41.367188 Z M 192.175781 30.09375 C 190.917969 31.339844 187.734375 32.429688 183.574219 32.429688 C 179.414062 32.429688 176.226562 31.339844 174.96875 30.09375 L 174.96875 26.382812 C 176.558594 27.773438 179.742188 28.679688 183.574219 28.679688 C 187.410156 28.679688 190.585938 27.773438 192.175781 26.382812 Z M 174.96875 31.628906 C 176.800781 32.839844 179.910156 33.613281 183.574219 33.613281 C 187.234375 33.613281 190.34375 32.839844 192.175781 31.628906 L 192.175781 34.832031 C 190.917969 36.082031 187.734375 37.164062 183.574219 37.164062 C 179.414062 37.164062 176.226562 36.082031 174.96875 34.832031 Z M 211.078125 40.644531 L 209.175781 37.90625 L 212.972656 37.90625 Z M 183.574219 54.878906 L 181.675781 52.144531 L 185.46875 52.144531 Z M 182.679688 43.726562 L 182.679688 50.957031 L 180.539062 50.957031 C 180.320312 50.957031 180.117188 51.078125 180.015625 51.277344 C 179.910156 51.46875 179.929688 51.707031 180.050781 51.890625 L 183.082031 56.265625 C 183.195312 56.421875 183.375 56.519531 183.574219 56.519531 C 183.769531 56.519531 183.949219 56.421875 184.058594 56.265625 L 187.089844 51.890625 C 187.21875 51.707031 187.230469 51.46875 187.128906 51.277344 C 187.023438 51.078125 186.824219 50.957031 186.605469 50.957031 L 184.460938 50.957031 L 184.460938 43.726562 C 189.617188 43.542969 194.558594 41.746094 194.558594 38.472656 L 194.558594 33.992188 L 210.183594 33.992188 L 210.183594 36.714844 L 208.039062 36.714844 C 207.820312 36.714844 207.621094 36.839844 207.515625 37.039062 C 207.414062 37.230469 207.429688 37.46875 207.554688 37.648438 L 210.585938 42.027344 C 210.699219 42.183594 210.878906 42.285156 211.078125 42.285156 C 211.269531 42.285156 211.449219 42.183594 211.5625 42.027344 L 214.59375 37.648438 C 214.71875 37.46875 214.734375 37.230469 214.628906 37.039062 C 214.527344 36.839844 214.320312 36.714844 214.105469 36.714844 L 211.964844 36.714844 L 211.964844 33.097656 C 211.964844 32.609375 211.566406 32.207031 211.078125 32.207031 L 194.558594 32.207031 L 194.558594 24.144531 C 194.558594 20.691406 189.03125 18.875 183.574219 18.875 C 178.113281 18.875 172.585938 20.679688 172.585938 24.144531 L 172.585938 38.472656 C 172.585938 41.746094 177.53125 43.542969 182.679688 43.726562 Z M 218.171875 59.65625 L 218.492188 58.601562 L 223.109375 58.601562 L 223.429688 59.65625 Z M 223.046875 56.257812 L 223.046875 58.007812 L 218.554688 58.007812 L 218.554688 56.257812 Z M 199.796875 44.71875 L 222.355469 44.71875 L 222.355469 46.902344 L 199.796875 46.902344 Z M 213.324219 58.007812 L 208.828125 58.007812 L 208.828125 56.257812 L 213.324219 56.257812 Z M 208.449219 59.65625 L 208.765625 58.601562 L 213.382812 58.601562 L 213.703125 59.65625 Z M 203.59375 58.007812 L 199.105469 58.007812 L 199.105469 56.257812 L 203.59375 56.257812 Z M 198.71875 59.65625 L 199.039062 58.601562 L 203.664062 58.601562 L 203.980469 59.65625 Z M 224.761719 59.972656 L 224.238281 58.214844 L 224.238281 55.660156 C 224.238281 55.335938 223.96875 55.070312 223.640625 55.070312 L 221.398438 55.070312 L 221.398438 48.6875 L 223.246094 48.6875 C 223.738281 48.6875 224.136719 48.289062 224.136719 47.796875 L 224.136719 43.824219 C 224.136719 43.335938 223.738281 42.933594 223.246094 42.933594 L 198.902344 42.933594 C 198.410156 42.933594 198.011719 43.335938 198.011719 43.824219 L 198.011719 47.796875 C 198.011719 48.289062 198.410156 48.6875 198.902344 48.6875 L 200.753906 48.6875 L 200.753906 55.070312 L 198.507812 55.070312 C 198.175781 55.070312 197.910156 55.335938 197.910156 55.660156 L 197.910156 58.214844 L 197.347656 60.078125 C 197.300781 60.257812 197.332031 60.453125 197.445312 60.605469 C 197.554688 60.753906 197.734375 60.84375 197.921875 60.84375 L 204.78125 60.84375 C 204.785156 60.84375 204.789062 60.84375 204.792969 60.84375 C 205.117188 60.84375 205.386719 60.578125 205.386719 60.25 C 205.386719 60.148438 205.359375 60.054688 205.316406 59.972656 L 204.789062 58.214844 L 204.789062 55.660156 C 204.789062 55.335938 204.515625 55.070312 204.1875 55.070312 L 201.945312 55.070312 L 201.945312 48.6875 L 210.484375 48.6875 L 210.484375 55.070312 L 208.230469 55.070312 C 207.902344 55.070312 207.640625 55.335938 207.640625 55.660156 L 207.640625 58.214844 L 207.078125 60.078125 C 207.023438 60.257812 207.058594 60.453125 207.167969 60.605469 C 207.285156 60.753906 207.453125 60.84375 207.648438 60.84375 L 214.5 60.84375 C 214.503906 60.84375 214.507812 60.84375 214.515625 60.84375 C 214.839844 60.84375 215.105469 60.578125 215.105469 60.25 C 215.105469 60.148438 215.085938 60.054688 215.039062 59.972656 L 214.507812 58.214844 L 214.507812 55.660156 C 214.507812 55.335938 214.242188 55.070312 213.917969 55.070312 L 211.667969 55.070312 L 211.667969 48.6875 L 220.203125 48.6875 L 220.203125 55.070312 L 217.957031 55.070312 C 217.632812 55.070312 217.363281 55.335938 217.363281 55.660156 L 217.363281 58.214844 L 216.800781 60.078125 C 216.746094 60.257812 216.78125 60.453125 216.890625 60.605469 C 217.007812 60.753906 217.183594 60.84375 217.371094 60.84375 L 224.226562 60.84375 C 224.234375 60.84375 224.238281 60.84375 224.242188 60.84375 C 224.570312 60.84375 224.835938 60.578125 224.835938 60.25 C 224.835938 60.148438 224.808594 60.054688 224.761719 59.972656 Z M 175.144531 68.957031 L 176.117188 66.699219 L 191.027344 66.699219 L 192.003906 68.957031 Z M 190.875 59.40625 L 190.875 65.507812 L 176.277344 65.507812 L 176.277344 59.40625 Z M 193.25 65.859375 L 193.25 58.21875 C 193.25 57.558594 192.722656 57.027344 192.066406 57.027344 L 175.082031 57.027344 C 174.429688 57.027344 173.894531 57.558594 173.894531 58.21875 L 173.894531 65.859375 L 172.238281 69.675781 C 172.078125 70.042969 172.117188 70.460938 172.335938 70.796875 C 172.554688 71.136719 172.929688 71.335938 173.328125 71.335938 L 193.816406 71.335938 C 193.824219 71.332031 193.828125 71.332031 193.828125 71.335938 C 194.488281 71.335938 195.023438 70.800781 195.023438 70.144531 C 195.023438 69.921875 194.953125 69.710938 194.847656 69.527344 L 193.25 65.859375 " fill-opacity="1" fill-rule="nonzero"/></g></svg>