<?xml version="1.0" encoding="UTF-8"?><svg xmlns="http://www.w3.org/2000/svg" xmlns:xlink="http://www.w3.org/1999/xlink" contentScriptType="text/ecmascript" width="288" zoomAndPan="magnify" contentStyleType="text/css" viewBox="0 0 288 89.999999" height="89.999999" preserveAspectRatio="xMidYMid meet" version="1.0"><defs><clipPath id="clip-0"><path d="M 164 39 L 200.808594 39 L 200.808594 73 L 164 73 Z M 164 39 " clip-rule="nonzero"/></clipPath><clipPath id="clip-1"><path d="M 87.558594 18 L 176 18 L 176 73 L 87.558594 73 Z M 87.558594 18 " clip-rule="nonzero"/></clipPath></defs><rect x="-28.8" width="345.6" fill="rgb(100%, 100%, 100%)" y="-9" height="107.999999" fill-opacity="1"/><rect x="-28.8" width="345.6" fill="rgb(100%, 100%, 100%)" y="-9" height="107.999999" fill-opacity="1"/><rect x="-28.8" width="345.6" fill="rgb(8.239746%, 5.099487%, 3.919983%)" y="-9" height="107.999999" fill-opacity="1"/><g clip-path="url(#clip-0)"><path fill="rgb(87.838745%, 42.749023%, 6.269836%)" d="M 196.890625 72.148438 L 167.050781 72.148438 C 166.273438 72.148438 165.148438 71.566406 164.707031 70.933594 C 164.179688 70.167969 164.0625 69.195312 164.398438 68.324219 L 165.046875 66.671875 C 166.703125 62.335938 170.65625 58.699219 175 57.199219 C 174.066406 56.652344 173.265625 55.925781 172.632812 55.039062 C 171.101562 52.882812 170.734375 50.046875 171.59375 47.054688 L 173.121094 41.710938 C 173.65625 40.324219 174.746094 39.566406 175.96875 39.566406 C 176.113281 39.511719 176.835938 39.464844 177.394531 39.542969 C 190.332031 39.730469 200.808594 50.359375 200.808594 63.402344 C 200.808594 65.546875 200.515625 67.714844 199.929688 69.839844 C 199.53125 71.214844 198.289062 72.148438 196.890625 72.148438 Z M 169.84375 67.460938 L 195.660156 67.460938 C 195.941406 66.125 196.089844 64.753906 196.089844 63.402344 C 196.089844 52.914062 187.683594 44.363281 177.296875 44.222656 L 176.128906 48.335938 C 175.664062 49.9375 175.796875 51.359375 176.492188 52.339844 C 177.070312 53.160156 178.132812 53.644531 179.472656 53.707031 L 187.847656 54.222656 C 187.855469 54.222656 187.855469 54.222656 187.859375 54.222656 C 188.785156 54.222656 189.746094 54.757812 190.308594 55.644531 C 190.769531 56.359375 190.910156 57.320312 190.679688 58.191406 C 190.207031 59.605469 189.011719 60.527344 187.660156 60.636719 C 187.648438 60.636719 187.632812 60.636719 187.613281 60.636719 L 178.921875 61.144531 C 175.433594 61.320312 171.570312 64.066406 169.84375 67.460938 Z M 187.507812 58.902344 C 187.574219 58.90625 187.636719 58.910156 187.703125 58.910156 Z M 187.476562 58.304688 L 187.523438 58.304688 Z M 176.5 44.210938 C 176.433594 44.214844 176.375 44.21875 176.308594 44.230469 C 176.386719 44.222656 176.433594 44.222656 176.5 44.210938 Z M 176.5 44.210938 " fill-opacity="1" fill-rule="nonzero"/></g><g clip-path="url(#clip-1)"><path fill="rgb(87.838745%, 42.749023%, 6.269836%)" d="M 163.113281 72.191406 L 90.835938 72.191406 C 89.308594 72.191406 88.003906 71.089844 87.746094 69.566406 C 87.625 68.5625 87.558594 67.667969 87.558594 66.777344 C 87.558594 57.363281 94.25 49.625 103.203125 48.125 C 103.167969 47.410156 103.179688 46.679688 103.246094 45.941406 C 103.90625 39.316406 109.140625 34.058594 115.703125 33.402344 C 118.171875 33.171875 120.640625 33.582031 122.867188 34.589844 C 127.386719 24.613281 137.324219 18.082031 148.417969 18.082031 C 161.492188 18.082031 173.015625 27.367188 175.824219 40.164062 C 175.988281 40.785156 175.9375 41.515625 175.660156 42.25 L 173.402344 48.179688 C 171.738281 52.535156 167.785156 56.175781 163.425781 57.675781 C 164.375 58.226562 165.175781 58.953125 165.808594 59.84375 C 167.335938 62 167.707031 64.832031 166.847656 67.820312 L 166.308594 69.753906 C 165.871094 71.210938 164.5625 72.191406 163.113281 72.191406 Z M 92.414062 68.894531 L 92.464844 68.894531 Z M 92.292969 67.503906 L 162.039062 67.503906 L 162.300781 66.570312 C 162.765625 64.953125 162.636719 63.53125 161.945312 62.558594 C 161.363281 61.730469 160.300781 61.246094 158.960938 61.183594 L 119.875 60.675781 C 118.847656 60.675781 117.878906 60.152344 117.316406 59.265625 C 116.847656 58.554688 116.699219 57.617188 116.921875 56.730469 C 117.402344 55.296875 118.585938 54.371094 119.929688 54.253906 L 159.613281 53.734375 C 163.300781 53.558594 167.542969 50.328125 168.984375 46.535156 L 171.144531 40.871094 C 168.640625 30.332031 159.148438 22.785156 148.417969 22.785156 C 138.402344 22.785156 129.507812 29.207031 126.292969 38.761719 C 126.046875 39.476562 125.476562 40.035156 124.753906 40.257812 C 124.027344 40.480469 123.246094 40.351562 122.636719 39.894531 C 120.777344 38.503906 118.460938 37.859375 116.171875 38.078125 C 111.847656 38.511719 108.390625 42.003906 107.957031 46.386719 C 107.855469 47.535156 107.929688 48.644531 108.183594 49.667969 C 108.351562 50.351562 108.203125 51.082031 107.773438 51.644531 C 107.339844 52.207031 106.671875 52.550781 105.960938 52.566406 C 98.28125 52.777344 92.277344 59.023438 92.277344 66.777344 C 92.277344 67.015625 92.28125 67.257812 92.292969 67.503906 Z M 119.898438 55.980469 L 119.941406 55.980469 C 119.921875 55.980469 119.910156 55.980469 119.898438 55.980469 Z M 171.214844 41.164062 C 171.21875 41.191406 171.226562 41.222656 171.234375 41.253906 C 171.226562 41.222656 171.214844 41.195312 171.214844 41.164062 Z M 171.214844 41.164062 " fill-opacity="1" fill-rule="nonzero"/></g></svg>