<?xml version="1.0" encoding="UTF-8"?><svg xmlns="http://www.w3.org/2000/svg" xmlns:xlink="http://www.w3.org/1999/xlink" width="288" zoomAndPan="magnify" viewBox="0 0 288 89.999999" height="89.999999" preserveAspectRatio="xMidYMid meet" version="1.0"><defs><clipPath id="clip-0"><path d="M 170 46 L 183 46 L 183 86.363281 L 170 86.363281 Z M 170 46 " clip-rule="nonzero"/></clipPath><clipPath id="clip-1"><path d="M 120 6 L 183 6 L 183 86.363281 L 120 86.363281 Z M 120 6 " clip-rule="nonzero"/></clipPath><clipPath id="clip-2"><path d="M 118 6 L 183.308594 6 L 183.308594 86.363281 L 118 86.363281 Z M 118 6 " clip-rule="nonzero"/></clipPath><clipPath id="clip-3"><path d="M 104.558594 5 L 157 5 L 157 71 L 104.558594 71 Z M 104.558594 5 " clip-rule="nonzero"/></clipPath><clipPath id="clip-4"><path d="M 152 3.863281 L 159 3.863281 L 159 10 L 152 10 Z M 152 3.863281 " clip-rule="nonzero"/></clipPath></defs><rect x="-28.8" width="345.6" fill="rgb(100%, 100%, 100%)" y="-9" height="107.999999" fill-opacity="1"/><rect x="-28.8" width="345.6" fill="rgb(100%, 100%, 100%)" y="-9" height="107.999999" fill-opacity="1"/><rect x="-28.8" width="345.6" fill="rgb(45.098877%, 45.098877%, 45.098877%)" y="-9" height="107.999999" fill-opacity="1"/><g clip-path="url(#clip-0)"><path fill="rgb(0%, 0%, 0%)" d="M 172.15625 46.402344 C 169.789062 60.445312 171.15625 73.488281 174.226562 86.074219 C 173.335938 75.492188 177.152344 66.476562 182.933594 58.132812 C 181.332031 57.394531 178.980469 56.78125 177.425781 54.347656 C 174.535156 49.828125 173.59375 47.519531 172.15625 46.402344 Z M 172.15625 46.402344 " fill-opacity="1" fill-rule="evenodd"/></g><g clip-path="url(#clip-1)"><path fill="rgb(100%, 100%, 100%)" d="M 120.765625 49.261719 C 137.457031 46.695312 148.503906 31.90625 154.875 6.984375 C 158.085938 11.140625 161.703125 14.695312 165.640625 19.738281 C 168.945312 23.976562 168.859375 28.75 167.210938 33.832031 C 166.335938 36.53125 166.746094 39.695312 168.542969 42.335938 C 170.023438 44.515625 172.097656 46.21875 173.863281 48.167969 C 174.921875 49.335938 175.5625 50.570312 175.921875 51.691406 C 176.679688 54.070312 178.679688 56.175781 182.933594 58.132812 C 176.902344 67.171875 172.835938 76.386719 174.226562 86.074219 C 166.445312 85.34375 160.457031 82.285156 156.6875 76.597656 C 154.734375 73.652344 152.578125 70.75 148.34375 67.488281 C 146.304688 65.917969 146.726562 64.550781 149.066406 64.570312 C 152.003906 64.597656 154.730469 65.40625 156.808594 65.90625 C 159.578125 66.570312 159.019531 64.550781 157.414062 63.113281 C 148.828125 55.417969 136.980469 50.5625 120.765625 49.261719 Z M 120.765625 49.261719 " fill-opacity="1" fill-rule="evenodd"/></g><path fill="rgb(85.099792%, 85.488892%, 85.879517%)" d="M 154.816406 7.335938 C 148.703125 31.414062 137.996094 45.992188 121.734375 49.101562 C 132.023438 50.355469 141.429688 52.589844 148.898438 56.964844 C 149.132812 41.222656 152.328125 25.660156 157.351562 10.203125 C 156.507812 9.246094 155.664062 8.289062 154.816406 7.335938 Z M 154.816406 7.335938 " fill-opacity="1" fill-rule="evenodd"/><path fill="rgb(79.60968%, 79.998779%, 80.778503%)" d="M 146.402344 29.523438 C 140.289062 40.410156 132.152344 47.109375 121.734375 49.101562 C 132.023438 50.355469 141.429688 52.589844 148.898438 56.964844 C 133.820312 44.929688 143.222656 45.101562 146.402344 29.523438 Z M 146.402344 29.523438 " fill-opacity="1" fill-rule="evenodd"/><path fill="rgb(85.099792%, 85.488892%, 85.879517%)" d="M 152.175781 70.460938 C 151.507812 67.695312 153.089844 66.210938 156.929688 66 C 157.53125 65.890625 158.128906 65.785156 158.726562 65.679688 C 162.039062 59.253906 164.621094 49.609375 167.183594 39.855469 C 166.429688 54.8125 165.480469 69.585938 165.914062 84.066406 C 162.1875 82.464844 159.25 80.316406 157.460938 77.367188 C 155.789062 75.339844 153.996094 72.941406 152.175781 70.460938 Z M 152.175781 70.460938 " fill-opacity="1" fill-rule="evenodd"/><path fill="rgb(79.60968%, 79.998779%, 80.778503%)" d="M 152.175781 70.460938 C 151.507812 67.695312 153.089844 66.210938 156.929688 66 C 157.53125 65.890625 158.128906 65.785156 158.726562 65.679688 C 162.039062 59.253906 164.621094 49.609375 167.183594 39.855469 C 163.347656 58.371094 159.988281 75.929688 165.914062 84.066406 C 162.1875 82.464844 159.25 80.316406 157.460938 77.367188 C 155.789062 75.339844 153.996094 72.941406 152.175781 70.460938 Z M 152.175781 70.460938 " fill-opacity="1" fill-rule="evenodd"/><path fill="rgb(0%, 0%, 0%)" d="M 154.816406 7.335938 C 157.582031 10.160156 160.203125 13.007812 162.5 15.914062 C 161.898438 19.140625 161.261719 22.230469 160.566406 25.128906 C 158.105469 22.550781 155 20.25 151.457031 18.148438 C 152.84375 14.664062 153.855469 11.011719 154.816406 7.335938 Z M 154.816406 7.335938 " fill-opacity="1" fill-rule="evenodd"/><path fill="rgb(0%, 0%, 0%)" d="M 147.320312 27.828125 C 151.121094 30.257812 154.507812 32.707031 156.984375 35.191406 C 155.53125 38.363281 153.933594 41.496094 151.839844 44.484375 C 148.863281 42.128906 144.734375 40.222656 139.957031 38.5625 C 142.871094 35.5625 145.226562 31.855469 147.320312 27.828125 Z M 147.320312 27.828125 " fill-opacity="1" fill-rule="evenodd"/><path fill="rgb(0%, 0%, 0%)" d="M 156.984375 35.191406 C 158.746094 31.996094 159.746094 28.585938 160.566406 25.128906 C 163.214844 27.695312 165.6875 30.371094 167.292969 33.582031 C 166.773438 37.160156 165.9375 40.648438 163.960938 43.808594 C 162.203125 40.980469 160.039062 38.125 156.984375 35.191406 Z M 156.984375 35.191406 " fill-opacity="1" fill-rule="evenodd"/><path fill="rgb(0%, 0%, 0%)" d="M 163.914062 43.734375 C 164.695312 44.6875 165.171875 45.355469 165.636719 45.960938 C 165.039062 47.996094 163.535156 52.925781 162.941406 54.960938 C 161.988281 53.984375 161.015625 52.808594 160.023438 51.4375 C 161.296875 49.65625 163.300781 45.339844 163.914062 43.734375 Z M 163.914062 43.734375 " fill-opacity="1" fill-rule="evenodd"/><path fill="rgb(0%, 0%, 0%)" d="M 160.023438 51.4375 C 157.851562 49.09375 155.121094 46.777344 151.839844 44.484375 C 149.464844 47.660156 146.765625 50.929688 143.601562 54.335938 C 147.65625 56.242188 151.339844 58.15625 153.671875 60.09375 C 156.097656 57.125 158.144531 54.257812 160.023438 51.4375 Z M 160.023438 51.4375 " fill-opacity="1" fill-rule="evenodd"/><path fill="rgb(0%, 0%, 0%)" d="M 158.226562 65.976562 C 159.460938 66.960938 160.515625 67.851562 161.390625 68.652344 C 162.328125 65.84375 163.152344 62.960938 163.730469 59.910156 C 162.515625 59.1875 162.105469 58.746094 161.804688 58.347656 C 161.136719 60.199219 160.425781 62.089844 159.425781 64.253906 C 158.941406 65.222656 158.480469 66.058594 158.226562 65.976562 Z M 158.226562 65.976562 " fill-opacity="1" fill-rule="evenodd"/><path fill="rgb(0%, 0%, 0%)" d="M 167.253906 39.691406 C 166.402344 42.546875 165.773438 45.351562 164.722656 48.855469 C 165.078125 49.222656 165.433594 49.59375 165.789062 49.960938 C 166.652344 46.652344 166.898438 43.109375 167.253906 39.691406 Z M 167.253906 39.691406 " fill-opacity="1" fill-rule="evenodd"/><path fill="rgb(0%, 0%, 0%)" d="M 165.789062 49.960938 C 165.121094 53.277344 164.433594 56.59375 163.730469 59.910156 C 165.636719 61.339844 167.546875 62.765625 169.453125 64.195312 C 170.078125 61.234375 170.703125 58.265625 171.324219 55.300781 C 169.480469 53.519531 167.636719 51.742188 165.789062 49.960938 Z M 165.789062 49.960938 " fill-opacity="1" fill-rule="evenodd"/><path fill="rgb(0%, 0%, 0%)" d="M 161.382812 68.644531 C 163.800781 70.523438 165.882812 72.097656 167.746094 73.453125 C 167.226562 76.984375 166.65625 80.515625 165.914062 84.066406 C 162.511719 82.914062 160.050781 80.855469 158.011719 78.378906 C 159.0625 75.507812 160.203125 72.179688 161.382812 68.644531 Z M 161.382812 68.644531 " fill-opacity="1" fill-rule="evenodd"/><path fill="rgb(0%, 0%, 0%)" d="M 167.746094 73.453125 C 168.316406 70.367188 168.886719 67.285156 169.453125 64.199219 C 171.902344 65.878906 174.347656 67.5625 176.792969 69.246094 C 175.644531 72.105469 174.714844 74.996094 174.277344 77.96875 C 172.144531 76.527344 169.988281 75.050781 167.746094 73.453125 Z M 167.746094 73.453125 " fill-opacity="1" fill-rule="evenodd"/><path fill="rgb(0%, 0%, 0%)" d="M 171.324219 55.300781 C 171.902344 52.976562 172.53125 50.410156 173.226562 47.488281 C 175.304688 49.902344 175.984375 52.488281 177.425781 54.347656 C 179.011719 56.402344 181.074219 57.488281 182.933594 58.132812 C 181.859375 59.695312 180.769531 61.253906 179.953125 62.917969 C 177.074219 60.378906 174.199219 57.839844 171.324219 55.300781 Z M 171.324219 55.300781 " fill-opacity="1" fill-rule="evenodd"/><path fill="rgb(0%, 0%, 0%)" d="M 157.09375 65.96875 C 155.089844 67.300781 154.027344 69.515625 153.4375 72.167969 C 151.855469 70.167969 149.90625 68.582031 147.820312 67.039062 C 146.175781 65.820312 146.925781 64.640625 148.648438 64.582031 C 151.9375 64.472656 154.691406 65.296875 157.09375 65.96875 Z M 157.09375 65.96875 " fill-opacity="1" fill-rule="evenodd"/><path fill="rgb(10.198975%, 9.01947%, 10.5896%)" d="M 147.117188 65.144531 C 148.097656 62.667969 149.082031 60.191406 150.066406 57.714844 C 153.511719 59.851562 156.796875 61.871094 158.402344 64.273438 C 159.15625 65.40625 158.699219 66.5 156.929688 66 C 155.386719 65.558594 153.296875 64.945312 150.667969 64.628906 C 149.164062 64.445312 147.984375 64.597656 147.117188 65.144531 Z M 147.117188 65.144531 " fill-opacity="1" fill-rule="evenodd"/><g clip-path="url(#clip-2)"><path fill="rgb(0%, 0%, 0%)" d="M 120.730469 49.015625 C 129.007812 47.742188 135.894531 43.433594 141.496094 36.351562 C 147.121094 29.246094 151.460938 19.347656 154.636719 6.921875 L 154.761719 6.433594 L 155.070312 6.832031 C 156.625 8.84375 158.273438 10.71875 160.011719 12.683594 C 161.859375 14.78125 163.804688 16.988281 165.832031 19.585938 C 167.519531 21.746094 168.339844 24.042969 168.53125 26.449219 C 168.71875 28.84375 168.277344 31.339844 167.445312 33.910156 L 167.441406 33.921875 C 167.324219 34.289062 167.226562 34.667969 167.160156 35.042969 C 167.089844 35.425781 167.046875 35.816406 167.027344 36.210938 C 166.925781 38.230469 167.484375 40.34375 168.746094 42.195312 C 169.707031 43.609375 170.929688 44.828125 172.152344 46.046875 C 172.796875 46.691406 173.441406 47.335938 174.046875 48 L 174.046875 48.003906 L 174.050781 48.007812 C 174.207031 48.179688 174.351562 48.347656 174.480469 48.515625 C 174.617188 48.683594 174.742188 48.855469 174.859375 49.023438 C 175.476562 49.902344 175.890625 50.789062 176.152344 51.617188 C 176.523438 52.765625 177.191406 53.855469 178.285156 54.890625 C 179.394531 55.941406 180.933594 56.941406 183.035156 57.90625 L 183.300781 58.027344 L 183.140625 58.269531 C 180.132812 62.773438 177.617188 67.320312 176.03125 71.941406 C 174.445312 76.546875 173.78125 81.238281 174.472656 86.039062 L 174.515625 86.351562 L 174.203125 86.320312 L 174.1875 86.320312 C 173.089844 86.214844 172.027344 86.066406 171.003906 85.871094 C 169.976562 85.675781 168.988281 85.429688 168.035156 85.140625 C 163.132812 83.640625 159.226562 80.875 156.480469 76.734375 C 155.507812 75.269531 154.488281 73.816406 153.1875 72.324219 C 151.882812 70.835938 150.296875 69.304688 148.191406 67.683594 C 147.515625 67.160156 147.089844 66.652344 146.90625 66.195312 C 146.777344 65.878906 146.753906 65.582031 146.839844 65.320312 C 146.925781 65.050781 147.113281 64.828125 147.394531 64.664062 C 147.773438 64.441406 148.339844 64.316406 149.070312 64.324219 L 149.253906 64.324219 C 151.710938 64.375 154.003906 64.949219 155.890625 65.425781 C 156.261719 65.515625 156.613281 65.605469 156.867188 65.664062 C 157.507812 65.820312 157.945312 65.824219 158.214844 65.71875 C 158.355469 65.664062 158.441406 65.578125 158.476562 65.46875 C 158.523438 65.339844 158.511719 65.167969 158.453125 64.976562 C 158.304688 64.46875 157.859375 63.84375 157.25 63.296875 C 152.976562 59.46875 147.894531 56.34375 141.863281 54.019531 C 135.824219 51.691406 128.828125 50.15625 120.746094 49.507812 L 118.628906 49.339844 Z M 141.882812 36.660156 C 136.613281 43.324219 130.21875 47.566406 122.609375 49.179688 C 129.972656 49.90625 136.414062 51.386719 142.039062 53.558594 C 148.128906 55.90625 153.265625 59.058594 157.578125 62.925781 C 158.25 63.53125 158.753906 64.242188 158.929688 64.835938 C 159.011719 65.128906 159.023438 65.394531 158.945312 65.625 C 158.863281 65.875 158.683594 66.070312 158.390625 66.179688 L 158.390625 66.183594 C 158.035156 66.320312 157.5 66.328125 156.753906 66.148438 C 156.378906 66.058594 156.074219 65.980469 155.769531 65.90625 C 153.902344 65.4375 151.640625 64.867188 149.242188 64.820312 L 149.066406 64.820312 C 148.429688 64.8125 147.953125 64.914062 147.644531 65.09375 C 147.46875 65.195312 147.355469 65.324219 147.308594 65.472656 C 147.261719 65.621094 147.277344 65.800781 147.363281 66.007812 C 147.515625 66.382812 147.886719 66.824219 148.492188 67.289062 C 150.625 68.933594 152.234375 70.484375 153.558594 72 C 154.878906 73.511719 155.914062 74.980469 156.894531 76.460938 C 159.574219 80.5 163.386719 83.199219 168.179688 84.667969 C 169.113281 84.953125 170.085938 85.191406 171.09375 85.382812 C 172.015625 85.558594 172.960938 85.699219 173.9375 85.796875 C 173.3125 81.023438 173.988281 76.359375 175.566406 71.777344 C 177.140625 67.195312 179.613281 62.691406 182.570312 58.234375 C 180.550781 57.285156 179.046875 56.292969 177.949219 55.253906 C 176.789062 54.152344 176.078125 52.996094 175.683594 51.769531 C 175.433594 50.984375 175.039062 50.144531 174.457031 49.308594 C 174.34375 49.148438 174.222656 48.980469 174.09375 48.820312 C 173.964844 48.65625 173.828125 48.496094 173.6875 48.34375 L 173.679688 48.335938 C 173.078125 47.671875 172.441406 47.035156 171.804688 46.402344 C 170.566406 45.164062 169.324219 43.929688 168.335938 42.476562 C 167.015625 40.53125 166.425781 38.308594 166.535156 36.183594 C 166.554688 35.773438 166.601562 35.363281 166.675781 34.957031 C 166.75 34.550781 166.847656 34.152344 166.972656 33.765625 L 166.976562 33.753906 C 167.789062 31.242188 168.21875 28.8125 168.039062 26.488281 C 167.855469 24.179688 167.066406 21.96875 165.445312 19.890625 C 163.417969 17.296875 161.484375 15.101562 159.640625 13.011719 C 158.011719 11.164062 156.457031 9.402344 154.984375 7.53125 C 151.804688 19.796875 147.476562 29.589844 141.882812 36.660156 Z M 141.882812 36.660156 " fill-opacity="1" fill-rule="nonzero"/></g><g clip-path="url(#clip-3)"><path fill="rgb(0%, 0%, 0%)" d="M 107.550781 69.75 L 107.542969 69.757812 L 107.542969 69.765625 C 107.261719 70.113281 106.863281 70.320312 106.449219 70.367188 C 106.042969 70.414062 105.613281 70.308594 105.257812 70.035156 L 105.242188 70.023438 L 105.226562 70.007812 L 105.21875 70.007812 C 104.871094 69.722656 104.667969 69.328125 104.621094 68.910156 C 104.570312 68.5 104.679688 68.070312 104.949219 67.714844 L 104.953125 67.710938 L 104.960938 67.699219 L 104.964844 67.695312 L 153.578125 5.957031 L 153.582031 5.953125 L 153.589844 5.941406 L 153.59375 5.9375 C 153.875 5.589844 154.269531 5.382812 154.683594 5.335938 C 155.09375 5.285156 155.523438 5.394531 155.875 5.664062 L 155.878906 5.667969 L 155.890625 5.675781 L 155.898438 5.6875 L 155.910156 5.695312 L 155.914062 5.695312 C 156.261719 5.980469 156.464844 6.375 156.515625 6.792969 C 156.5625 7.203125 156.457031 7.632812 156.1875 7.988281 L 156.183594 7.992188 L 156.175781 8.003906 L 156.167969 8.007812 L 107.554688 69.746094 Z M 106.480469 68.894531 L 155.089844 7.164062 L 155.097656 7.152344 C 155.140625 7.09375 155.160156 7.019531 155.152344 6.949219 C 155.144531 6.878906 155.109375 6.808594 155.050781 6.761719 L 155.046875 6.757812 L 155.042969 6.757812 C 154.984375 6.714844 154.910156 6.695312 154.839844 6.703125 C 154.769531 6.710938 154.703125 6.746094 154.65625 6.804688 L 154.652344 6.804688 L 154.652344 6.808594 L 106.042969 68.539062 L 106.046875 68.539062 L 106.039062 68.546875 C 105.992188 68.605469 105.976562 68.683594 105.984375 68.753906 C 105.992188 68.820312 106.027344 68.890625 106.082031 68.9375 L 106.089844 68.941406 C 106.148438 68.988281 106.222656 69.007812 106.296875 68.996094 C 106.363281 68.992188 106.433594 68.957031 106.480469 68.894531 Z M 106.480469 68.894531 " fill-opacity="1" fill-rule="nonzero"/></g><path fill="rgb(77.249146%, 77.648926%, 78.42865%)" d="M 107.019531 69.320312 C 106.6875 69.742188 106.082031 69.8125 105.664062 69.480469 C 105.246094 69.148438 105.171875 68.539062 105.503906 68.117188 L 154.117188 6.378906 C 154.445312 5.960938 155.054688 5.890625 155.472656 6.222656 C 155.890625 6.554688 155.960938 7.164062 155.632812 7.582031 Z M 107.019531 69.320312 " fill-opacity="1" fill-rule="nonzero"/><path fill="rgb(92.549133%, 92.549133%, 92.939758%)" d="M 107.109375 68.691406 C 106.941406 68.90625 106.632812 68.941406 106.417969 68.773438 C 106.207031 68.605469 106.171875 68.296875 106.339844 68.082031 L 153.121094 8.402344 C 153.289062 8.1875 153.597656 8.148438 153.8125 8.316406 C 154.023438 8.488281 154.058594 8.796875 153.890625 9.011719 Z M 107.109375 68.691406 " fill-opacity="1" fill-rule="nonzero"/><g clip-path="url(#clip-4)"><path fill="rgb(0%, 0%, 0%)" d="M 155.371094 3.863281 L 155.371094 3.867188 C 156.140625 3.867188 156.839844 4.179688 157.339844 4.683594 C 157.84375 5.1875 158.152344 5.886719 158.15625 6.65625 L 158.15625 6.664062 C 158.152344 7.433594 157.839844 8.132812 157.339844 8.640625 C 156.835938 9.144531 156.144531 9.457031 155.375 9.457031 L 155.375 9.460938 L 155.367188 9.460938 L 155.367188 9.457031 C 154.601562 9.457031 153.902344 9.144531 153.402344 8.636719 C 152.898438 8.132812 152.589844 7.433594 152.585938 6.664062 L 152.585938 6.660156 C 152.589844 5.886719 152.902344 5.1875 153.402344 4.683594 C 153.90625 4.179688 154.597656 3.867188 155.367188 3.867188 L 155.367188 3.863281 Z M 155.371094 5.242188 L 155.367188 5.242188 C 154.980469 5.242188 154.625 5.402344 154.371094 5.65625 C 154.117188 5.914062 153.957031 6.269531 153.957031 6.660156 L 153.957031 6.664062 C 153.957031 7.054688 154.117188 7.40625 154.371094 7.664062 C 154.628906 7.921875 154.980469 8.082031 155.367188 8.082031 L 155.367188 8.078125 L 155.375 8.078125 L 155.375 8.082031 C 155.761719 8.082031 156.117188 7.921875 156.371094 7.664062 C 156.625 7.40625 156.785156 7.050781 156.785156 6.664062 L 156.785156 6.65625 C 156.785156 6.269531 156.625 5.914062 156.371094 5.65625 C 156.113281 5.398438 155.761719 5.242188 155.371094 5.242188 Z M 155.371094 5.242188 " fill-opacity="1" fill-rule="nonzero"/></g><path fill="rgb(85.099792%, 85.488892%, 85.879517%)" d="M 155.371094 4.550781 C 156.53125 4.550781 157.46875 5.496094 157.46875 6.660156 C 157.46875 7.824219 156.53125 8.769531 155.371094 8.769531 C 154.210938 8.769531 153.273438 7.824219 153.273438 6.660156 C 153.273438 5.496094 154.210938 4.550781 155.371094 4.550781 Z M 155.371094 4.550781 " fill-opacity="1" fill-rule="evenodd"/><path fill="rgb(92.549133%, 92.549133%, 92.939758%)" d="M 155.214844 4.921875 C 155.953125 4.921875 156.550781 5.519531 156.550781 6.261719 C 156.550781 7 155.953125 7.601562 155.214844 7.601562 C 154.476562 7.601562 153.878906 7 153.878906 6.261719 C 153.878906 5.519531 154.476562 4.921875 155.214844 4.921875 Z M 155.214844 4.921875 " fill-opacity="1" fill-rule="evenodd"/></svg>