<?xml version="1.0" encoding="UTF-8"?><svg xmlns="http://www.w3.org/2000/svg" xmlns:xlink="http://www.w3.org/1999/xlink" contentScriptType="text/ecmascript" width="288" zoomAndPan="magnify" contentStyleType="text/css" viewBox="0 0 288 89.999999" height="89.999999" preserveAspectRatio="xMidYMid meet" version="1.0"><defs><clipPath id="clip-0"><path d="M 72.054688 12 L 132 12 L 132 31 L 72.054688 31 Z M 72.054688 12 " clip-rule="nonzero"/></clipPath><clipPath id="clip-1"><path d="M 92 11.09375 L 214 11.09375 L 214 78.59375 L 92 78.59375 Z M 92 11.09375 " clip-rule="nonzero"/></clipPath></defs><rect x="-28.8" width="345.6" fill="rgb(100%, 100%, 100%)" y="-9" height="107.999999" fill-opacity="1"/><rect x="-28.8" width="345.6" fill="rgb(100%, 100%, 100%)" y="-9" height="107.999999" fill-opacity="1"/><rect x="-28.8" width="345.6" fill="rgb(100%, 71.369934%, 38.038635%)" y="-9" height="107.999999" fill-opacity="1"/><g clip-path="url(#clip-0)"><path fill="rgb(0%, 0%, 0%)" d="M 131.914062 22.609375 C 117.761719 16.761719 103.792969 12.757812 90.628906 17.460938 C 88.378906 18.265625 88.910156 17.296875 90.085938 16.378906 C 92.65625 14.363281 95.621094 13.867188 98.457031 12.648438 C 87.449219 13.621094 77.097656 19.753906 72.234375 30.878906 C 88.277344 17.976562 107.921875 14.566406 131.914062 22.609375 Z M 131.914062 22.609375 " fill-opacity="1" fill-rule="evenodd"/></g><g clip-path="url(#clip-1)"><path fill="rgb(0%, 0%, 0%)" d="M 110.875 11.09375 C 114.191406 14.332031 118.175781 17.183594 126.695312 18.402344 C 130.898438 19.003906 135.277344 19.402344 138.734375 21.601562 C 140.484375 22.714844 140.386719 25.371094 137.359375 25.941406 C 133.886719 26.59375 130.355469 25.644531 126.8125 24.226562 C 114.261719 19.210938 102.734375 18.746094 92.296875 22.628906 C 109.59375 21.046875 121.824219 22.417969 122.914062 30.28125 C 122.480469 33.4375 122.445312 36.597656 122.683594 39.757812 C 120.085938 39.796875 117.484375 39.835938 114.886719 39.871094 C 115.386719 42.378906 115.875 44.898438 116.605469 47.179688 C 114.808594 47.65625 113.011719 48.199219 111.21875 48.894531 C 112.3125 51.296875 113.808594 53.566406 115.574219 55.746094 C 105.660156 60.714844 99.113281 69.042969 93.789062 78.585938 C 104.832031 66.753906 119.742188 52.730469 137.703125 58.03125 C 139.878906 58.671875 140.859375 61.773438 137.128906 61.796875 C 127.9375 61.859375 120.433594 61.574219 113.167969 67.734375 C 120.066406 64.488281 126.707031 63.640625 133.230469 64.996094 C 137.765625 65.9375 142.367188 66.632812 146.992188 66.9375 C 154.960938 67.460938 158.941406 65.207031 161.78125 62.710938 C 156.855469 64.285156 151.878906 65.214844 147.792969 61.683594 C 145.574219 59.765625 146.074219 58.070312 148.710938 58.371094 C 157.304688 59.359375 163.902344 58.742188 171.871094 57.574219 C 175.210938 57.082031 175.953125 59.546875 173.589844 62.367188 C 171.664062 64.675781 167.042969 65.539062 162.699219 66.59375 C 180.539062 68.03125 189.957031 61.554688 195.949219 51.863281 C 193.289062 54.09375 190.230469 56.375 185.515625 56.660156 C 181.117188 56.925781 181.914062 54.636719 184.253906 52.320312 C 190.546875 46.09375 200.699219 45.773438 213.953125 50.265625 C 199.882812 43.003906 190.9375 42.542969 176.113281 49.238281 C 166.179688 53.722656 155.507812 53.292969 145.042969 50.492188 C 138.597656 48.769531 132.125 49.359375 125.894531 49.351562 C 119.847656 49.34375 118.570312 45.359375 122.914062 43.527344 C 127.988281 41.382812 133.132812 42.375 137.816406 43.070312 C 133.171875 43.46875 128.613281 44.097656 125.089844 47.410156 C 129.523438 46.648438 133.738281 46.324219 137.472656 46.953125 C 150.148438 49.691406 165.746094 53.382812 175.425781 41.929688 C 170.167969 44.550781 164.605469 46.957031 157.082031 46.265625 C 154.222656 46.003906 154.199219 45.1875 156.964844 44.441406 C 165.0625 42.261719 171.8125 39.804688 175.195312 36.445312 C 173.898438 35.835938 172.597656 35.226562 171.296875 34.621094 C 161.546875 39.699219 148.488281 40.554688 134.378906 37.246094 C 131.128906 36.484375 130.730469 34.105469 134.605469 34.621094 C 146.414062 36.1875 157.429688 35.566406 167.777344 33.019531 C 165.902344 31.992188 163.769531 30.964844 161.894531 29.9375 C 157.84375 30.621094 153.71875 30.445312 149.742188 29.136719 C 146.78125 28.164062 145.9375 26.375 149.628906 25.710938 C 152.917969 25.121094 156.308594 25.777344 159.375 27.195312 C 173.734375 33.851562 182.996094 41.121094 199.847656 40.441406 C 192.355469 38.878906 184.789062 37.347656 177.375 32.679688 C 170.058594 28.070312 163.050781 23.175781 154.902344 18.632812 C 149.144531 15.421875 142.007812 14.0625 134.492188 14.292969 C 125.0625 14.582031 117.21875 13.988281 110.875 11.09375 Z M 110.875 11.09375 " fill-opacity="1" fill-rule="evenodd"/></g><path fill="rgb(0%, 0%, 0%)" d="M 170.707031 27.183594 C 172.0625 28.140625 173.613281 28.964844 174.96875 29.921875 C 183.988281 26.109375 193.476562 26.164062 202.757812 28.878906 C 192.078125 23.464844 181.390625 23.730469 170.707031 27.183594 Z M 170.707031 27.183594 " fill-opacity="1" fill-rule="evenodd"/><path fill="rgb(0%, 0%, 0%)" d="M 177.261719 31.421875 C 178.269531 32.007812 179.273438 32.59375 180.277344 33.179688 C 191.433594 29.984375 202.664062 32.097656 215.867188 38.070312 C 203.519531 30.644531 189.871094 26.175781 177.261719 31.421875 Z M 177.261719 31.421875 " fill-opacity="1" fill-rule="evenodd"/><path fill="rgb(0%, 0%, 0%)" d="M 79.667969 31.277344 C 83.078125 29.199219 86.527344 27.734375 90 26.542969 C 88.574219 30.335938 87.640625 34.1875 87.78125 38.164062 C 84.007812 40.027344 80.488281 42.21875 77.375 44.957031 C 76.96875 40.289062 77.65625 35.722656 79.667969 31.277344 Z M 79.667969 31.277344 " fill-opacity="1" fill-rule="evenodd"/><path fill="rgb(0%, 0%, 0%)" d="M 87.78125 38.164062 C 90.925781 36.5 94.089844 35.191406 97.273438 34.316406 C 97.328125 37.648438 97.964844 40.683594 98.929688 43.554688 C 95.828125 44.777344 92.707031 46.300781 89.558594 48.117188 C 88.460938 44.9375 87.835938 41.632812 87.78125 38.164062 Z M 87.78125 38.164062 " fill-opacity="1" fill-rule="evenodd"/><path fill="rgb(0%, 0%, 0%)" d="M 89.558594 48.117188 C 90.667969 51.539062 92.308594 54.835938 94.589844 57.980469 C 91.488281 60.382812 88.71875 63.039062 86.28125 65.945312 C 83.652344 62.800781 81.457031 59.332031 79.898438 55.390625 C 82.953125 52.535156 86.175781 50.113281 89.558594 48.117188 Z M 89.558594 48.117188 " fill-opacity="1" fill-rule="evenodd"/><path fill="rgb(0%, 0%, 0%)" d="M 94.589844 57.980469 C 97.507812 55.625 100.355469 53.816406 103.15625 52.378906 C 104.933594 55.441406 107.363281 58.175781 110.089844 60.761719 C 107.667969 62.828125 105.25 64.894531 102.832031 66.960938 C 99.757812 64.230469 97.011719 61.238281 94.589844 57.980469 Z M 94.589844 57.980469 " fill-opacity="1" fill-rule="evenodd"/><path fill="rgb(0%, 0%, 0%)" d="M 103.15625 52.378906 C 101.320312 49.578125 100.007812 46.605469 98.929688 43.554688 C 102.011719 42.3125 105.074219 41.394531 108.117188 40.871094 C 108.898438 43.707031 109.964844 46.363281 111.261719 48.875 C 108.546875 49.761719 105.839844 50.890625 103.15625 52.378906 Z M 103.15625 52.378906 " fill-opacity="1" fill-rule="evenodd"/><path fill="rgb(0%, 0%, 0%)" d="M 97.273438 34.316406 C 97.125 30.960938 97.582031 27.601562 98.765625 24.238281 C 102.988281 23.371094 106.804688 23.125 110.34375 23.296875 C 107.882812 24.707031 106.890625 27.863281 106.910156 32.210938 C 104.039062 32.636719 100.804688 33.355469 97.273438 34.316406 Z M 97.273438 34.316406 " fill-opacity="1" fill-rule="evenodd"/><path fill="rgb(0%, 0%, 0%)" d="M 106.910156 32.210938 C 106.878906 35.132812 107.28125 38.023438 108.117188 40.871094 C 110.476562 40.371094 112.765625 39.992188 114.886719 39.871094 C 114.46875 37.160156 114.535156 34.449219 115.296875 31.742188 C 112.601562 31.648438 109.820312 31.773438 106.910156 32.210938 Z M 106.910156 32.210938 " fill-opacity="1" fill-rule="evenodd"/><path fill="rgb(0%, 0%, 0%)" d="M 115.296875 31.742188 C 115.78125 28.820312 116.707031 25.976562 117.882812 23.179688 C 120.121094 23.714844 122.363281 24.25 124.601562 24.78125 C 124.523438 27.410156 124.441406 30.039062 124.363281 32.667969 C 121.84375 32.304688 118.925781 31.988281 115.296875 31.742188 Z M 115.296875 31.742188 " fill-opacity="1" fill-rule="evenodd"/></svg>