<svg xmlns="http://www.w3.org/2000/svg" width="288" viewBox="0 0 288 90" height="90" version="1.0"><defs><clipPath id="a"><path d="M 108.953125 16 L 178.703125 16 L 178.703125 73.746094 L 108.953125 73.746094 Z M 108.953125 16"/></clipPath></defs><path fill="#FFF" d="M-28.8 -9H316.8V99H-28.8z"/><path fill="#FFF" d="M-28.8 -9H316.8V99H-28.8z"/><path fill="#00132B" d="M-28.8 -9H316.8V99H-28.8z"/><g clip-path="url(#a)"><path fill="#D9D9D9" d="M 177.5 16.21875 L 110.15625 16.21875 C 109.492188 16.21875 108.953125 16.757812 108.953125 17.421875 L 108.953125 72.445312 C 108.953125 73.113281 109.492188 73.648438 110.15625 73.648438 L 177.5 73.648438 C 178.160156 73.648438 178.703125 73.113281 178.703125 72.445312 L 178.703125 17.421875 C 178.703125 16.757812 178.160156 16.21875 177.5 16.21875 Z M 176.296875 71.242188 L 111.359375 71.242188 L 111.359375 18.625 L 176.296875 18.625 L 176.296875 71.242188"/></g><path fill="#D9D9D9" d="M 169.800781 22.632812 C 170.46875 22.632812 171.003906 22.097656 171.003906 21.429688 C 171.003906 20.769531 170.46875 20.226562 169.800781 20.226562 C 169.136719 20.226562 168.597656 20.769531 168.597656 21.429688 C 168.597656 22.097656 169.136719 22.632812 169.800781 22.632812"/><path fill="#D9D9D9" d="M 173.550781 22.632812 C 174.210938 22.632812 174.75 22.097656 174.75 21.429688 C 174.75 20.769531 174.210938 20.226562 173.550781 20.226562 C 172.882812 20.226562 172.347656 20.769531 172.347656 21.429688 C 172.347656 22.097656 172.882812 22.632812 173.550781 22.632812"/><path fill="#D9D9D9" d="M 166.054688 22.632812 C 166.722656 22.632812 167.257812 22.097656 167.257812 21.429688 C 167.257812 20.769531 166.722656 20.226562 166.054688 20.226562 C 165.394531 20.226562 164.855469 20.769531 164.855469 21.429688 C 164.855469 22.097656 165.394531 22.632812 166.054688 22.632812"/><path fill="#D9D9D9" d="M 115.375 22.632812 L 128.636719 22.632812 C 129.296875 22.632812 129.835938 22.097656 129.835938 21.429688 C 129.835938 20.769531 129.296875 20.226562 128.636719 20.226562 L 115.375 20.226562 C 114.707031 20.226562 114.171875 20.769531 114.171875 21.429688 C 114.171875 22.097656 114.707031 22.632812 115.375 22.632812"/><path fill="#D9D9D9" d="M 117.4375 37.777344 L 117.4375 62.984375 C 117.4375 63.644531 117.976562 64.1875 118.640625 64.1875 L 169.015625 64.1875 C 169.679688 64.1875 170.21875 63.644531 170.21875 62.984375 L 170.21875 37.777344 C 170.21875 37.117188 169.679688 36.574219 169.015625 36.574219 L 118.640625 36.574219 C 117.976562 36.574219 117.4375 37.117188 117.4375 37.777344 Z M 167.8125 61.78125 L 145.03125 61.78125 L 145.03125 38.980469 L 167.8125 38.980469 Z M 119.839844 38.980469 L 142.625 38.980469 L 142.625 61.78125 L 119.839844 61.78125 L 119.839844 38.980469"/><path fill="#D9D9D9" d="M 131.234375 44.964844 C 128.25 44.964844 125.820312 47.394531 125.820312 50.382812 C 125.820312 53.367188 128.25 55.796875 131.234375 55.796875 C 134.214844 55.796875 136.644531 53.367188 136.644531 50.382812 C 136.644531 47.394531 134.214844 44.964844 131.234375 44.964844 Z M 131.234375 53.390625 C 129.574219 53.390625 128.226562 52.039062 128.226562 50.382812 C 128.226562 48.722656 129.574219 47.371094 131.234375 47.371094 C 132.890625 47.371094 134.238281 48.722656 134.238281 50.382812 C 134.238281 52.039062 132.890625 53.390625 131.234375 53.390625"/><path fill="#D9D9D9" d="M 131.234375 44.007812 C 131.898438 44.007812 132.4375 43.464844 132.4375 42.804688 L 132.4375 41.84375 C 132.4375 41.175781 131.898438 40.640625 131.234375 40.640625 C 130.570312 40.640625 130.03125 41.175781 130.03125 41.84375 L 130.03125 42.804688 C 130.03125 43.464844 130.570312 44.007812 131.234375 44.007812"/><path fill="#D9D9D9" d="M 131.234375 56.753906 C 130.570312 56.753906 130.03125 57.296875 130.03125 57.957031 L 130.03125 58.917969 C 130.03125 59.578125 130.570312 60.121094 131.234375 60.121094 C 131.898438 60.121094 132.4375 59.578125 132.4375 58.917969 L 132.4375 57.957031 C 132.4375 57.296875 131.898438 56.753906 131.234375 56.753906"/><path fill="#D9D9D9" d="M 139.765625 49.175781 L 138.804688 49.175781 C 138.144531 49.175781 137.601562 49.714844 137.601562 50.382812 C 137.601562 51.042969 138.144531 51.585938 138.804688 51.585938 L 139.765625 51.585938 C 140.429688 51.585938 140.964844 51.042969 140.964844 50.382812 C 140.964844 49.714844 140.429688 49.175781 139.765625 49.175781"/><path fill="#D9D9D9" d="M 124.863281 50.382812 C 124.863281 49.714844 124.324219 49.175781 123.660156 49.175781 L 122.703125 49.175781 C 122.039062 49.175781 121.5 49.714844 121.5 50.382812 C 121.5 51.042969 122.039062 51.585938 122.703125 51.585938 L 123.660156 51.585938 C 124.324219 51.585938 124.863281 51.042969 124.863281 50.382812"/><path fill="#D9D9D9" d="M 137.4375 45.875 L 138.113281 45.195312 C 138.585938 44.726562 138.585938 43.964844 138.113281 43.496094 C 137.644531 43.023438 136.882812 43.023438 136.414062 43.496094 L 135.738281 44.171875 C 135.269531 44.640625 135.269531 45.402344 135.738281 45.875 C 136.207031 46.34375 136.96875 46.34375 137.4375 45.875"/><path fill="#D9D9D9" d="M 125.027344 54.890625 L 124.351562 55.566406 C 123.882812 56.035156 123.882812 56.796875 124.351562 57.265625 C 124.820312 57.738281 125.582031 57.738281 126.050781 57.265625 L 126.726562 56.589844 C 127.199219 56.121094 127.199219 55.359375 126.726562 54.890625 C 126.257812 54.417969 125.496094 54.417969 125.027344 54.890625"/><path fill="#D9D9D9" d="M 137.4375 54.890625 C 136.96875 54.417969 136.207031 54.417969 135.738281 54.890625 C 135.269531 55.355469 135.269531 56.121094 135.738281 56.589844 L 136.414062 57.265625 C 136.882812 57.738281 137.644531 57.738281 138.113281 57.265625 C 138.585938 56.796875 138.585938 56.035156 138.113281 55.566406 L 137.4375 54.890625"/><path fill="#D9D9D9" d="M 125.027344 45.875 C 125.496094 46.34375 126.257812 46.34375 126.726562 45.875 C 127.199219 45.402344 127.199219 44.640625 126.726562 44.171875 L 126.050781 43.496094 C 125.582031 43.023438 124.820312 43.023438 124.351562 43.496094 C 123.882812 43.964844 123.882812 44.726562 124.351562 45.195312 L 125.027344 45.875"/><path fill="#D9D9D9" d="M 156.421875 58.480469 C 157.582031 58.480469 158.710938 58.230469 159.769531 57.746094 C 160.710938 57.320312 160.707031 55.984375 159.769531 55.554688 C 157.746094 54.628906 156.4375 52.601562 156.4375 50.382812 C 156.4375 48.164062 157.746094 46.128906 159.769531 45.207031 C 160.710938 44.777344 160.707031 43.441406 159.769531 43.015625 C 158.703125 42.53125 157.578125 42.28125 156.421875 42.28125 C 151.957031 42.28125 148.328125 45.914062 148.328125 50.382812 C 148.328125 54.847656 151.957031 58.480469 156.421875 58.480469 Z M 156.378906 44.6875 C 154.902344 46.179688 154.03125 48.21875 154.03125 50.382812 C 154.03125 52.542969 154.902344 54.578125 156.375 56.074219 C 153.261719 56.046875 150.734375 53.503906 150.734375 50.382812 C 150.734375 47.253906 153.261719 44.710938 156.378906 44.6875"/></svg>