<?xml version="1.0" encoding="UTF-8"?><svg xmlns="http://www.w3.org/2000/svg" xmlns:xlink="http://www.w3.org/1999/xlink" width="288" zoomAndPan="magnify" viewBox="0 0 288 89.999999" height="89.999999" preserveAspectRatio="xMidYMid meet" version="1.0"><defs><clipPath id="clip-0"><path d="M 108.09375 13.480469 L 180.019531 13.480469 L 180.019531 74.195312 L 108.09375 74.195312 Z M 108.09375 13.480469 " clip-rule="nonzero"/></clipPath><clipPath id="clip-1"><path d="M 109 4.5 L 132 4.5 L 132 20 L 109 20 Z M 109 4.5 " clip-rule="nonzero"/></clipPath><clipPath id="clip-2"><path d="M 142.792969 70.191406 L 164.535156 70.191406 L 164.535156 85.5 L 142.792969 85.5 Z M 142.792969 70.191406 " clip-rule="nonzero"/></clipPath></defs><rect x="-28.8" width="345.6" fill="rgb(100%, 100%, 100%)" y="-9" height="107.999999" fill-opacity="1"/><rect x="-28.8" width="345.6" fill="rgb(100%, 100%, 100%)" y="-9" height="107.999999" fill-opacity="1"/><rect x="-28.8" width="345.6" fill="rgb(7.839966%, 7.839966%, 18.429565%)" y="-9" height="107.999999" fill-opacity="1"/><g clip-path="url(#clip-0)"><path fill="rgb(95.689392%, 96.469116%, 98.81897%)" d="M 160.980469 49.929688 C 151.667969 49.929688 144.09375 42.367188 144.09375 33.070312 C 144.09375 25.3125 149.410156 18.625 156.761719 16.742188 C 156.582031 17.808594 156.496094 18.894531 156.496094 19.984375 C 156.496094 30.855469 165.355469 39.703125 176.242188 39.703125 C 176.332031 39.703125 176.417969 39.703125 176.507812 39.699219 C 173.878906 45.8125 167.765625 49.929688 160.980469 49.929688 Z M 137.339844 57.925781 C 130.183594 57.925781 124.363281 52.113281 124.363281 44.96875 C 124.363281 37.824219 130.183594 32.011719 137.339844 32.011719 C 138.699219 32.011719 140.003906 32.21875 141.234375 32.605469 C 141.230469 32.761719 141.230469 32.914062 141.230469 33.070312 C 141.230469 39.71875 144.542969 45.609375 149.609375 49.183594 C 147.855469 54.261719 143.019531 57.925781 137.339844 57.925781 Z M 179.671875 37.195312 C 179.359375 36.828125 178.882812 36.648438 178.40625 36.707031 C 177.691406 36.796875 176.964844 36.84375 176.242188 36.84375 C 166.933594 36.84375 159.355469 29.28125 159.355469 19.984375 C 159.355469 18.402344 159.578125 16.832031 160.011719 15.324219 C 160.144531 14.863281 160.035156 14.363281 159.722656 14 C 159.40625 13.632812 158.929688 13.453125 158.453125 13.511719 C 149.765625 14.621094 142.972656 21.328125 141.519531 29.710938 C 140.632812 29.46875 139.714844 29.300781 138.773438 29.21875 L 138.773438 17.195312 C 138.773438 16.40625 138.132812 15.765625 137.339844 15.765625 C 136.550781 15.765625 135.910156 16.40625 135.910156 17.195312 L 135.910156 29.21875 C 132.617188 29.515625 129.609375 30.820312 127.203125 32.824219 L 118.683594 24.320312 C 118.125 23.761719 117.21875 23.761719 116.660156 24.320312 C 116.101562 24.878906 116.101562 25.78125 116.660156 26.339844 L 125.179688 34.847656 C 123.171875 37.246094 121.863281 40.25 121.566406 43.539062 L 109.523438 43.539062 C 108.734375 43.539062 108.09375 44.179688 108.09375 44.96875 C 108.09375 45.757812 108.734375 46.394531 109.523438 46.394531 L 121.566406 46.394531 C 121.863281 49.6875 123.171875 52.6875 125.179688 55.089844 L 116.660156 63.59375 C 116.101562 64.152344 116.101562 65.058594 116.660156 65.613281 C 116.941406 65.894531 117.304688 66.035156 117.671875 66.035156 C 118.039062 66.035156 118.40625 65.894531 118.683594 65.613281 L 127.203125 57.109375 C 129.609375 59.113281 132.617188 60.421875 135.910156 60.71875 L 135.910156 72.738281 C 135.910156 73.527344 136.550781 74.167969 137.339844 74.167969 C 138.132812 74.167969 138.773438 73.527344 138.773438 72.738281 L 138.773438 60.71875 C 142.066406 60.421875 145.074219 59.113281 147.480469 57.109375 L 156 65.613281 C 156.277344 65.894531 156.644531 66.035156 157.011719 66.035156 C 157.378906 66.035156 157.742188 65.894531 158.023438 65.613281 C 158.582031 65.058594 158.582031 64.152344 158.023438 63.59375 L 149.503906 55.089844 C 150.597656 53.78125 151.484375 52.296875 152.109375 50.683594 C 154.777344 52.027344 157.792969 52.785156 160.980469 52.785156 C 165.351562 52.785156 169.496094 51.386719 172.964844 48.742188 C 176.316406 46.179688 178.804688 42.550781 179.960938 38.519531 C 180.09375 38.058594 179.988281 37.558594 179.671875 37.195312 " fill-opacity="1" fill-rule="nonzero"/></g><g clip-path="url(#clip-1)"><path fill="rgb(95.689392%, 96.469116%, 98.81897%)" d="M 124.359375 10.238281 L 124.402344 12.605469 L 131.589844 8.722656 L 131.617188 8.710938 L 124.417969 4.5 L 124.460938 6.839844 C 123.878906 6.933594 123.304688 7.054688 122.734375 7.203125 C 120.320312 7.824219 118.078125 8.894531 116.066406 10.382812 C 114.058594 11.871094 112.378906 13.703125 111.082031 15.828125 C 110.4375 16.890625 109.898438 18 109.472656 19.15625 L 110.90625 19.234375 C 113.050781 13.90625 118.644531 11.269531 124.359375 10.238281 " fill-opacity="1" fill-rule="nonzero"/></g><g clip-path="url(#clip-2)"><path fill="rgb(95.689392%, 96.469116%, 98.81897%)" d="M 150 79.765625 L 149.855469 77.402344 L 142.84375 81.59375 L 142.820312 81.605469 L 150.195312 85.503906 L 150.050781 83.164062 C 150.625 83.046875 151.195312 82.902344 151.757812 82.730469 C 154.140625 82.003906 156.335938 80.835938 158.28125 79.261719 C 160.222656 77.6875 161.820312 75.785156 163.023438 73.605469 C 163.625 72.519531 164.113281 71.386719 164.488281 70.214844 L 163.050781 70.195312 C 161.140625 75.613281 155.664062 78.488281 150 79.765625 " fill-opacity="1" fill-rule="nonzero"/></g></svg>