<?xml version="1.0" encoding="UTF-8"?><svg xmlns="http://www.w3.org/2000/svg" xmlns:xlink="http://www.w3.org/1999/xlink" width="288" zoomAndPan="magnify" viewBox="0 0 288 89.999999" height="89.999999" preserveAspectRatio="xMidYMid meet" version="1.0"><defs><clipPath id="clip-0"><path d="M 111.800781 6.03125 L 176.300781 6.03125 L 176.300781 84.03125 L 111.800781 84.03125 Z M 111.800781 6.03125 " clip-rule="nonzero"/></clipPath></defs><rect x="-28.8" width="345.6" fill="rgb(100%, 100%, 100%)" y="-9" height="107.999999" fill-opacity="1"/><rect x="-28.8" width="345.6" fill="rgb(100%, 100%, 100%)" y="-9" height="107.999999" fill-opacity="1"/><rect x="-28.8" width="345.6" fill="rgb(17.248535%, 49.409485%, 95.689392%)" y="-9" height="107.999999" fill-opacity="1"/><g clip-path="url(#clip-0)"><path fill="rgb(0%, 0%, 0%)" d="M 174.597656 19.597656 C 168.335938 19.597656 161.871094 15.394531 156.167969 11.683594 C 151.503906 8.652344 147.476562 6.03125 144.050781 6.03125 C 140.625 6.03125 136.597656 8.652344 131.9375 11.683594 C 126.234375 15.394531 119.769531 19.597656 113.507812 19.597656 C 112.570312 19.597656 111.8125 20.355469 111.8125 21.292969 L 111.8125 33.160156 C 111.8125 37.542969 112.421875 41.980469 113.488281 46.316406 C 113.519531 46.453125 113.535156 46.582031 113.570312 46.726562 L 113.585938 46.726562 C 118.59375 66.515625 133.183594 84.03125 144.050781 84.03125 C 157.371094 84.03125 176.292969 57.722656 176.292969 33.160156 L 176.292969 21.292969 C 176.292969 20.355469 175.535156 19.597656 174.597656 19.597656 Z M 172.898438 33.160156 C 172.898438 37.757812 172.226562 42.332031 171.070312 46.726562 L 144.050781 46.726562 L 144.050781 80.640625 C 135.484375 80.640625 121.914062 65.296875 117.03125 46.726562 L 144.050781 46.726562 L 144.050781 9.421875 C 146.46875 9.421875 150.28125 11.902344 154.316406 14.527344 C 159.9375 18.183594 166.253906 22.289062 172.898438 22.90625 Z M 172.898438 33.160156 " fill-opacity="1" fill-rule="nonzero"/></g></svg>